GeistMono.glyphspackage
{
color = 4;
glyphname = exclam;
kernLeft = "0";
kernRight = "0";
layers = (
{
background = {
shapes = (
{
closed = 1;
nodes = (
(311,205,l),
(313,297,o),
(316,368,o),
(316,460,c),
(316,710,l),
(284,710,l),
(284,460,l),
(284,368,o),
(287,297,o),
(289,205,c)
);
},
{
ref = period;
}
);
};
layerId = "EE2FFE84-06F1-4AFB-BBEC-60D09A436D14";
name = Regular;
shapes = (
{
ref = period;
},
{
closed = 1;
nodes = (
(311,205,l),
(313,295,o),
(316,378,o),
(316,460,cs),
(316,710,l),
(284,710,l),
(284,460,ls),
(284,378,o),
(287,295,o),
(289,205,c)
);
}
);
width = 600;
},
{
background = {
shapes = (
{
closed = 1;
nodes = (
(327,205,l),
(332,297,o),
(343,387,o),
(343,479,c),
(343,710,l),
(257,710,l),
(257,479,l),
(257,387,o),
(268,297,o),
(273,205,c)
);
},
{
alignment = -1;
ref = period;
}
);
};
layerId = "574EE4B9-5C1A-4E7E-9985-C08FACB65BD8";
name = Regular;
shapes = (
{
alignment = -1;
ref = period;
},
{
closed = 1;
nodes = (
(328,209,l),
(334,279,o),
(343,400,o),
(343,480,cs),
(343,710,l),
(257,710,l),
(257,480,ls),
(257,400,o),
(267,279,o),
(273,209,c)
);
}
);
width = 600;
},
{
background = {
shapes = (
{
closed = 1;
nodes = (
(350,243,l),
(358,326,o),
(373,423,o),
(373,507,c),
(373,710,l),
(227,710,l),
(227,507,l),
(227,423,o),
(242,326,o),
(250,243,c)
);
},
{
alignment = -1;
ref = period;
}
);
};
layerId = "58B1DC7A-69F8-4375-AD2E-AC5103CCF536";
name = Regular;
shapes = (
{
alignment = -1;
ref = period;
},
{
closed = 1;
nodes = (
(360,240,l),
(370,296,o),
(382,410,o),
(382,490,cs),
(382,710,l),
(218,710,l),
(218,490,ls),
(218,410,o),
(230,296,o),
(240,240,c)
);
}
);
width = 600;
}
);
unicode = 33;
}
{
color = 9;
glyphname = quotedbl;
layers = (
{
layerId = "EE2FFE84-06F1-4AFB-BBEC-60D09A436D14";
shapes = (
{
closed = 1;
nodes = (
(374,353,l),
(384,610,l),
(384,710,l),
(342,710,l),
(344,353,l)
);
},
{
closed = 1;
nodes = (
(256,353,l),
(258,710,l),
(216,710,l),
(216,611,l),
(226,353,l)
);
}
);
width = 600;
},
{
layerId = "574EE4B9-5C1A-4E7E-9985-C08FACB65BD8";
shapes = (
{
closed = 1;
nodes = (
(411,353,l),
(435,600,l),
(435,710,l),
(341,710,l),
(345,353,l)
);
},
{
closed = 1;
nodes = (
(255,353,l),
(259,710,l),
(165,710,l),
(165,600,l),
(189,353,l)
);
}
);
width = 600;
},
{
layerId = "58B1DC7A-69F8-4375-AD2E-AC5103CCF536";
shapes = (
{
closed = 1;
nodes = (
(466,312,l),
(490,594,l),
(490,710,l),
(338,710,l),
(342,312,l)
);
},
{
closed = 1;
nodes = (
(258,312,l),
(262,710,l),
(110,710,l),
(110,594,l),
(134,312,l)
);
}
);
width = 600;
}
);
unicode = 34;
}
{
color = 4;
glyphname = dollar;
kernLeft = "0";
kernRight = "0";
layers = (
{
background = {
shapes = (
{
closed = 1;
nodes = (
(37,109,o),
(149,-12,o),
(318,-12,cs),
(452,-12,o),
(573,52,o),
(573,184,cs),
(573,311,o),
(469,357,o),
(326,398,cs),
(192,436,o),
(155,466,o),
(155,527,cs),
(155,593,o),
(214,640,o),
(300,640,cs),
(392,640,o),
(472,562,o),
(477,458,c),
(427,491,l),
(610,503,l),
(567,469,l),
(563,632,o),
(418,726,o),
(312,726,cs),
(159,726,o),
(63,649,o),
(63,527,cs),
(63,419,o),
(132,364,o),
(298,321,cs),
(419,290,o),
(481,240,o),
(481,184,cs),
(481,116,o),
(421,74,o),
(323,74,cs),
(186,74,o),
(139,144,o),
(129,269,c),
(178,236,l),
(-5,224,l),
(39,256,l)
);
}
);
};
layerId = "EE2FFE84-06F1-4AFB-BBEC-60D09A436D14";
shapes = (
{
closed = 1;
nodes = (
(314,-91,l),
(314,800,l),
(284,800,l),
(284,-91,l)
);
},
{
closed = 1;
nodes = (
(434,-16,o),
(542,56,o),
(542,170,cs),
(542,272,o),
(492,320,o),
(296,372,cs),
(152,410,o),
(107,439,o),
(107,526,cs),
(107,616,o),
(178,680,o),
(291,680,cs),
(417,680,o),
(489,593,o),
(489,491,c),
(523,494,l),
(523,602,o),
(441,712,o),
(293,712,cs),
(156,712,o),
(73,630,o),
(73,528,cs),
(73,416,o),
(142,380,o),
(286,342,cs),
(466,294,o),
(508,253,o),
(508,172,cs),
(508,74,o),
(419,16,o),
(311,16,cs),
(184,16,o),
(91,112,o),
(91,222,c),
(58,219,l),
(58,89,o),
(170,-16,o),
(309,-16,cs)
);
}
);
width = 600;
},
{
layerId = "574EE4B9-5C1A-4E7E-9985-C08FACB65BD8";
shapes = (
{
closed = 1;
nodes = (
(337,-90,l),
(337,800,l),
(263,800,l),
(263,-90,l)
);
},
{
closed = 1;
nodes = (
(456,-16,o),
(556,62,o),
(556,174,cs),
(556,292,o),
(494,341,o),
(321,390,cs),
(187,428,o),
(151,451,o),
(151,518,cs),
(151,586,o),
(207,626,o),
(295,626,cs),
(391,626,o),
(441,570,o),
(453,484,c),
(543,490,l),
(527,620,o),
(443,710,o),
(297,710,cs),
(151,710,o),
(61,633,o),
(61,514,cs),
(61,418,o),
(119,357,o),
(267,318,cs),
(435,274,o),
(466,244,o),
(466,176,cs),
(466,107,o),
(412,68,o),
(313,68,cs),
(213,68,o),
(148,127,o),
(134,233,c),
(44,227,l),
(56,83,o),
(161,-16,o),
(311,-16,cs)
);
}
);
width = 600;
},
{
layerId = "58B1DC7A-69F8-4375-AD2E-AC5103CCF536";
shapes = (
{
closed = 1;
nodes = (
(346,-91,l),
(346,805,l),
(260,805,l),
(260,-91,l)
);
},
{
closed = 1;
nodes = (
(468,-6,o),
(560,68,o),
(560,206,cs),
(560,314,o),
(510,384,o),
(344,424,cs),
(236,450,o),
(212,466,o),
(212,512,cs),
(212,549,o),
(237,572,o),
(294,572,cs),
(360,572,o),
(377,539,o),
(385,473,c),
(555,480,l),
(547,635,o),
(457,716,o),
(302,716,cs),
(140,716,o),
(56,632,o),
(56,504,cs),
(56,378,o),
(140,320,o),
(262,294,cs),
(370,271,o),
(400,245,o),
(400,196,cs),
(400,158,o),
(373,138,o),
(309,138,cs),
(247,138,o),
(222,174,o),
(210,257,c),
(40,249,l),
(51,79,o),
(133,-6,o),
(302,-6,cs)
);
}
);
width = 600;
}
);
unicode = 36;
}
{
color = 4;
glyphname = percent;
kernLeft = "0";
kernRight = "0";
layers = (
{
background = {
shapes = (
{
closed = 1;
nodes = (
(25,-20,l),
(-28,-12,l),
(111,-12,l),
(44,-50,l),
(596,736,l),
(627,726,l),
(499,726,l),
(572,759,l)
);
},
{
closed = 1;
nodes = (
(176,401,o),
(226,461,o),
(226,537,cs),
(226,613,o),
(176,673,o),
(113,673,cs),
(50,673,o),
(0,613,o),
(0,537,cs),
(0,461,o),
(50,401,o),
(113,401,cs)
);
},
{
closed = 1;
nodes = (
(65,431,o),
(32,475,o),
(32,537,cs),
(32,602,o),
(65,647,o),
(113,647,cs),
(161,647,o),
(194,602,o),
(194,537,cs),
(194,475,o),
(161,431,o),
(113,431,cs)
);
},
{
closed = 1;
nodes = (
(176,401,o),
(226,461,o),
(226,537,cs),
(226,613,o),
(176,673,o),
(113,673,cs),
(50,673,o),
(0,613,o),
(0,537,cs),
(0,461,o),
(50,401,o),
(113,401,cs)
);
},
{
closed = 1;
nodes = (
(65,431,o),
(32,475,o),
(32,537,cs),
(32,602,o),
(65,647,o),
(113,647,cs),
(161,647,o),
(194,602,o),
(194,537,cs),
(194,475,o),
(161,431,o),
(113,431,cs)
);
},
{
closed = 1;
nodes = (
(562,39,o),
(612,99,o),
(612,175,cs),
(612,251,o),
(562,311,o),
(499,311,cs),
(436,311,o),
(386,251,o),
(386,175,cs),
(386,99,o),
(436,39,o),
(499,39,cs)
);
},
{
closed = 1;
nodes = (
(451,69,o),
(418,113,o),
(418,175,cs),
(418,240,o),
(451,285,o),
(499,285,cs),
(547,285,o),
(580,240,o),
(580,175,cs),
(580,113,o),
(547,69,o),
(499,69,cs)
);
},
{
closed = 1;
nodes = (
(562,39,o),
(612,99,o),
(612,175,cs),
(612,251,o),
(562,311,o),
(499,311,cs),
(436,311,o),
(386,251,o),
(386,175,cs),
(386,99,o),
(436,39,o),
(499,39,cs)
);
},
{
closed = 1;
nodes = (
(451,69,o),
(418,113,o),
(418,175,cs),
(418,240,o),
(451,285,o),
(499,285,cs),
(547,285,o),
(580,240,o),
(580,175,cs),
(580,113,o),
(547,69,o),
(499,69,cs)
);
},
{
closed = 1;
nodes = (
(25,-20,l),
(-28,-12,l),
(111,-12,l),
(44,-50,l),
(596,736,l),
(627,726,l),
(499,726,l),
(572,759,l)
);
},
{
closed = 1;
nodes = (
(194,363,o),
(258,440,o),
(258,537,cs),
(258,634,o),
(194,711,o),
(113,711,cs),
(32,711,o),
(-32,634,o),
(-32,537,cs),
(-32,440,o),
(32,363,o),
(113,363,cs)
);
},
{
closed = 1;
nodes = (
(71,441,o),
(45,478,o),
(45,537,cs),
(45,596,o),
(71,633,o),
(113,633,cs),
(155,633,o),
(182,596,o),
(182,537,cs),
(182,478,o),
(155,441,o),
(113,441,cs)
);
},
{
closed = 1;
nodes = (
(580,0,o),
(644,77,o),
(644,174,cs),
(644,271,o),
(580,348,o),
(499,348,cs),
(418,348,o),
(354,271,o),
(354,174,cs),
(354,77,o),
(418,0,o),
(499,0,cs)
);
},
{
closed = 1;
nodes = (
(457,78,o),
(431,115,o),
(431,174,cs),
(431,233,o),
(457,270,o),
(499,270,cs),
(541,270,o),
(568,233,o),
(568,174,cs),
(568,115,o),
(541,78,o),
(499,78,cs)
);
}
);
};
layerId = "EE2FFE84-06F1-4AFB-BBEC-60D09A436D14";
shapes = (
{
closed = 1;
nodes = (
(218,398,o),
(268,458,o),
(268,558,cs),
(268,658,o),
(218,718,o),
(144,718,cs),
(70,718,o),
(20,658,o),
(20,558,cs),
(20,458,o),
(70,398,o),
(144,398,cs)
);
},
{
closed = 1;
nodes = (
(86,426,o),
(50,470,o),
(50,558,cs),
(50,646,o),
(86,690,o),
(144,690,cs),
(202,690,o),
(238,646,o),
(238,558,cs),
(238,470,o),
(202,426,o),
(144,426,cs)
);
},
{
closed = 1;
nodes = (
(89,0,l),
(541,710,l),
(511,710,l),
(59,0,l)
);
},
{
closed = 1;
nodes = (
(530,-8,o),
(580,52,o),
(580,152,cs),
(580,252,o),
(530,312,o),
(456,312,cs),
(382,312,o),
(332,252,o),
(332,152,cs),
(332,52,o),
(382,-8,o),
(456,-8,cs)
);
},
{
closed = 1;
nodes = (
(398,20,o),
(362,64,o),
(362,152,cs),
(362,240,o),
(398,284,o),
(456,284,cs),
(514,284,o),
(550,240,o),
(550,152,cs),
(550,64,o),
(514,20,o),
(456,20,cs)
);
}
);
width = 600;
},
{
background = {
shapes = (
{
closed = 1;
nodes = (
(114,-12,l),
(564,726,l),
(469,726,l),
(19,-12,l)
);
},
{
closed = 1;
nodes = (
(543,0,o),
(587,76,o),
(587,173,cs),
(587,269,o),
(543,345,o),
(463,345,cs),
(382,345,o),
(338,269,o),
(338,173,cs),
(338,76,o),
(382,0,o),
(463,0,cs)
);
},
{
closed = 1;
nodes = (
(431,76,o),
(414,111,o),
(414,173,cs),
(414,235,o),
(431,269,o),
(463,269,cs),
(494,269,o),
(513,235,o),
(513,173,cs),
(513,111,o),
(494,76,o),
(463,76,cs)
);
},
{
closed = 1;
nodes = (
(218,366,o),
(262,442,o),
(262,538,cs),
(262,635,o),
(218,711,o),
(137,711,cs),
(57,711,o),
(13,635,o),
(13,538,cs),
(13,442,o),
(57,366,o),
(137,366,cs)
);
},
{
closed = 1;
nodes = (
(106,442,o),
(88,476,o),
(88,538,cs),
(88,600,o),
(106,635,o),
(137,635,cs),
(169,635,o),
(187,600,o),
(187,538,cs),
(187,476,o),
(169,442,o),
(137,442,cs)
);
}
);
};
layerId = "574EE4B9-5C1A-4E7E-9985-C08FACB65BD8";
shapes = (
{
closed = 1;
nodes = (
(234,366,o),
(298,428,o),
(298,542,cs),
(298,656,o),
(234,718,o),
(154,718,cs),
(74,718,o),
(10,656,o),
(10,542,cs),
(10,428,o),
(74,366,o),
(154,366,cs)
);
},
{
closed = 1;
nodes = (
(110,428,o),
(82,470,o),
(82,542,cs),
(82,614,o),
(110,656,o),
(154,656,cs),
(198,656,o),
(226,614,o),
(226,542,cs),
(226,470,o),
(198,428,o),
(154,428,cs)
);
},
{
closed = 1;
nodes = (
(125,0,l),
(551,710,l),
(475,710,l),
(49,0,l)
);
},
{
closed = 1;
nodes = (
(526,-8,o),
(590,54,o),
(590,168,cs),
(590,282,o),
(526,344,o),
(446,344,cs),
(366,344,o),
(302,282,o),
(302,168,cs),
(302,54,o),
(366,-8,o),
(446,-8,cs)
);
},
{
closed = 1;
nodes = (
(402,54,o),
(374,96,o),
(374,168,cs),
(374,240,o),
(402,282,o),
(446,282,cs),
(490,282,o),
(518,240,o),
(518,168,cs),
(518,96,o),
(490,54,o),
(446,54,cs)
);
}
);
width = 600;
},
{
background = {
shapes = (
{
closed = 1;
nodes = (
(207,-12,l),
(521,726,l),
(392,726,l),
(78,-12,l)
);
},
{
closed = 1;
nodes = (
(545,0,o),
(596,73,o),
(596,174,cs),
(596,274,o),
(545,347,o),
(468,347,cs),
(390,347,o),
(339,274,o),
(339,174,cs),
(339,73,o),
(390,0,o),
(468,0,cs)
);
},
{
closed = 1;
nodes = (
(445,85,o),
(435,113,o),
(435,174,cs),
(435,234,o),
(445,263,o),
(468,263,cs),
(490,263,o),
(502,234,o),
(502,174,cs),
(502,113,o),
(490,85,o),
(468,85,cs)
);
},
{
closed = 1;
nodes = (
(209,364,o),
(261,437,o),
(261,537,cs),
(261,638,o),
(209,711,o),
(132,711,cs),
(54,711,o),
(4,638,o),
(4,537,cs),
(4,437,o),
(54,364,o),
(132,364,cs)
);
},
{
closed = 1;
nodes = (
(110,448,o),
(99,477,o),
(99,537,cs),
(99,598,o),
(110,626,o),
(132,626,cs),
(155,626,o),
(166,598,o),
(166,537,cs),
(166,477,o),
(155,448,o),
(132,448,cs)
);
}
);
};
layerId = "58B1DC7A-69F8-4375-AD2E-AC5103CCF536";
shapes = (
{
closed = 1;
nodes = (
(240,366,o),
(300,419,o),
(300,542,cs),
(300,664,o),
(240,718,o),
(150,718,cs),
(60,718,o),
(0,664,o),
(0,542,cs),
(0,419,o),
(60,366,o),
(150,366,cs)
);
},
{
closed = 1;
nodes = (
(126,452,o),
(114,479,o),
(114,542,cs),
(114,604,o),
(126,632,o),
(150,632,cs),
(174,632,o),
(186,604,o),
(186,542,cs),
(186,479,o),
(174,452,o),
(150,452,cs)
);
},
{
closed = 1;
nodes = (
(151,0,l),
(549,710,l),
(449,710,l),
(51,0,l)
);
},
{
closed = 1;
nodes = (
(540,-8,o),
(600,45,o),
(600,168,cs),
(600,290,o),
(540,344,o),
(450,344,cs),
(360,344,o),
(300,290,o),
(300,168,cs),
(300,45,o),
(360,-8,o),
(450,-8,cs)
);
},
{
closed = 1;
nodes = (
(426,78,o),
(414,105,o),
(414,168,cs),
(414,230,o),
(426,258,o),
(450,258,cs),
(474,258,o),
(486,230,o),
(486,168,cs),
(486,105,o),
(474,78,o),
(450,78,cs)
);
}
);
width = 600;
}
);
unicode = 37;
}
{
color = 4;
glyphname = ampersand;
kernLeft = "0";
kernRight = "0";
layers = (
{
background = {
shapes = (
{
closed = 1;
nodes = (
(352,-12,o),
(420,19,o),
(469,70,c),
(524,0,l),
(564,0,l),
(490,94,l),
(521,135,o),
(543,186,o),
(551,242,c),
(517,247,l),
(510,200,o),
(493,157,o),
(468,122,c),
(258,390,l),
(341,443,o),
(401,505,o),
(401,575,cs),
(401,665,o),
(337,729,o),
(256,729,cs),
(173,729,o),
(114,675,o),
(114,585,cs),
(114,514,o),
(171,449,o),
(214,395,c),
(130,336,o),
(60,286,o),
(60,178,cs),
(60,64,o),
(157,-12,o),
(273,-12,cs)
);
},
{
closed = 1;
nodes = (
(176,20,o),
(94,82,o),
(94,178,cs),
(94,252,o),
(133,306,o),
(231,370,cs),
(448,96,l),
(405,49,o),
(344,20,o),
(273,20,cs)
);
},
{
closed = 1;
nodes = (
(190,477,o),
(148,532,o),
(148,584,cs),
(148,656,o),
(193,697,o),
(256,697,cs),
(318,697,o),
(367,646,o),
(367,574,cs),
(367,518,o),
(326,473,o),
(240,413,c)
);
}
);
};
layerId = "EE2FFE84-06F1-4AFB-BBEC-60D09A436D14";
name = Regular;
shapes = (
{
closed = 1;
nodes = (
(344,-16,o),
(411,20,o),
(457,70,c),
(512,0,l),
(552,0,l),
(477,95,l),
(507,131,o),
(532,188,o),
(540,242,c),
(506,246,l),
(500,198,o),
(483,155,o),
(458,120,c),
(247,384,l),
(357,452,o),
(399,506,o),
(399,584,cs),
(399,676,o),
(338,726,o),
(254,726,cs),
(167,726,o),
(110,671,o),
(110,584,cs),
(110,524,o),
(134,486,o),
(203,395,c),
(108,335,o),
(48,272,o),
(48,170,cs),
(48,50,o),
(134,-16,o),
(258,-16,cs)
);
},
{
closed = 1;
nodes = (
(156,16,o),
(82,68,o),
(82,170,cs),
(82,246,o),
(121,306,o),
(221,370,c),
(437,96,l),
(398,48,o),
(331,16,o),
(262,16,cs)
);
},
{
closed = 1;
nodes = (
(164,494,o),
(144,534,o),
(144,584,cs),
(144,652,o),
(187,694,o),
(254,694,cs),
(323,694,o),
(365,651,o),
(365,582,cs),
(365,512,o),
(332,476,o),
(230,408,c)
);
}
);
width = 600;
},
{
layerId = "574EE4B9-5C1A-4E7E-9985-C08FACB65BD8";
name = Regular;
shapes = (
{
closed = 1;
nodes = (
(336,-16,o),
(403,8,o),
(442,45,c),
(479,0,l),
(580,0,l),
(495,103,l),
(534,150,o),
(561,230,o),
(562,310,c),
(478,318,l),
(478,250,o),
(466,199,o),
(442,166,c),
(280,373,l),
(387,444,o),
(428,498,o),
(428,574,cs),
(428,668,o),
(368,726,o),
(262,726,cs),
(154,726,o),
(88,664,o),
(88,562,cs),
(88,499,o),
(114,454,o),
(160,394,c),
(54,319,o),
(20,265,o),
(20,174,cs),
(20,52,o),
(104,-16,o),
(240,-16,cs)
);
},
{
closed = 1;
nodes = (
(152,64,o),
(110,107,o),
(110,174,cs),
(110,236,o),
(138,278,o),
(210,328,c),
(386,106,l),
(363,82,o),
(318,64,o),
(250,64,cs)
);
},
{
closed = 1;
nodes = (
(192,488,o),
(178,521,o),
(178,562,cs),
(178,612,o),
(209,642,o),
(262,642,cs),
(310,642,o),
(338,616,o),
(338,568,cs),
(338,517,o),
(310,481,o),
(234,434,c)
);
}
);
width = 600;
},
{
background = {
shapes = (
{
closed = 1;
nodes = (
(322,-12,o),
(376,9,o),
(412,30,c),
(434,0,l),
(596,0,l),
(503,123,l),
(543,173,o),
(565,246,o),
(566,317,c),
(424,330,l),
(426,301,o),
(420,270,o),
(408,251,c),
(324,361,l),
(389,409,o),
(428,465,o),
(437,521,cs),
(453,622,o),
(373,708,o),
(268,719,cs),
(157,730,o),
(66,662,o),
(66,556,cs),
(66,507,o),
(90,445,o),
(133,393,c),
(73,348,o),
(11,302,o),
(12,200,cs),
(14,68,o),
(114,-12,o),
(269,-12,cs)
);
},
{
closed = 1;
nodes = (
(204,119,o),
(167,149,o),
(162,194,cs),
(158,234,o),
(185,272,o),
(214,291,cs),
(328,145,l),
(311,126,o),
(286,116,o),
(251,117,cs)
);
},
{
closed = 1;
nodes = (
(223,482,o),
(212,512,o),
(212,537,cs),
(211,567,o),
(232,589,o),
(258,588,cs),
(281,586,o),
(297,566,o),
(297,537,cs),
(297,507,o),
(274,475,o),
(242,459,c)
);
}
);
};
layerId = "58B1DC7A-69F8-4375-AD2E-AC5103CCF536";
name = Regular;
shapes = (
{
closed = 1;
nodes = (
(303,-16,o),
(356,8,o),
(388,34,c),
(414,0,l),
(590,0,l),
(502,120,l),
(551,173,o),
(592,243,o),
(600,316,c),
(450,336,l),
(447,307,o),
(431,275,o),
(418,260,c),
(354,348,l),
(448,404,o),
(505,465,o),
(505,554,cs),
(505,654,o),
(446,726,o),
(297,726,cs),
(158,726,o),
(80,648,o),
(80,534,cs),
(80,472,o),
(112,426,o),
(144,384,c),
(47,325,o),
(0,266,o),
(0,166,cs),
(0,52,o),
(70,-16,o),
(216,-16,cs)
);
},
{
closed = 1;
nodes = (
(203,141,o),
(180,166,o),
(180,200,cs),
(180,229,o),
(197,256,o),
(224,274,c),
(304,162,l),
(288,148,o),
(267,141,o),
(238,141,cs)
);
},
{
closed = 1;
nodes = (
(254,486,o),
(247,514,o),
(247,534,cs),
(247,560,o),
(264,579,o),
(295,579,cs),
(324,579,o),
(341,560,o),
(341,534,cs),
(341,506,o),
(319,480,o),
(280,456,c)
);
}
);
width = 600;
}
);
unicode = 38;
}
{
color = 4;
glyphname = quotesingle;
kernLeft = "0";
kernRight = "0";
layers = (
{
layerId = "EE2FFE84-06F1-4AFB-BBEC-60D09A436D14";
shapes = (
{
closed = 1;
nodes = (
(314,383,l),
(320,640,l),
(320,710,l),
(280,710,l),
(280,640,l),
(286,383,l)
);
}
);
width = 600;
},
{
layerId = "574EE4B9-5C1A-4E7E-9985-C08FACB65BD8";
shapes = (
{
closed = 1;
nodes = (
(330,383,l),
(344,634,l),
(344,710,l),
(256,710,l),
(256,634,l),
(270,383,l)
);
}
);
width = 600;
},
{
layerId = "58B1DC7A-69F8-4375-AD2E-AC5103CCF536";
shapes = (
{
closed = 1;
nodes = (
(358,372,l),
(370,620,l),
(370,710,l),
(230,710,l),
(230,620,l),
(242,372,l)
);
}
);
width = 600;
}
);
unicode = 39;
}
{
color = 9;
glyphname = parenleft;
layers = (
{
background = {
shapes = (
{
closed = 1;
nodes = (
(189,-110,l),
(49,177,o),
(49,463,o),
(189,750,c),
(164,750,l),
(12,463,o),
(12,177,o),
(164,-110,c)
);
}
);
};
layerId = "EE2FFE84-06F1-4AFB-BBEC-60D09A436D14";
shapes = (
{
closed = 1;
nodes = (
(420,-110,l),
(250,34,o),
(214,177,o),
(214,320,cs),
(214,463,o),
(250,607,o),
(420,750,c),
(390,750,l),
(214,607,o),
(180,463,o),
(180,320,cs),
(180,177,o),
(214,34,o),
(390,-110,c)
);
}
);
width = 600;
},
{
background = {
shapes = (
{
closed = 1;
nodes = (
(345,-110,l),
(189,177,o),
(189,463,o),
(345,750,c),
(173,750,l),
(-4,466,o),
(-4,174,o),
(173,-110,c)
);
}
);
};
layerId = "58B1DC7A-69F8-4375-AD2E-AC5103CCF536";
shapes = (
{
closed = 1;
nodes = (
(480,-110,l),
(347,34,o),
(308,177,o),
(308,320,cs),
(308,463,o),
(347,607,o),
(480,750,c),
(308,750,l),
(165,608,o),
(120,464,o),
(120,320,cs),
(120,176,o),
(165,32,o),
(308,-110,c)
);
}
);
width = 600;
},
{
background = {
shapes = (
{
closed = 1;
nodes = (
(259,-110,l),
(90,177,o),
(90,463,o),
(259,750,c),
(184,750,l),
(-1,474,o),
(-1,166,o),
(184,-110,c)
);
}
);
};
layerId = "574EE4B9-5C1A-4E7E-9985-C08FACB65BD8";
shapes = (
{
closed = 1;
nodes = (
(440,-110,l),
(290,34,o),
(247,177,o),
(247,320,cs),
(247,463,o),
(290,607,o),
(440,750,c),
(356,750,l),
(200,612,o),
(160,466,o),
(160,320,cs),
(160,174,o),
(200,28,o),
(356,-110,c)
);
}
);
width = 600;
}
);
unicode = 40;
}
{
color = 9;
glyphname = asterisk;
layers = (
{
background = {
shapes = (
{
closed = 1;
nodes = (
(300,493,l),
(389,337,l),
(416,352,l),
(325,507,l),
(511,507,l),
(511,537,l),
(325,537,l),
(416,693,l),
(390,708,l),
(300,551,l),
(211,707,l),
(184,692,l),
(275,537,l),
(89,537,l),
(89,507,l),
(275,507,l),
(184,351,l),
(210,336,l)
);
}
);
};
guides = (
{
pos = (188,706);
},
{
pos = (175,378);
},
{
angle = 270;
pos = (332,608);
},
{
angle = 270;
pos = (11,598);
},
{
pos = (114,706);
}
);
layerId = "EE2FFE84-06F1-4AFB-BBEC-60D09A436D14";
shapes = (
{
closed = 1;
nodes = (
(300,477,l),
(417,294,l),
(445,314,l),
(330,487,l),
(520,487,l),
(520,517,l),
(330,517,l),
(445,690,l),
(417,710,l),
(300,527,l),
(183,710,l),
(155,690,l),
(270,517,l),
(80,517,l),
(80,487,l),
(270,487,l),
(155,314,l),
(183,294,l)
);
}
);
width = 600;
},
{
background = {
shapes = (
{
closed = 1;
nodes = (
(300,450,l),
(378,316,l),
(433,346,l),
(355,483,l),
(515,483,l),
(515,546,l),
(355,546,l),
(433,680,l),
(378,712,l),
(300,577,l),
(222,712,l),
(167,681,l),
(245,546,l),
(85,546,l),
(85,483,l),
(245,483,l),
(167,348,l),
(222,316,l)
);
}
);
};
layerId = "574EE4B9-5C1A-4E7E-9985-C08FACB65BD8";
shapes = (
{
closed = 1;
nodes = (
(300,430,l),
(403,284,l),
(463,324,l),
(364,460,l),
(520,460,l),
(520,534,l),
(364,534,l),
(463,670,l),
(403,710,l),
(300,564,l),
(198,710,l),
(138,670,l),
(236,534,l),
(80,534,l),
(80,460,l),
(236,460,l),
(138,324,l),
(198,284,l)
);
}
);
width = 600;
},
{
background = {
shapes = (
{
closed = 1;
nodes = (
(300,391,l),
(361,277,l),
(459,332,l),
(386,443,l),
(524,437,l),
(524,550,l),
(386,544,l),
(459,654,l),
(360,711,l),
(300,588,l),
(240,711,l),
(141,655,l),
(214,544,l),
(76,550,l),
(76,437,l),
(214,443,l),
(141,332,l),
(239,276,l)
);
}
);
};
layerId = "58B1DC7A-69F8-4375-AD2E-AC5103CCF536";
shapes = (
{
closed = 1;
nodes = (
(300,385,l),
(384,263,l),
(470,323,l),
(382,435,l),
(520,434,l),
(520,539,l),
(382,538,l),
(470,650,l),
(384,710,l),
(300,588,l),
(216,710,l),
(130,650,l),
(218,538,l),
(80,539,l),
(80,434,l),
(218,435,l),
(130,323,l),
(216,263,l)
);
}
);
width = 600;
}
);
unicode = 42;
}
{
color = 4;
glyphname = plus;
layers = (
{
background = {
shapes = (
{
closed = 1;
nodes = (
(295,47,l),
(295,523,l),
(263,523,l),
(263,47,l)
);
},
{
closed = 1;
nodes = (
(517,270,l),
(517,300,l),
(41,300,l),
(41,270,l)
);
}
);
};
layerId = "EE2FFE84-06F1-4AFB-BBEC-60D09A436D14";
shapes = (
{
closed = 1;
nodes = (
(539,271,l),
(539,299,l),
(61,299,l),
(61,271,l)
);
},
{
closed = 1;
nodes = (
(314,46,l),
(314,524,l),
(286,524,l),
(286,46,l)
);
}
);
width = 600;
},
{
background = {
shapes = (
{
closed = 1;
nodes = (
(365,43,l),
(365,519,l),
(214,519,l),
(214,43,l)
);
},
{
closed = 1;
nodes = (
(527,205,l),
(527,356,l),
(51,356,l),
(51,205,l)
);
}
);
};
layerId = "58B1DC7A-69F8-4375-AD2E-AC5103CCF536";
shapes = (
{
closed = 1;
nodes = (
(549,206,l),
(549,356,l),
(51,356,l),
(51,206,l)
);
},
{
closed = 1;
nodes = (
(375,32,l),
(375,530,l),
(225,530,l),
(225,32,l)
);
}
);
width = 600;
},
{
background = {
shapes = (
{
closed = 1;
nodes = (
(318,57,l),
(318,533,l),
(240,533,l),
(240,57,l)
);
},
{
closed = 1;
nodes = (
(517,256,l),
(517,334,l),
(41,334,l),
(41,256,l)
);
}
);
};
layerId = "574EE4B9-5C1A-4E7E-9985-C08FACB65BD8";
shapes = (
{
closed = 1;
nodes = (
(539,256,l),
(539,334,l),
(61,334,l),
(61,256,l)
);
},
{
closed = 1;
nodes = (
(339,56,l),
(339,534,l),
(261,534,l),
(261,56,l)
);
}
);
width = 600;
}
);
unicode = 43;
}
{
color = 9;
glyphname = hyphen;
layers = (
{
background = {
shapes = (
{
closed = 1;
nodes = (
(448,292,l),
(448,322,l),
(152,322,l),
(152,292,l)
);
}
);
};
layerId = "EE2FFE84-06F1-4AFB-BBEC-60D09A436D14";
shapes = (
{
closed = 1;
nodes = (
(470,266,l),
(470,296,l),
(130,296,l),
(130,266,l)
);
}
);
width = 600;
},
{
background = {
shapes = (
{
closed = 1;
nodes = (
(465,276,l),
(465,354,l),
(135,354,l),
(135,276,l)
);
}
);
};
layerId = "574EE4B9-5C1A-4E7E-9985-C08FACB65BD8";
shapes = (
{
closed = 1;
nodes = (
(480,252,l),
(480,331,l),
(120,331,l),
(120,252,l)
);
}
);
width = 600;
},
{
background = {
shapes = (
{
closed = 1;
nodes = (
(476,248,l),
(476,377,l),
(124,377,l),
(124,248,l)
);
}
);
};
layerId = "58B1DC7A-69F8-4375-AD2E-AC5103CCF536";
shapes = (
{
closed = 1;
nodes = (
(490,216,l),
(490,368,l),
(110,368,l),
(110,216,l)
);
}
);
width = 600;
}
);
unicode = 45;
}
{
color = 4;
glyphname = slash;
kernLeft = "0";
kernRight = "0";
layers = (
{
background = {
shapes = (
{
closed = 1;
nodes = (
(168,-90,l),
(464,726,l),
(432,726,l),
(137,-90,l)
);
}
);
};
layerId = "EE2FFE84-06F1-4AFB-BBEC-60D09A436D14";
shapes = (
{
closed = 1;
nodes = (
(168,-110,l),
(464,746,l),
(432,746,l),
(136,-110,l)
);
}
);
width = 600;
},
{
background = {
shapes = (
{
closed = 1;
nodes = (
(195,-90,l),
(491,769,l),
(404,769,l),
(108,-90,l)
);
}
);
};
layerId = "574EE4B9-5C1A-4E7E-9985-C08FACB65BD8";
shapes = (
{
closed = 1;
nodes = (
(188,-110,l),
(492,750,l),
(412,750,l),
(108,-110,l)
);
}
);
width = 600;
},
{
background = {
shapes = (
{
closed = 1;
nodes = (
(220,-90,l),
(516,738,l),
(380,738,l),
(84,-90,l)
);
}
);
};
layerId = "58B1DC7A-69F8-4375-AD2E-AC5103CCF536";
shapes = (
{
closed = 1;
nodes = (
(232,-110,l),
(528,750,l),
(368,750,l),
(72,-110,l)
);
}
);
width = 600;
}
);
unicode = 47;
}
{
color = 4;
glyphname = zero;
kernLeft = "0";
kernRight = "0";
layers = (
{
background = {
shapes = (
{
closed = 1;
nodes = (
(443,-16,o),
(540,137,o),
(540,354,cs),
(540,572,o),
(443,726,o),
(300,726,cs),
(157,726,o),
(60,572,o),
(60,354,cs),
(60,137,o),
(157,-16,o),
(300,-16,cs)
);
},
{
closed = 1;
nodes = (
(177,16,o),
(94,156,o),
(94,354,cs),
(94,554,o),
(177,694,o),
(300,694,cs),
(423,694,o),
(506,554,o),
(506,354,cs),
(506,156,o),
(423,16,o),
(300,16,cs)
);
},
{
closed = 1;
nodes = (
(162,86,l),
(468,620,l),
(438,624,l),
(132,90,l)
);
}
);
};
layerId = "EE2FFE84-06F1-4AFB-BBEC-60D09A436D14";
shapes = (
{
closed = 1;
nodes = (
(160,84,l),
(468,620,l),
(440,626,l),
(132,90,l)
);
},
{
ref = zero.ss09;
}
);
width = 600;
},
{
background = {
shapes = (
{
closed = 1;
nodes = (
(454,-16,o),
(550,124,o),
(550,354,cs),
(550,584,o),
(454,726,o),
(300,726,cs),
(146,726,o),
(50,584,o),
(50,354,cs),
(50,124,o),
(146,-16,o),
(300,-16,cs)
);
},
{
closed = 1;
nodes = (
(200,68,o),
(140,178,o),
(140,354,cs),
(140,530,o),
(200,642,o),
(300,642,cs),
(400,642,o),
(460,530,o),
(460,354,cs),
(460,178,o),
(400,68,o),
(300,68,cs)
);
},
{
closed = 1;
nodes = (
(200,98,l),
(480,608,l),
(400,612,l),
(120,102,l)
);
}
);
};
layerId = "574EE4B9-5C1A-4E7E-9985-C08FACB65BD8";
shapes = (
{
closed = 1;
nodes = (
(200,98,l),
(480,608,l),
(400,612,l),
(120,102,l)
);
},
{
ref = zero.ss09;
}
);
width = 600;
},
{
background = {
shapes = (
{
closed = 1;
nodes = (
(459,-16,o),
(560,114,o),
(560,354,cs),
(560,594,o),
(459,726,o),
(300,726,cs),
(141,726,o),
(40,594,o),
(40,354,cs),
(40,114,o),
(141,-16,o),
(300,-16,cs)
);
},
{
closed = 1;
nodes = (
(231,114,o),
(194,198,o),
(194,354,cs),
(194,511,o),
(231,596,o),
(300,596,cs),
(369,596,o),
(406,511,o),
(406,354,cs),
(406,198,o),
(369,114,o),
(300,114,cs)
);
},
{
closed = 1;
nodes = (
(218,114,l),
(462,586,l),
(382,596,l),
(138,124,l)
);
}
);
};
layerId = "58B1DC7A-69F8-4375-AD2E-AC5103CCF536";
shapes = (
{
closed = 1;
nodes = (
(218,114,l),
(462,586,l),
(382,596,l),
(138,124,l)
);
},
{
ref = zero.ss09;
}
);
width = 600;
}
);
unicode = 48;
}
{
color = 4;
glyphname = one;
kernLeft = "0";
kernRight = "0";
layers = (
{
background = {
shapes = (
{
closed = 1;
nodes = (
(330,0,l),
(330,710,l),
(304,710,l),
(304,610,o),
(275,590,o),
(200,590,cs),
(137,590,l),
(137,564,l),
(298,564,l),
(298,0,l)
);
},
{
closed = 1;
nodes = (
(520,0,l),
(520,28,l),
(80,28,l),
(80,0,l)
);
}
);
};
layerId = "EE2FFE84-06F1-4AFB-BBEC-60D09A436D14";
shapes = (
{
closed = 1;
nodes = (
(330,0,l),
(330,710,l),
(304,710,l),
(304,610,o),
(275,590,o),
(200,590,cs),
(137,590,l),
(137,564,l),
(298,564,l),
(298,0,l)
);
},
{
closed = 1;
nodes = (
(520,0,l),
(520,28,l),
(80,28,l),
(80,0,l)
);
}
);
width = 600;
},
{
background = {
shapes = (
{
closed = 1;
nodes = (
(370,0,l),
(370,710,l),
(300,710,l),
(300,630,o),
(270,600,o),
(194,600,cs),
(98,600,l),
(98,526,l),
(284,526,l),
(284,0,l)
);
},
{
closed = 1;
nodes = (
(540,0,l),
(540,82,l),
(60,82,l),
(60,0,l)
);
}
);
};
layerId = "574EE4B9-5C1A-4E7E-9985-C08FACB65BD8";
shapes = (
{
closed = 1;
nodes = (
(370,0,l),
(370,710,l),
(300,710,l),
(300,630,o),
(270,600,o),
(194,600,cs),
(98,600,l),
(98,526,l),
(284,526,l),
(284,0,l)
);
},
{
closed = 1;
nodes = (
(540,0,l),
(540,84,l),
(60,84,l),
(60,0,l)
);
}
);
width = 600;
},
{
background = {
shapes = (
{
closed = 1;
nodes = (
(400,0,l),
(400,710,l),
(274,710,l),
(274,610,o),
(238,574,o),
(154,574,cs),
(74,574,l),
(74,454,l),
(254,454,l),
(254,0,l)
);
},
{
closed = 1;
nodes = (
(560,0,l),
(560,130,l),
(40,130,l),
(40,0,l)
);
}
);
};
layerId = "58B1DC7A-69F8-4375-AD2E-AC5103CCF536";
shapes = (
{
closed = 1;
nodes = (
(410,0,l),
(410,710,l),
(250,710,l),
(250,610,o),
(214,574,o),
(130,574,cs),
(64,574,l),
(64,426,l),
(230,426,l),
(230,0,l)
);
},
{
closed = 1;
nodes = (
(560,0,l),
(560,158,l),
(40,158,l),
(40,0,l)
);
}
);
width = 600;
}
);
unicode = 49;
}
{
color = 4;
glyphname = two;
kernLeft = "0";
kernRight = "0";
layers = (
{
background = {
shapes = (
{
closed = 1;
nodes = (
(540,0,l),
(540,30,l),
(96,30,l),
(102,122,o),
(176,213,o),
(330,288,cs),
(466,354,o),
(533,412,o),
(533,522,cs),
(533,637,o),
(451,726,o),
(315,726,cs),
(175,726,o),
(80,639,o),
(62,496,c),
(96,493,l),
(116,625,o),
(194,694,o),
(315,694,cs),
(434,694,o),
(499,618,o),
(499,520,cs),
(499,426,o),
(440,379,o),
(312,315,cs),
(132,225,o),
(60,130,o),
(60,0,c)
);
}
);
};
layerId = "EE2FFE84-06F1-4AFB-BBEC-60D09A436D14";
shapes = (
{
closed = 1;
nodes = (
(540,0,l),
(540,30,l),
(96,30,l),
(102,122,o),
(176,213,o),
(330,288,cs),
(466,354,o),
(533,412,o),
(533,522,cs),
(533,637,o),
(451,726,o),
(315,726,cs),
(175,726,o),
(80,639,o),
(62,496,c),
(96,493,l),
(116,625,o),
(194,694,o),
(315,694,cs),
(434,694,o),
(499,618,o),
(499,520,cs),
(499,426,o),
(440,379,o),
(312,315,cs),
(132,225,o),
(60,130,o),
(60,0,c)
);
}
);
width = 600;
},
{
background = {
shapes = (
{
closed = 1;
nodes = (
(550,0,l),
(550,84,l),
(156,84,l),
(160,138,o),
(226,212,o),
(354,280,cs),
(501,358,o),
(549,412,o),
(549,520,cs),
(549,642,o),
(463,726,o),
(317,726,cs),
(163,726,o),
(70,637,o),
(54,498,c),
(144,492,l),
(159,588,o),
(217,642,o),
(317,642,cs),
(411,642,o),
(459,591,o),
(459,518,cs),
(459,446,o),
(420,414,o),
(322,362,cs),
(109,249,o),
(50,150,o),
(50,0,c)
);
}
);
};
layerId = "574EE4B9-5C1A-4E7E-9985-C08FACB65BD8";
shapes = (
{
closed = 1;
nodes = (
(550,0,l),
(550,84,l),
(156,84,l),
(160,138,o),
(226,212,o),
(354,280,cs),
(501,358,o),
(549,412,o),
(549,520,cs),
(549,642,o),
(463,726,o),
(317,726,cs),
(163,726,o),
(70,637,o),
(54,498,c),
(144,492,l),
(159,588,o),
(217,642,o),
(317,642,cs),
(411,642,o),
(459,591,o),
(459,518,cs),
(459,446,o),
(420,414,o),
(322,362,cs),
(109,249,o),
(50,150,o),
(50,0,c)
);
}
);
width = 600;
},
{
background = {
shapes = (
{
closed = 1;
nodes = (
(560,0,l),
(560,130,l),
(211,130,l),
(215,162,o),
(260,214,o),
(376,276,cs),
(512,349,o),
(560,403,o),
(560,513,cs),
(560,640,o),
(469,726,o),
(319,726,cs),
(154,726,o),
(55,635,o),
(42,486,c),
(189,477,l),
(199,559,o),
(244,604,o),
(320,604,cs),
(379,604,o),
(413,566,o),
(413,511,cs),
(413,454,o),
(383,427,o),
(286,376,cs),
(98,277,o),
(40,178,o),
(40,0,c)
);
}
);
};
layerId = "58B1DC7A-69F8-4375-AD2E-AC5103CCF536";
shapes = (
{
closed = 1;
nodes = (
(560,0,l),
(560,158,l),
(241,158,l),
(245,182,o),
(270,203,o),
(376,262,cs),
(511,337,o),
(560,394,o),
(560,512,cs),
(560,641,o),
(482,726,o),
(314,726,cs),
(144,726,o),
(55,635,o),
(42,486,c),
(228,476,l),
(238,538,o),
(257,572,o),
(310,572,cs),
(353,572,o),
(376,546,o),
(376,500,cs),
(376,440,o),
(341,414,o),
(286,386,cs),
(97,290,o),
(40,188,o),
(40,0,c)
);
}
);
width = 600;
}
);
unicode = 50;
}
{
color = 4;
glyphname = four;
kernLeft = "0";
kernRight = "0";
layers = (
{
background = {
shapes = (
{
closed = 1;
nodes = (
(460,0,l),
(460,175,l),
(550,175,l),
(550,205,l),
(460,205,l),
(460,710,l),
(428,710,l),
(50,201,l),
(50,175,l),
(428,175,l),
(428,0,l)
);
},
{
closed = 1;
nodes = (
(428,657,l),
(428,205,l),
(92,205,l)
);
}
);
};
layerId = "EE2FFE84-06F1-4AFB-BBEC-60D09A436D14";
shapes = (
{
closed = 1;
nodes = (
(460,0,l),
(460,175,l),
(550,175,l),
(550,205,l),
(460,205,l),
(460,710,l),
(428,710,l),
(50,201,l),
(50,175,l),
(428,175,l),
(428,0,l)
);
},
{
closed = 1;
nodes = (
(428,660,l),
(428,205,l),
(88,205,l)
);
}
);
width = 600;
},
{
background = {
shapes = (
{
closed = 1;
nodes = (
(474,0,l),
(474,154,l),
(560,154,l),
(560,238,l),
(474,238,l),
(474,710,l),
(382,710,l),
(40,232,l),
(40,154,l),
(388,154,l),
(388,0,l)
);
},
{
closed = 1;
nodes = (
(388,578,l),
(388,238,l),
(144,238,l)
);
}
);
};
layerId = "574EE4B9-5C1A-4E7E-9985-C08FACB65BD8";
shapes = (
{
closed = 1;
nodes = (
(474,0,l),
(474,154,l),
(560,154,l),
(560,238,l),
(474,238,l),
(474,710,l),
(382,710,l),
(40,232,l),
(40,154,l),
(388,154,l),
(388,0,l)
);
},
{
closed = 1;
nodes = (
(388,590,l),
(388,238,l),
(128,238,l)
);
}
);
width = 600;
},
{
background = {
shapes = (
{
closed = 1;
nodes = (
(490,0,l),
(490,134,l),
(570,134,l),
(570,264,l),
(490,264,l),
(490,710,l),
(311,710,l),
(30,257,l),
(30,134,l),
(344,134,l),
(344,0,l)
);
},
{
closed = 1;
nodes = (
(344,530,l),
(344,264,l),
(176,264,l)
);
}
);
};
layerId = "58B1DC7A-69F8-4375-AD2E-AC5103CCF536";
shapes = (
{
closed = 1;
nodes = (
(497,0,l),
(497,134,l),
(580,134,l),
(580,284,l),
(497,284,l),
(497,710,l),
(288,710,l),
(20,277,l),
(20,134,l),
(317,134,l),
(317,0,l)
);
},
{
closed = 1;
nodes = (
(317,492,l),
(317,284,l),
(184,284,l)
);
}
);
width = 600;
}
);
unicode = 52;
}
{
color = 4;
glyphname = eight;
kernLeft = "0";
kernRight = "0";
layers = (
{
background = {
shapes = (
{
closed = 1;
nodes = (
(441,-16,o),
(540,67,o),
(540,193,cs),
(540,298,o),
(465,374,o),
(351,392,c),
(349,378,l),
(444,398,o),
(506,446,o),
(506,541,cs),
(506,651,o),
(427,726,o),
(300,726,cs),
(173,726,o),
(94,651,o),
(94,541,cs),
(94,446,o),
(156,399,o),
(252,378,c),
(250,392,l),
(136,374,o),
(60,298,o),
(60,193,cs),
(60,67,o),
(159,-16,o),
(300,-16,cs)
);
},
{
closed = 1;
nodes = (
(173,16,o),
(94,82,o),
(94,194,cs),
(94,297,o),
(172,370,o),
(300,370,cs),
(428,370,o),
(506,297,o),
(506,194,cs),
(506,82,o),
(427,16,o),
(300,16,cs)
);
},
{
closed = 1;
nodes = (
(203,400,o),
(128,449,o),
(128,543,cs),
(128,634,o),
(193,694,o),
(300,694,cs),
(407,694,o),
(472,634,o),
(472,543,cs),
(472,449,o),
(397,400,o),
(300,400,cs)
);
}
);
};
layerId = "EE2FFE84-06F1-4AFB-BBEC-60D09A436D14";
shapes = (
{
closed = 1;
nodes = (
(441,-16,o),
(540,67,o),
(540,193,cs),
(540,298,o),
(465,374,o),
(351,392,c),
(349,378,l),
(444,398,o),
(506,446,o),
(506,541,cs),
(506,651,o),
(427,726,o),
(300,726,cs),
(173,726,o),
(94,651,o),
(94,541,cs),
(94,446,o),
(156,399,o),
(252,378,c),
(250,392,l),
(136,374,o),
(60,298,o),
(60,193,cs),
(60,67,o),
(159,-16,o),
(300,-16,cs)
);
},
{
closed = 1;
nodes = (
(173,16,o),
(94,82,o),
(94,194,cs),
(94,297,o),
(172,370,o),
(300,370,cs),
(428,370,o),
(506,297,o),
(506,194,cs),
(506,82,o),
(427,16,o),
(300,16,cs)
);
},
{
closed = 1;
nodes = (
(203,400,o),
(128,449,o),
(128,543,cs),
(128,634,o),
(193,694,o),
(300,694,cs),
(407,694,o),
(472,634,o),
(472,543,cs),
(472,449,o),
(397,400,o),
(300,400,cs)
);
}
);
width = 600;
},
{
background = {
shapes = (
{
closed = 1;
nodes = (
(441,-16,o),
(550,57,o),
(550,195,cs),
(550,298,o),
(484,367,o),
(382,391,c),
(380,371,l),
(462,393,o),
(516,443,o),
(516,531,cs),
(516,643,o),
(426,726,o),
(300,726,cs),
(174,726,o),
(84,643,o),
(84,531,cs),
(84,443,o),
(138,393,o),
(220,371,c),
(218,391,l),
(116,367,o),
(50,298,o),
(50,195,cs),
(50,57,o),
(159,-16,o),
(300,-16,cs)
);
},
{
closed = 1;
nodes = (
(207,68,o),
(140,110,o),
(140,200,cs),
(140,283,o),
(194,337,o),
(300,337,cs),
(406,337,o),
(460,283,o),
(460,200,cs),
(460,110,o),
(393,68,o),
(300,68,cs)
);
},
{
closed = 1;
nodes = (
(224,417,o),
(174,455,o),
(174,531,cs),
(174,599,o),
(222,642,o),
(300,642,cs),
(378,642,o),
(426,599,o),
(426,531,cs),
(426,455,o),
(376,417,o),
(300,417,cs)
);
}
);
};
layerId = "574EE4B9-5C1A-4E7E-9985-C08FACB65BD8";
shapes = (
{
closed = 1;
nodes = (
(441,-16,o),
(550,57,o),
(550,195,cs),
(550,298,o),
(484,367,o),
(382,391,c),
(380,371,l),
(462,393,o),
(516,443,o),
(516,531,cs),
(516,643,o),
(426,726,o),
(300,726,cs),
(174,726,o),
(84,643,o),
(84,531,cs),
(84,443,o),
(138,393,o),
(220,371,c),
(218,391,l),
(116,367,o),
(50,298,o),
(50,195,cs),
(50,57,o),
(159,-16,o),
(300,-16,cs)
);
},
{
closed = 1;
nodes = (
(207,68,o),
(140,110,o),
(140,200,cs),
(140,283,o),
(194,337,o),
(300,337,cs),
(406,337,o),
(460,283,o),
(460,200,cs),
(460,110,o),
(393,68,o),
(300,68,cs)
);
},
{
closed = 1;
nodes = (
(224,417,o),
(174,455,o),
(174,531,cs),
(174,599,o),
(222,642,o),
(300,642,cs),
(378,642,o),
(426,599,o),
(426,531,cs),
(426,455,o),
(376,417,o),
(300,417,cs)
);
}
);
width = 600;
},
{
background = {
shapes = (
{
closed = 1;
nodes = (
(468,-16,o),
(570,56,o),
(570,193,cs),
(570,299,o),
(499,370,o),
(388,390,c),
(386,370,l),
(478,389,o),
(544,444,o),
(544,530,cs),
(544,645,o),
(450,726,o),
(300,726,cs),
(150,726,o),
(56,645,o),
(56,530,cs),
(56,444,o),
(123,388,o),
(214,370,c),
(212,390,l),
(101,371,o),
(30,299,o),
(30,193,cs),
(30,56,o),
(132,-16,o),
(300,-16,cs)
);
},
{
closed = 1;
nodes = (
(236,116,o),
(184,144,o),
(184,214,cs),
(184,281,o),
(229,316,o),
(300,316,cs),
(371,316,o),
(416,281,o),
(416,214,cs),
(416,144,o),
(364,116,o),
(300,116,cs)
);
},
{
closed = 1;
nodes = (
(253,442,o),
(210,461,o),
(210,516,cs),
(210,569,o),
(250,594,o),
(300,594,cs),
(350,594,o),
(390,569,o),
(390,516,cs),
(390,461,o),
(347,442,o),
(300,442,cs)
);
}
);
};
layerId = "58B1DC7A-69F8-4375-AD2E-AC5103CCF536";
shapes = (
{
closed = 1;
nodes = (
(468,-16,o),
(570,56,o),
(570,193,cs),
(570,299,o),
(499,370,o),
(388,390,c),
(386,370,l),
(478,389,o),
(544,444,o),
(544,530,cs),
(544,645,o),
(450,726,o),
(300,726,cs),
(150,726,o),
(56,645,o),
(56,530,cs),
(56,444,o),
(123,388,o),
(214,370,c),
(212,390,l),
(101,371,o),
(30,299,o),
(30,193,cs),
(30,56,o),
(132,-16,o),
(300,-16,cs)
);
},
{
closed = 1;
nodes = (
(256,138,o),
(214,156,o),
(214,214,cs),
(214,270,o),
(249,303,o),
(300,303,cs),
(351,303,o),
(386,270,o),
(386,214,cs),
(386,156,o),
(344,138,o),
(300,138,cs)
);
},
{
closed = 1;
nodes = (
(265,452,o),
(240,471,o),
(240,514,cs),
(240,552,o),
(265,572,o),
(300,572,cs),
(335,572,o),
(360,552,o),
(360,514,cs),
(360,471,o),
(335,452,o),
(300,452,cs)
);
}
);
width = 600;
}
);
unicode = 56;
}
{
color = 4;
glyphname = question;
kernLeft = "0";
kernRight = "0";
layers = (
{
background = {
shapes = (
{
closed = 1;
nodes = (
(301,224,l),
(301,276,o),
(328,327,o),
(377,367,cs),
(443,421,o),
(496,464,o),
(496,537,cs),
(496,648,o),
(411,726,o),
(291,726,cs),
(168,726,o),
(88,639,o),
(80,499,c),
(114,496,l),
(121,619,o),
(182,694,o),
(291,694,cs),
(391,694,o),
(462,629,o),
(462,537,cs),
(462,475,o),
(422,445,o),
(353,389,cs),
(299,345,o),
(269,286,o),
(269,224,c)
);
},
{
pos = (-15,0);
ref = period;
}
);
};
layerId = "EE2FFE84-06F1-4AFB-BBEC-60D09A436D14";
name = Regular;
shapes = (
{
pos = (-3,0);
ref = period;
},
{
closed = 1;
nodes = (
(313,216,l),
(313,288,o),
(334,322,o),
(380,356,cs),
(479,429,o),
(508,464,o),
(508,544,cs),
(508,642,o),
(438,726,o),
(312,726,cs),
(179,726,o),
(100,639,o),
(92,499,c),
(124,497,l),
(132,619,o),
(196,694,o),
(312,694,cs),
(416,694,o),
(476,630,o),
(476,544,cs),
(476,474,o),
(459,450,o),
(366,380,cs),
(308,336,o),
(281,294,o),
(281,216,c)
);
}
);
width = 600;
},
{
background = {
shapes = (
{
closed = 1;
nodes = (
(331,205,l),
(331,260,o),
(350,308,o),
(400,342,cs),
(490,404,o),
(528,458,o),
(528,527,cs),
(528,644,o),
(430,726,o),
(291,726,cs),
(165,726,o),
(69,633,o),
(57,500,c),
(147,494,l),
(158,585,o),
(216,642,o),
(296,642,cs),
(382,642,o),
(439,594,o),
(438,527,cs),
(438,461,o),
(390,440,o),
(335,395,cs),
(272,342,o),
(249,278,o),
(249,205,c)
);
},
{
alignment = -1;
pos = (-10,0);
ref = period;
}
);
};
layerId = "574EE4B9-5C1A-4E7E-9985-C08FACB65BD8";
name = Regular;
shapes = (
{
alignment = -1;
pos = (-3,0);
ref = period;
},
{
closed = 1;
nodes = (
(340,201,l),
(340,271,o),
(355,303,o),
(409,338,cs),
(495,394,o),
(534,438,o),
(534,522,cs),
(534,641,o),
(445,726,o),
(315,726,cs),
(169,726,o),
(78,632,o),
(66,500,c),
(156,494,l),
(166,590,o),
(216,642,o),
(315,642,cs),
(396,642,o),
(444,591,o),
(444,522,cs),
(444,462,o),
(429,438,o),
(351,390,cs),
(282,347,o),
(254,297,o),
(254,201,c)
);
}
);
width = 600;
},
{
background = {
shapes = (
{
closed = 1;
nodes = (
(358,243,l),
(358,293,o),
(378,326,o),
(439,361,cs),
(504,400,o),
(543,457,o),
(543,518,cs),
(543,645,o),
(445,726,o),
(294,726,cs),
(152,726,o),
(52,637,o),
(38,501,c),
(192,493,l),
(201,554,o),
(242,595,o),
(295,595,cs),
(351,595,o),
(389,563,o),
(389,518,cs),
(389,478,o),
(350,457,o),
(294,419,cs),
(228,373,o),
(213,319,o),
(213,243,c)
);
},
{
alignment = -1;
pos = (-14,0);
ref = period;
}
);
};
layerId = "58B1DC7A-69F8-4375-AD2E-AC5103CCF536";
name = Regular;
shapes = (
{
alignment = -1;
pos = (2,0);
ref = period;
},
{
closed = 1;
nodes = (
(372,222,l),
(372,286,o),
(386,313,o),
(448,348,cs),
(526,391,o),
(560,435,o),
(560,522,cs),
(560,640,o),
(474,726,o),
(308,726,cs),
(148,726,o),
(52,632,o),
(40,502,c),
(216,494,l),
(224,554,o),
(248,580,o),
(308,580,cs),
(370,580,o),
(386,550,o),
(386,518,cs),
(386,478,o),
(373,458,o),
(313,428,cs),
(241,392,o),
(224,330,o),
(224,222,c)
);
}
);
width = 600;
}
);
unicode = 63;
}
{
color = 4;
glyphname = A;
kernLeft = "0";
kernRight = "0";
layers = (
{
anchors = (
{
name = bottom;
pos = (300,0);
},
{
name = ogonek;
pos = (552,0);
},
{
name = top;
pos = (300,710);
}
);
background = {
anchors = (
{
name = ogonek;
pos = (542,0);
},
{
name = top;
pos = (300,710);
}
);
shapes = (
{
closed = 1;
nodes = (
(81,0,l),
(300,678,l),
(519,0,l),
(552,0,l),
(319,710,l),
(281,710,l),
(48,0,l)
);
},
{
closed = 1;
nodes = (
(452,235,l),
(442,265,l),
(158,265,l),
(148,235,l)
);
}
);
};
layerId = "EE2FFE84-06F1-4AFB-BBEC-60D09A436D14";
shapes = (
{
closed = 1;
nodes = (
(81,0,l),
(300,678,l),
(519,0,l),
(552,0,l),
(319,710,l),
(281,710,l),
(48,0,l)
);
},
{
closed = 1;
nodes = (
(454,235,l),
(444,265,l),
(156,265,l),
(146,235,l)
);
}
);
width = 600;
},
{
anchors = (
{
name = bottom;
pos = (300,0);
},
{
name = ogonek;
pos = (574,0);
},
{
name = top;
pos = (300,710);
}
);
background = {
anchors = (
{
name = ogonek;
pos = (564,0);
},
{
name = top;
pos = (300,710);
}
);
shapes = (
{
closed = 1;
nodes = (
(114,0,l),
(300,635,l),
(486,0,l),
(574,0,l),
(358,710,l),
(242,710,l),
(26,0,l)
);
},
{
closed = 1;
nodes = (
(465,202,l),
(435,280,l),
(165,280,l),
(135,202,l)
);
}
);
};
layerId = "574EE4B9-5C1A-4E7E-9985-C08FACB65BD8";
shapes = (
{
closed = 1;
nodes = (
(118,0,l),
(300,632,l),
(482,0,l),
(574,0,l),
(358,710,l),
(242,710,l),
(26,0,l)
);
},
{
closed = 1;
nodes = (
(465,202,l),
(435,286,l),
(165,286,l),
(135,202,l)
);
}
);
width = 600;
},
{
anchors = (
{
name = bottom;
pos = (300,0);
},
{
name = ogonek;
pos = (586,0);
},
{
name = top;
pos = (300,710);
}
);
background = {
anchors = (
{
name = ogonek;
pos = (575,0);
},
{
name = top;
pos = (300,710);
}
);
shapes = (
{
closed = 1;
nodes = (
(168,0,l),
(300,469,l),
(432,0,l),
(585,0,l),
(372,710,l),
(228,710,l),
(15,0,l)
);
},
{
closed = 1;
nodes = (
(444,128,l),
(393,244,l),
(209,244,l),
(156,128,l)
);
}
);
};
layerId = "58B1DC7A-69F8-4375-AD2E-AC5103CCF536";
shapes = (
{
closed = 1;
nodes = (
(192,0,l),
(300,476,l),
(408,0,l),
(586,0,l),
(406,710,l),
(194,710,l),
(14,0,l)
);
},
{
closed = 1;
nodes = (
(440,117,l),
(400,268,l),
(200,268,l),
(160,117,l)
);
}
);
width = 600;
}
);
unicode = 65;
}
{
color = 4;
glyphname = B;
kernLeft = "0";
kernRight = "0";
layers = (
{
anchors = (
{
name = bottom;
pos = (300,0);
},
{
name = top;
pos = (300,710);
}
);
background = {
shapes = (
{
closed = 1;
nodes = (
(320,0,ls),
(468,0,o),
(546,67,o),
(546,189,cs),
(546,294,o),
(466,360,o),
(340,360,c),
(340,354,l),
(443,354,o),
(517,423,o),
(517,520,cs),
(517,642,o),
(437,710,o),
(283,710,cs),
(100,710,l),
(100,0,l)
);
},
{
closed = 1;
nodes = (
(132,340,l),
(317,340,ls),
(437,340,o),
(512,281,o),
(512,189,cs),
(512,85,o),
(448,28,o),
(318,28,cs),
(132,28,l)
);
},
{
closed = 1;
nodes = (
(132,682,l),
(283,682,ls),
(415,682,o),
(483,623,o),
(483,520,cs),
(483,423,o),
(409,368,o),
(300,368,cs),
(132,368,l)
);
}
);
};
layerId = "EE2FFE84-06F1-4AFB-BBEC-60D09A436D14";
shapes = (
{
closed = 1;
nodes = (
(320,0,ls),
(468,0,o),
(546,67,o),
(546,189,cs),
(546,294,o),
(466,360,o),
(340,360,c),
(340,354,l),
(443,354,o),
(517,423,o),
(517,520,cs),
(517,642,o),
(437,710,o),
(283,710,cs),
(100,710,l),
(100,0,l)
);
},
{
closed = 1;
nodes = (
(132,340,l),
(317,340,ls),
(437,340,o),
(512,281,o),
(512,189,cs),
(512,85,o),
(448,28,o),
(318,28,cs),
(132,28,l)
);
},
{
closed = 1;
nodes = (
(132,682,l),
(283,682,ls),
(415,682,o),
(483,623,o),
(483,520,cs),
(483,423,o),
(409,368,o),
(300,368,cs),
(132,368,l)
);
}
);
width = 600;
},
{
anchors = (
{
name = bottom;
pos = (300,0);
},
{
name = top;
pos = (300,710);
}
);
background = {
shapes = (
{
closed = 1;
nodes = (
(315,0,ls),
(465,0,o),
(556,75,o),
(556,198,cs),
(556,302,o),
(482,368,o),
(360,368,c),
(360,362,l),
(458,362,o),
(526,427,o),
(526,516,cs),
(526,636,o),
(446,710,o),
(290,710,cs),
(90,710,l),
(90,0,l)
);
},
{
closed = 1;
nodes = (
(176,320,l),
(316,320,ls),
(414,320,o),
(466,274,o),
(466,198,cs),
(466,126,o),
(414,82,o),
(316,82,cs),
(176,82,l)
);
},
{
closed = 1;
nodes = (
(176,628,l),
(294,628,ls),
(392,628,o),
(436,586,o),
(436,514,cs),
(436,443,o),
(392,402,o),
(294,402,cs),
(176,402,l)
);
}
);
};
layerId = "574EE4B9-5C1A-4E7E-9985-C08FACB65BD8";
shapes = (
{
closed = 1;
nodes = (
(315,0,ls),
(465,0,o),
(556,75,o),
(556,198,cs),
(556,302,o),
(482,368,o),
(358,368,c),
(358,362,l),
(458,362,o),
(526,427,o),
(526,516,cs),
(526,636,o),
(446,710,o),
(290,710,cs),
(90,710,l),
(90,0,l)
);
},
{
closed = 1;
nodes = (
(176,319,l),
(316,319,ls),
(414,319,o),
(466,274,o),
(466,198,cs),
(466,126,o),
(418,84,o),
(316,84,cs),
(176,84,l)
);
},
{
closed = 1;
nodes = (
(176,626,l),
(294,626,ls),
(392,626,o),
(436,586,o),
(436,514,cs),
(436,443,o),
(392,403,o),
(294,403,cs),
(176,403,l)
);
}
);
width = 600;
},
{
anchors = (
{
name = bottom;
pos = (300,0);
},
{
name = top;
pos = (285,710);
}
);
background = {
shapes = (
{
closed = 1;
nodes = (
(304,0,ls),
(476,0,o),
(566,60,o),
(566,192,cs),
(566,290,o),
(510,362,o),
(358,370,c),
(358,362,l),
(490,376,o),
(536,436,o),
(536,522,cs),
(536,650,o),
(444,710,o),
(284,710,cs),
(54,710,l),
(54,0,l)
);
},
{
closed = 1;
nodes = (
(200,294,l),
(304,294,ls),
(376,294,o),
(412,264,o),
(412,212,cs),
(412,158,o),
(375,130,o),
(304,130,cs),
(200,130,l)
);
},
{
closed = 1;
nodes = (
(200,580,l),
(280,580,ls),
(350,580,o),
(382,554,o),
(382,504,cs),
(382,451,o),
(350,424,o),
(280,424,cs),
(200,424,l)
);
}
);
};
layerId = "58B1DC7A-69F8-4375-AD2E-AC5103CCF536";
shapes = (
{
closed = 1;
nodes = (
(304,0,ls),
(476,0,o),
(566,60,o),
(566,192,cs),
(566,290,o),
(510,362,o),
(358,370,c),
(358,362,l),
(490,376,o),
(536,436,o),
(536,522,cs),
(536,650,o),
(444,710,o),
(284,710,cs),
(54,710,l),
(54,0,l)
);
},
{
closed = 1;
nodes = (
(234,285,l),
(304,285,ls),
(354,285,o),
(382,261,o),
(382,218,cs),
(382,179,o),
(354,156,o),
(304,155,cs),
(234,154,l)
);
},
{
closed = 1;
nodes = (
(234,556,l),
(280,556,ls),
(326,556,o),
(352,534,o),
(352,496,cs),
(352,456,o),
(326,433,o),
(280,433,cs),
(234,433,l)
);
}
);
width = 600;
}
);
unicode = 66;
}
{
color = 4;
glyphname = E;
kernLeft = "0";
kernRight = "0";
layers = (
{
anchors = (
{
name = bottom;
pos = (306,0);
},
{
name = ogonek;
pos = (517,0);
},
{
name = top;
pos = (306,710);
}
);
background = {
anchors = (
{
name = bottom;
pos = (306,0);
},
{
name = ogonek;
pos = (517,0);
},
{
name = top;
pos = (306,710);
}
);
shapes = (
{
closed = 1;
nodes = (
(520,0,l),
(520,30,l),
(132,30,l),
(132,339,l),
(500,339,l),
(500,369,l),
(132,369,l),
(132,680,l),
(512,680,l),
(512,710,l),
(100,710,l),
(100,0,l)
);
}
);
};
layerId = "EE2FFE84-06F1-4AFB-BBEC-60D09A436D14";
shapes = (
{
closed = 1;
nodes = (
(520,0,l),
(520,30,l),
(132,30,l),
(132,339,l),
(500,339,l),
(500,369,l),
(132,369,l),
(132,680,l),
(512,680,l),
(512,710,l),
(100,710,l),
(100,0,l)
);
}
);
width = 600;
},
{
anchors = (
{
name = bottom;
pos = (318,0);
},
{
name = ogonek;
pos = (534,0);
},
{
name = top;
pos = (318,711);
}
);
background = {
anchors = (
{
name = bottom;
pos = (318,0);
},
{
name = ogonek;
pos = (534,0);
},
{
name = top;
pos = (318,711);
}
);
shapes = (
{
closed = 1;
nodes = (
(530,0,l),
(530,82,l),
(176,82,l),
(176,316,l),
(510,316,l),
(510,398,l),
(176,398,l),
(176,628,l),
(522,628,l),
(522,710,l),
(90,710,l),
(90,0,l)
);
}
);
};
layerId = "574EE4B9-5C1A-4E7E-9985-C08FACB65BD8";
shapes = (
{
closed = 1;
nodes = (
(530,0,l),
(530,84,l),
(176,84,l),
(176,315,l),
(510,315,l),
(510,397,l),
(176,397,l),
(176,626,l),
(522,626,l),
(522,710,l),
(90,710,l),
(90,0,l)
);
}
);
width = 600;
},
{
anchors = (
{
name = bottom;
pos = (308,0);
},
{
name = ogonek;
pos = (540,0);
},
{
name = top;
pos = (308,711);
}
);
background = {
anchors = (
{
name = bottom;
pos = (308,0);
},
{
name = ogonek;
pos = (540,0);
},
{
name = top;
pos = (309,711);
}
);
shapes = (
{
closed = 1;
nodes = (
(540,0,l),
(540,130,l),
(226,130,l),
(226,292,l),
(520,292,l),
(520,422,l),
(226,422,l),
(226,580,l),
(532,580,l),
(532,710,l),
(80,710,l),
(80,0,l)
);
}
);
};
layerId = "58B1DC7A-69F8-4375-AD2E-AC5103CCF536";
shapes = (
{
closed = 1;
nodes = (
(540,0,l),
(540,158,l),
(260,158,l),
(260,279,l),
(520,279,l),
(520,433,l),
(260,433,l),
(260,552,l),
(532,552,l),
(532,710,l),
(80,710,l),
(80,0,l)
);
}
);
width = 600;
}
);
unicode = 69;
}
{
color = 4;
glyphname = F;
kernLeft = "0";
kernRight = "0";
layers = (
{
anchors = (
{
name = bottom;
pos = (300,0);
},
{
name = top;
pos = (300,710);
}
);
background = {
shapes = (
{
closed = 1;
nodes = (
(142,0,l),
(142,350,l),
(135,340,l),
(512,340,l),
(512,368,l),
(135,368,l),
(142,344,l),
(142,689,l),
(135,682,l),
(530,682,l),
(530,710,l),
(110,710,l),
(110,0,l)
);
}
);
};
layerId = "EE2FFE84-06F1-4AFB-BBEC-60D09A436D14";
shapes = (
{
closed = 1;
nodes = (
(142,0,l),
(142,350,l),
(135,339,l),
(512,339,l),
(512,369,l),
(135,369,l),
(142,344,l),
(142,689,l),
(135,680,l),
(530,680,l),
(530,710,l),
(110,710,l),
(110,0,l)
);
}
);
width = 600;
},
{
anchors = (
{
name = bottom;
pos = (300,0);
},
{
name = top;
pos = (300,710);
}
);
background = {
shapes = (
{
closed = 1;
nodes = (
(186,0,l),
(186,350,l),
(142,306,l),
(522,306,l),
(522,388,l),
(142,388,l),
(186,344,l),
(186,670,l),
(142,628,l),
(540,628,l),
(540,710,l),
(100,710,l),
(100,0,l)
);
}
);
};
layerId = "574EE4B9-5C1A-4E7E-9985-C08FACB65BD8";
shapes = (
{
closed = 1;
nodes = (
(186,0,l),
(186,350,l),
(142,306,l),
(522,306,l),
(522,388,l),
(142,388,l),
(186,344,l),
(186,670,l),
(142,628,l),
(540,628,l),
(540,710,l),
(100,710,l),
(100,0,l)
);
}
);
width = 600;
},
{
anchors = (
{
name = bottom;
pos = (270,0);
},
{
name = top;
pos = (314,710);
}
);
background = {
shapes = (
{
closed = 1;
nodes = (
(236,0,l),
(236,350,l),
(148,284,l),
(532,284,l),
(532,414,l),
(148,414,l),
(236,344,l),
(236,669,l),
(148,580,l),
(550,580,l),
(550,710,l),
(90,710,l),
(90,0,l)
);
}
);
};
layerId = "58B1DC7A-69F8-4375-AD2E-AC5103CCF536";
shapes = (
{
closed = 1;
nodes = (
(270,0,l),
(270,350,l),
(148,271,l),
(532,271,l),
(532,425,l),
(148,425,l),
(270,344,l),
(270,669,l),
(148,552,l),
(550,552,l),
(550,710,l),
(90,710,l),
(90,0,l)
);
}
);
width = 600;
}
);
unicode = 70;
}
{
color = 4;
glyphname = G;
kernLeft = "0";
kernRight = "0";
layers = (
{
anchors = (
{
name = bottom;
pos = (306,0);
},
{
name = top;
pos = (294,710);
}
);
background = {
anchors = (
{
name = bottom;
pos = (306,0);
},
{
name = top;
pos = (294,710);
}
);
shapes = (
{
closed = 1;
nodes = (
(410,-16,o),
(490,68,o),
(520,196,c),
(508,202,l),
(510,0,l),
(540,0,l),
(540,330,l),
(304,330,l),
(304,302,l),
(508,302,l),
(504,128,o),
(416,16,o),
(304,16,cs),
(163,16,o),
(82,154,o),
(82,354,cs),
(82,554,o),
(172,694,o),
(300,694,cs),
(410,694,o),
(474,626,o),
(502,496,c),
(536,500,l),
(504,648,o),
(426,726,o),
(300,726,cs),
(150,726,o),
(48,574,o),
(48,354,cs),
(48,127,o),
(142,-16,o),
(300,-16,cs)
);
}
);
};
layerId = "EE2FFE84-06F1-4AFB-BBEC-60D09A436D14";
shapes = (
{
closed = 1;
nodes = (
(415,-16,o),
(496,78,o),
(518,210,c),
(512,212,l),
(512,0,l),
(540,0,l),
(540,330,l),
(304,330,l),
(304,302,l),
(510,302,l),
(506,134,o),
(421,16,o),
(302,16,cs),
(168,16,o),
(82,147,o),
(82,354,cs),
(82,554,o),
(172,694,o),
(300,694,cs),
(410,694,o),
(474,626,o),
(502,496,c),
(536,500,l),
(504,648,o),
(426,726,o),
(300,726,cs),
(150,726,o),
(48,575,o),
(48,354,cs),
(48,125,o),
(144,-16,o),
(300,-16,cs)
);
}
);
width = 600;
},
{
anchors = (
{
name = bottom;
pos = (299,0);
},
{
name = top;
pos = (299,710);
}
);
background = {
anchors = (
{
name = bottom;
pos = (299,0);
},
{
name = top;
pos = (299,710);
}
);
shapes = (
{
closed = 1;
nodes = (
(410,-16,o),
(468,55,o),
(498,158,c),
(470,168,l),
(474,0,l),
(554,0,l),
(554,358,l),
(304,358,l),
(304,276,l),
(474,276,l),
(470,158,o),
(404,68,o),
(306,68,cs),
(193,68,o),
(128,171,o),
(128,354,cs),
(128,538,o),
(191,642,o),
(302,642,cs),
(386,642,o),
(438,580,o),
(461,492,c),
(551,498,l),
(520,632,o),
(432,726,o),
(302,726,cs),
(136,726,o),
(38,583,o),
(38,354,cs),
(38,110,o),
(148,-16,o),
(298,-16,cs)
);
}
);
};
layerId = "574EE4B9-5C1A-4E7E-9985-C08FACB65BD8";
shapes = (
{
closed = 1;
nodes = (
(410,-16,o),
(466,57,o),
(494,160,c),
(470,168,l),
(474,0,l),
(554,0,l),
(554,359,l),
(304,359,l),
(304,277,l),
(474,277,l),
(470,154,o),
(407,68,o),
(306,68,cs),
(193,68,o),
(128,171,o),
(128,354,cs),
(128,538,o),
(191,642,o),
(302,642,cs),
(386,642,o),
(438,580,o),
(461,492,c),
(551,498,l),
(520,632,o),
(432,726,o),
(302,726,cs),
(136,726,o),
(38,583,o),
(38,354,cs),
(38,110,o),
(148,-16,o),
(298,-16,cs)
);
}
);
width = 600;
},
{
anchors = (
{
name = bottom;
pos = (305,0);
},
{
name = top;
pos = (306,710);
}
);
background = {
anchors = (
{
name = bottom;
pos = (305,0);
},
{
name = top;
pos = (306,710);
}
);
shapes = (
{
closed = 1;
nodes = (
(392,-16,o),
(465,41,o),
(490,140,c),
(454,144,l),
(462,0,l),
(564,0,l),
(564,370,l),
(300,370,l),
(300,250,l),
(424,250,l),
(420,150,o),
(371,114,o),
(318,114,cs),
(226,114,o),
(182,202,o),
(182,354,cs),
(182,506,o),
(226,596,o),
(304,596,cs),
(366,596,o),
(404,546,o),
(416,462,c),
(570,472,l),
(540,632,o),
(454,726,o),
(304,726,cs),
(132,726,o),
(28,584,o),
(28,354,cs),
(28,124,o),
(136,-16,o),
(304,-16,cs)
);
}
);
};
layerId = "58B1DC7A-69F8-4375-AD2E-AC5103CCF536";
shapes = (
{
closed = 1;
nodes = (
(418,-16,o),
(488,78,o),
(488,178,c),
(451,144,l),
(459,0,l),
(564,0,l),
(564,376,l),
(300,376,l),
(300,246,l),
(398,246,l),
(396,174,o),
(368,141,o),
(318,141,cs),
(250,141,o),
(212,215,o),
(212,354,cs),
(212,494,o),
(246,569,o),
(306,569,cs),
(349,569,o),
(377,536,o),
(387,452,c),
(570,462,l),
(539,639,o),
(451,726,o),
(304,726,cs),
(132,726,o),
(28,584,o),
(28,354,cs),
(28,124,o),
(136,-16,o),
(304,-16,cs)
);
}
);
width = 600;
}
);
unicode = 71;
}
{
color = 4;
glyphname = H;
kernLeft = "0";
kernRight = "0";
layers = (
{
anchors = (
{
name = bottom;
pos = (300,0);
},
{
name = center;
pos = (300,560);
},
{
name = top;
pos = (300,710);
}
);
background = {
anchors = (
{
name = top;
pos = (300,710);
}
);
shapes = (
{
closed = 1;
nodes = (
(120,0,l),
(120,359,l),
(111,349,l),
(488,349,l),
(480,359,l),
(480,0,l),
(512,0,l),
(512,710,l),
(480,710,l),
(480,370,l),
(488,379,l),
(111,379,l),
(120,370,l),
(120,710,l),
(88,710,l),
(88,0,l)
);
}
);
};
layerId = "EE2FFE84-06F1-4AFB-BBEC-60D09A436D14";
shapes = (
{
closed = 1;
nodes = (
(112,0,l),
(112,359,l),
(103,349,l),
(496,349,l),
(488,359,l),
(488,0,l),
(520,0,l),
(520,710,l),
(488,710,l),
(488,370,l),
(496,379,l),
(103,379,l),
(112,370,l),
(112,710,l),
(80,710,l),
(80,0,l)
);
}
);
width = 600;
},
{
anchors = (
{
name = bottom;
pos = (300,0);
},
{
name = center;
pos = (300,568);
},
{
name = top;
pos = (300,710);
}
);
background = {
anchors = (
{
name = top;
pos = (300,710);
}
);
shapes = (
{
closed = 1;
nodes = (
(154,0,l),
(154,349,l),
(110,315,l),
(490,315,l),
(446,349,l),
(446,0,l),
(532,0,l),
(532,710,l),
(446,710,l),
(446,365,l),
(490,399,l),
(110,399,l),
(154,365,l),
(154,710,l),
(68,710,l),
(68,0,l)
);
}
);
};
layerId = "574EE4B9-5C1A-4E7E-9985-C08FACB65BD8";
shapes = (
{
closed = 1;
nodes = (
(146,0,l),
(146,349,l),
(102,315,l),
(498,315,l),
(454,349,l),
(454,0,l),
(540,0,l),
(540,710,l),
(454,710,l),
(454,365,l),
(498,399,l),
(102,399,l),
(146,365,l),
(146,710,l),
(60,710,l),
(60,0,l)
);
}
);
width = 600;
},
{
anchors = (
{
name = bottom;
pos = (300,0);
},
{
name = center;
pos = (300,580);
},
{
name = top;
pos = (300,710);
}
);
background = {
anchors = (
{
name = top;
pos = (300,710);
}
);
shapes = (
{
closed = 1;
nodes = (
(194,0,l),
(194,335,l),
(161,288,l),
(439,288,l),
(406,335,l),
(406,0,l),
(552,0,l),
(552,710,l),
(406,710,l),
(406,379,l),
(439,418,l),
(161,418,l),
(194,379,l),
(194,710,l),
(48,710,l),
(48,0,l)
);
}
);
};
layerId = "58B1DC7A-69F8-4375-AD2E-AC5103CCF536";
shapes = (
{
closed = 1;
nodes = (
(220,0,l),
(220,335,l),
(161,278,l),
(439,278,l),
(380,335,l),
(380,0,l),
(560,0,l),
(560,710,l),
(380,710,l),
(380,379,l),
(439,436,l),
(161,436,l),
(220,379,l),
(220,710,l),
(40,710,l),
(40,0,l)
);
}
);
width = 600;
}
);
unicode = 72;
}
{
color = 4;
glyphname = J;
kernLeft = "0";
kernRight = "0";
layers = (
{
anchors = (
{
name = top;
pos = (484,710);
}
);
background = {
anchors = (
{
name = top;
pos = (484,710);
}
);
shapes = (
{
closed = 1;
nodes = (
(416,-16,o),
(500,82,o),
(500,254,cs),
(500,710,l),
(468,710,l),
(468,254,ls),
(468,94,o),
(396,16,o),
(272,16,cs),
(158,16,o),
(88,94,o),
(84,236,c),
(50,232,l),
(54,82,o),
(142,-16,o),
(272,-16,cs)
);
}
);
};
layerId = "EE2FFE84-06F1-4AFB-BBEC-60D09A436D14";
shapes = (
{
closed = 1;
nodes = (
(417,-16,o),
(500,83,o),
(500,254,cs),
(500,710,l),
(468,710,l),
(468,254,ls),
(468,99,o),
(400,16,o),
(272,16,cs),
(156,16,o),
(88,96,o),
(84,236,c),
(50,232,l),
(54,82,o),
(142,-16,o),
(272,-16,cs)
);
}
);
width = 600;
},
{
anchors = (
{
name = top;
pos = (465,710);
}
);
background = {
anchors = (
{
name = top;
pos = (465,710);
}
);
shapes = (
{
closed = 1;
nodes = (
(419,-16,o),
(510,80,o),
(510,238,cs),
(510,710,l),
(424,710,l),
(424,238,ls),
(424,126,o),
(375,68,o),
(275,68,cs),
(177,68,o),
(128,122,o),
(124,238,c),
(40,230,l),
(44,82,o),
(133,-16,o),
(275,-16,cs)
);
}
);
};
layerId = "574EE4B9-5C1A-4E7E-9985-C08FACB65BD8";
shapes = (
{
closed = 1;
nodes = (
(420,-16,o),
(510,81,o),
(510,238,cs),
(510,710,l),
(424,710,l),
(424,238,ls),
(424,125,o),
(374,68,o),
(275,68,cs),
(176,68,o),
(128,123,o),
(124,238,c),
(40,230,l),
(44,80,o),
(135,-16,o),
(275,-16,cs)
);
}
);
width = 600;
},
{
anchors = (
{
name = top;
pos = (445,710);
}
);
background = {
anchors = (
{
name = top;
pos = (445,710);
}
);
shapes = (
{
closed = 1;
nodes = (
(431,-16,o),
(520,78,o),
(520,252,cs),
(520,710,l),
(374,710,l),
(374,252,ls),
(374,156,o),
(342,114,o),
(278,114,cs),
(214,114,o),
(182,166,o),
(180,274,c),
(30,266,l),
(32,90,o),
(123,-16,o),
(277,-16,cs)
);
}
);
};
layerId = "58B1DC7A-69F8-4375-AD2E-AC5103CCF536";
shapes = (
{
closed = 1;
nodes = (
(433,-16,o),
(520,80,o),
(520,252,cs),
(520,710,l),
(340,710,l),
(340,252,ls),
(340,170,o),
(323,138,o),
(278,138,cs),
(232,138,o),
(214,176,o),
(212,274,c),
(30,266,l),
(32,85,o),
(121,-16,o),
(277,-16,cs)
);
}
);
width = 600;
}
);
unicode = 74;
}
{
color = 4;
glyphname = K;
kernLeft = "0";
kernRight = "0";
layers = (
{
anchors = (
{
name = bottom;
pos = (293,0);
},
{
name = top;
pos = (293,710);
}
);
background = {
anchors = (
{
name = bottom;
pos = (293,0);
},
{
name = top;
pos = (293,710);
}
);
shapes = (
{
closed = 1;
nodes = (
(112,0,l),
(112,288,l),
(208,384,l),
(512,0,l),
(550,0,l),
(228,404,l),
(529,710,l),
(491,710,l),
(112,324,l),
(112,710,l),
(80,710,l),
(80,0,l)
);
}
);
};
layerId = "EE2FFE84-06F1-4AFB-BBEC-60D09A436D14";
shapes = (
{
closed = 1;
nodes = (
(539,710,l),
(501,710,l),
(105,268,l),
(105,226,l)
);
},
{
closed = 1;
nodes = (
(112,0,l),
(112,710,l),
(80,710,l),
(80,0,l)
);
},
{
closed = 1;
nodes = (
(550,0,l),
(254,410,l),
(234,388,l),
(512,0,l)
);
}
);
width = 600;
},
{
anchors = (
{
name = bottom;
pos = (284,0);
},
{
name = top;
pos = (277,710);
}
);
background = {
anchors = (
{
name = bottom;
pos = (284,0);
},
{
name = top;
pos = (277,710);
}
);
shapes = (
{
closed = 1;
nodes = (
(146,0,l),
(146,284,l),
(210,352,l),
(454,0,l),
(560,0,l),
(270,412,l),
(540,710,l),
(434,710,l),
(146,396,l),
(146,710,l),
(60,710,l),
(60,0,l)
);
}
);
};
layerId = "574EE4B9-5C1A-4E7E-9985-C08FACB65BD8";
shapes = (
{
closed = 1;
nodes = (
(550,710,l),
(444,710,l),
(136,342,l),
(136,226,l)
);
},
{
closed = 1;
nodes = (
(146,0,l),
(146,710,l),
(60,710,l),
(60,0,l)
);
},
{
closed = 1;
nodes = (
(560,0,l),
(266,422,l),
(206,360,l),
(454,0,l)
);
}
);
width = 600;
},
{
anchors = (
{
name = bottom;
pos = (280,0);
},
{
name = top;
pos = (274,710);
}
);
background = {
anchors = (
{
name = bottom;
pos = (280,0);
},
{
name = top;
pos = (274,710);
}
);
shapes = (
{
closed = 1;
nodes = (
(186,0,l),
(186,234,l),
(230,294,l),
(390,0,l),
(570,0,l),
(336,398,l),
(564,710,l),
(384,710,l),
(186,428,l),
(186,710,l),
(40,710,l),
(40,0,l)
);
}
);
};
layerId = "58B1DC7A-69F8-4375-AD2E-AC5103CCF536";
shapes = (
{
closed = 1;
nodes = (
(570,710,l),
(358,710,l),
(210,448,l),
(210,168,l)
);
},
{
closed = 1;
nodes = (
(220,0,l),
(220,710,l),
(40,710,l),
(40,0,l)
);
},
{
closed = 1;
nodes = (
(570,0,l),
(360,420,l),
(240,310,l),
(380,0,l)
);
}
);
width = 600;
}
);
unicode = 75;
}
{
color = 4;
glyphname = L;
kernLeft = "0";
kernRight = "0";
layers = (
{
anchors = (
{
name = bottom;
pos = (317,0);
},
{
name = center;
pos = (150,382);
},
{
name = top;
pos = (126,710);
},
{
name = topright;
pos = (330,530);
}
);
background = {
anchors = (
{
name = bottom;
pos = (317,0);
},
{
name = center;
pos = (300,355);
},
{
name = top;
pos = (126,710);
},
{
name = topright;
pos = (280,530);
}
);
shapes = (
{
closed = 1;
nodes = (
(530,0,l),
(530,28,l),
(134,28,l),
(142,20,l),
(142,710,l),
(110,710,l),
(110,0,l)
);
}
);
};
layerId = "EE2FFE84-06F1-4AFB-BBEC-60D09A436D14";
shapes = (
{
closed = 1;
nodes = (
(530,0,l),
(530,30,l),
(134,30,l),
(142,20,l),
(142,710,l),
(110,710,l),
(110,0,l)
);
}
);
width = 600;
},
{
anchors = (
{
name = bottom;
pos = (321,0);
},
{
name = center;
pos = (184,380);
},
{
name = top;
pos = (143,710);
},
{
name = topright;
pos = (334,530);
}
);
background = {
anchors = (
{
name = bottom;
pos = (321,0);
},
{
name = center;
pos = (300,355);
},
{
name = top;
pos = (143,710);
},
{
name = topright;
pos = (280,530);
}
);
shapes = (
{
closed = 1;
nodes = (
(540,0,l),
(540,82,l),
(143,82,l),
(186,40,l),
(186,710,l),
(100,710,l),
(100,0,l)
);
}
);
};
layerId = "574EE4B9-5C1A-4E7E-9985-C08FACB65BD8";
shapes = (
{
closed = 1;
nodes = (
(540,0,l),
(540,84,l),
(143,84,l),
(186,40,l),
(186,710,l),
(100,710,l),
(100,0,l)
);
}
);
width = 600;
},
{
anchors = (
{
name = bottom;
pos = (320,0);
},
{
name = center;
pos = (205,380);
},
{
name = top;
pos = (171,710);
},
{
name = topright;
pos = (360,540);
}
);
background = {
anchors = (
{
name = bottom;
pos = (320,0);
},
{
name = center;
pos = (300,355);
},
{
name = top;
pos = (162,710);
},
{
name = topright;
pos = (300,540);
}
);
shapes = (
{
closed = 1;
nodes = (
(550,0,l),
(550,130,l),
(124,130,l),
(236,41,l),
(236,710,l),
(90,710,l),
(90,0,l)
);
}
);
};
layerId = "58B1DC7A-69F8-4375-AD2E-AC5103CCF536";
shapes = (
{
closed = 1;
nodes = (
(550,0,l),
(550,158,l),
(124,158,l),
(270,41,l),
(270,710,l),
(90,710,l),
(90,0,l)
);
}
);
width = 600;
}
);
unicode = 76;
}
{
color = 4;
glyphname = M;
kernLeft = "0";
kernRight = "0";
layers = (
{
anchors = (
{
name = bottom;
pos = (300,0);
},
{
name = top;
pos = (300,710);
}
);
background = {
shapes = (
{
closed = 1;
nodes = (
(316,80,l),
(498,696,l),
(488,696,l),
(488,0,l),
(520,0,l),
(520,710,l),
(472,710,l),
(292,96,l),
(308,96,l),
(128,710,l),
(80,710,l),
(80,0,l),
(112,0,l),
(112,696,l),
(102,696,l),
(284,80,l)
);
}
);
};
layerId = "EE2FFE84-06F1-4AFB-BBEC-60D09A436D14";
shapes = (
{
closed = 1;
nodes = (
(316,80,l),
(518,702,l),
(508,702,l),
(508,0,l),
(540,0,l),
(540,710,l),
(490,710,l),
(293,96,l),
(307,96,l),
(110,710,l),
(60,710,l),
(60,0,l),
(92,0,l),
(92,702,l),
(82,702,l),
(284,80,l)
);
}
);
width = 600;
},
{
anchors = (
{
name = bottom;
pos = (300,0);
},
{
name = top;
pos = (300,710);
}
);
background = {
shapes = (
{
closed = 1;
nodes = (
(338,80,l),
(462,630,l),
(454,630,l),
(454,0,l),
(540,0,l),
(540,710,l),
(410,710,l),
(280,126,l),
(320,126,l),
(190,710,l),
(60,710,l),
(60,0,l),
(146,0,l),
(146,630,l),
(138,630,l),
(262,80,l)
);
}
);
};
layerId = "574EE4B9-5C1A-4E7E-9985-C08FACB65BD8";
shapes = (
{
closed = 1;
nodes = (
(338,80,l),
(472,630,l),
(464,630,l),
(464,0,l),
(550,0,l),
(550,710,l),
(420,710,l),
(280,126,l),
(320,126,l),
(180,710,l),
(50,710,l),
(50,0,l),
(136,0,l),
(136,630,l),
(128,630,l),
(262,80,l)
);
}
);
width = 600;
},
{
anchors = (
{
name = bottom;
pos = (300,0);
},
{
name = top;
pos = (300,710);
}
);
background = {
shapes = (
{
closed = 1;
nodes = (
(346,80,l),
(428,450,l),
(414,456,l),
(414,0,l),
(560,0,l),
(560,710,l),
(382,710,l),
(282,260,l),
(318,260,l),
(218,710,l),
(40,710,l),
(40,0,l),
(186,0,l),
(186,456,l),
(172,450,l),
(254,80,l)
);
}
);
};
layerId = "58B1DC7A-69F8-4375-AD2E-AC5103CCF536";
shapes = (
{
closed = 1;
nodes = (
(346,110,l),
(424,450,l),
(400,456,l),
(400,0,l),
(560,0,l),
(560,710,l),
(380,710,l),
(282,350,l),
(318,350,l),
(220,710,l),
(40,710,l),
(40,0,l),
(200,0,l),
(200,456,l),
(176,450,l),
(254,110,l)
);
}
);
width = 600;
}
);
unicode = 77;
}
{
color = 4;
glyphname = N;
layers = (
{
anchors = (
{
name = bottom;
pos = (310,0);
},
{
name = top;
pos = (308,710);
}
);
background = {
anchors = (
{
name = bottom;
pos = (310,0);
},
{
name = top;
pos = (308,710);
}
);
shapes = (
{
closed = 1;
nodes = (
(112,0,l),
(112,676,l),
(474,0,l),
(520,0,l),
(520,710,l),
(488,710,l),
(488,34,l),
(126,710,l),
(80,710,l),
(80,0,l)
);
}
);
};
layerId = "EE2FFE84-06F1-4AFB-BBEC-60D09A436D14";
shapes = (
{
closed = 1;
nodes = (
(112,0,l),
(112,694,l),
(105,693,l),
(473,0,l),
(520,0,l),
(520,710,l),
(488,710,l),
(488,16,l),
(495,17,l),
(127,710,l),
(80,710,l),
(80,0,l)
);
}
);
width = 600;
},
{
anchors = (
{
name = bottom;
pos = (300,0);
},
{
name = top;
pos = (300,710);
}
);
background = {
anchors = (
{
name = bottom;
pos = (300,0);
},
{
name = top;
pos = (300,710);
}
);
shapes = (
{
closed = 1;
nodes = (
(156,0,l),
(156,596,l),
(410,0,l),
(530,0,l),
(530,710,l),
(444,710,l),
(444,114,l),
(190,710,l),
(70,710,l),
(70,0,l)
);
}
);
};
layerId = "574EE4B9-5C1A-4E7E-9985-C08FACB65BD8";
shapes = (
{
closed = 1;
nodes = (
(156,0,l),
(156,653,l),
(141,649,l),
(408,0,l),
(530,0,l),
(530,710,l),
(444,710,l),
(444,58,l),
(459,61,l),
(192,710,l),
(70,710,l),
(70,0,l)
);
}
);
width = 600;
},
{
anchors = (
{
name = bottom;
pos = (300,0);
},
{
name = top;
pos = (300,710);
}
);
background = {
anchors = (
{
name = bottom;
pos = (300,0);
},
{
name = top;
pos = (300,710);
}
);
shapes = (
{
closed = 1;
nodes = (
(206,0,l),
(206,410,l),
(390,0,l),
(540,0,l),
(540,710,l),
(394,710,l),
(394,300,l),
(210,710,l),
(60,710,l),
(60,0,l)
);
}
);
};
layerId = "58B1DC7A-69F8-4375-AD2E-AC5103CCF536";
shapes = (
{
closed = 1;
nodes = (
(230,0,l),
(230,426,l),
(202,420,l),
(390,0,l),
(540,0,l),
(540,710,l),
(370,710,l),
(370,284,l),
(398,290,l),
(210,710,l),
(60,710,l),
(60,0,l)
);
}
);
width = 600;
}
);
unicode = 78;
}
{
color = 4;
glyphname = Q;
layers = (
{
anchors = (
{
name = bottom;
pos = (300,0);
},
{
name = top;
pos = (300,710);
}
);
background = {
anchors = (
{
name = bottom;
pos = (300,0);
},
{
name = top;
pos = (300,710);
}
);
shapes = (
{
closed = 1;
nodes = (
(482,-70,l),
(322,208,l),
(286,208,l),
(446,-70,l)
);
},
{
ref = O;
}
);
};
layerId = "EE2FFE84-06F1-4AFB-BBEC-60D09A436D14";
shapes = (
{
closed = 1;
nodes = (
(450,-119,l),
(306,228,l),
(272,228,l),
(416,-119,l)
);
},
{
closed = 1;
nodes = (
(456,-16,o),
(552,127,o),
(552,354,cs),
(552,583,o),
(456,726,o),
(300,726,cs),
(144,726,o),
(48,583,o),
(48,354,cs),
(48,127,o),
(144,-16,o),
(300,-16,cs)
);
},
{
closed = 1;
nodes = (
(160,16,o),
(82,146,o),
(82,354,cs),
(82,563,o),
(160,694,o),
(300,694,cs),
(440,694,o),
(518,563,o),
(518,354,cs),
(518,146,o),
(440,16,o),
(300,16,cs)
);
}
);
width = 600;
},
{
anchors = (
{
name = bottom;
pos = (300,0);
},
{
name = top;
pos = (300,710);
}
);
background = {
anchors = (
{
name = bottom;
pos = (300,0);
},
{
name = top;
pos = (300,710);
}
);
shapes = (
{
closed = 1;
nodes = (
(516,-70,l),
(356,208,l),
(260,208,l),
(420,-70,l)
);
},
{
alignment = -1;
ref = O;
}
);
};
layerId = "574EE4B9-5C1A-4E7E-9985-C08FACB65BD8";
shapes = (
{
closed = 1;
nodes = (
(466,-119,l),
(336,218,l),
(250,218,l),
(380,-119,l)
);
},
{
closed = 1;
nodes = (
(468,-16,o),
(562,117,o),
(562,354,cs),
(562,593,o),
(468,726,o),
(300,726,cs),
(132,726,o),
(38,593,o),
(38,354,cs),
(38,117,o),
(132,-16,o),
(300,-16,cs)
);
},
{
closed = 1;
nodes = (
(190,68,o),
(128,168,o),
(128,354,cs),
(128,540,o),
(190,642,o),
(300,642,cs),
(410,642,o),
(472,540,o),
(472,354,cs),
(472,168,o),
(410,68,o),
(300,68,cs)
);
}
);
width = 600;
},
{
anchors = (
{
name = bottom;
pos = (300,0);
},
{
name = top;
pos = (300,710);
}
);
background = {
anchors = (
{
name = bottom;
pos = (300,0);
},
{
name = top;
pos = (300,710);
}
);
shapes = (
{
closed = 1;
nodes = (
(484,-70,l),
(364,208,l),
(250,208,l),
(370,-70,l)
);
},
{
alignment = -1;
ref = O;
}
);
};
layerId = "58B1DC7A-69F8-4375-AD2E-AC5103CCF536";
shapes = (
{
closed = 1;
nodes = (
(413,-120,l),
(351,260,l),
(251,260,l),
(313,-120,l)
);
},
{
closed = 1;
nodes = (
(474,-16,o),
(572,116,o),
(572,354,cs),
(572,592,o),
(474,726,o),
(300,726,cs),
(126,726,o),
(28,592,o),
(28,354,cs),
(28,116,o),
(126,-16,o),
(300,-16,cs)
);
},
{
closed = 1;
nodes = (
(241,138,o),
(212,176,o),
(212,354,cs),
(212,512,o),
(241,572,o),
(300,572,cs),
(359,572,o),
(388,512,o),
(388,354,cs),
(388,154,o),
(374,138,o),
(300,138,cs)
);
}
);
width = 600;
}
);
unicode = 81;
}
{
color = 4;
glyphname = R;
kernLeft = "0";
kernRight = "0";
layers = (
{
anchors = (
{
name = bottom;
pos = (298,0);
},
{
name = top;
pos = (294,710);
}
);
background = {
anchors = (
{
name = bottom;
pos = (298,0);
},
{
name = top;
pos = (294,710);
}
);
shapes = (
{
closed = 1;
nodes = (
(118,0,l),
(118,312,l),
(316,312,ls),
(412,312,o),
(460,273,o),
(466,201,cs),
(482,0,l),
(514,0,l),
(497,207,ls),
(489,299,o),
(426,332,o),
(340,332,c),
(348,318,l),
(449,333,o),
(514,404,o),
(514,510,cs),
(514,639,o),
(428,710,o),
(294,710,cs),
(86,710,l),
(86,0,l)
);
},
{
closed = 1;
nodes = (
(118,682,l),
(292,682,ls),
(411,682,o),
(480,625,o),
(480,510,cs),
(480,398,o),
(411,340,o),
(292,340,cs),
(118,340,l)
);
}
);
};
layerId = "EE2FFE84-06F1-4AFB-BBEC-60D09A436D14";
shapes = (
{
closed = 1;
nodes = (
(118,0,l),
(118,311,l),
(316,311,ls),
(421,311,o),
(461,269,o),
(466,201,cs),
(482,0,l),
(514,0,l),
(497,207,ls),
(490,294,o),
(423,332,o),
(340,332,c),
(346,322,l),
(447,337,o),
(514,400,o),
(514,510,cs),
(514,639,o),
(428,710,o),
(294,710,cs),
(86,710,l),
(86,0,l)
);
},
{
closed = 1;
nodes = (
(118,682,l),
(292,682,ls),
(411,682,o),
(480,625,o),
(480,510,cs),
(480,398,o),
(411,341,o),
(292,341,cs),
(118,341,l)
);
}
);
width = 600;
},
{
anchors = (
{
name = bottom;
pos = (304,0);
},
{
name = top;
pos = (286,710);
}
);
background = {
anchors = (
{
name = bottom;
pos = (304,0);
},
{
name = top;
pos = (286,710);
}
);
shapes = (
{
closed = 1;
nodes = (
(156,0,l),
(156,288,l),
(304,288,ls),
(388,288,o),
(424,259,o),
(430,193,cs),
(447,0,l),
(534,0,l),
(516,204,ls),
(508,294,o),
(468,330,o),
(368,336,c),
(373,322,l),
(449,327,o),
(528,398,o),
(528,498,cs),
(528,630,o),
(435,710,o),
(286,710,cs),
(70,710,l),
(70,0,l)
);
},
{
closed = 1;
nodes = (
(156,628,l),
(286,628,ls),
(383,628,o),
(438,580,o),
(438,498,cs),
(438,416,o),
(383,370,o),
(286,370,cs),
(156,370,l)
);
}
);
};
layerId = "574EE4B9-5C1A-4E7E-9985-C08FACB65BD8";
shapes = (
{
closed = 1;
nodes = (
(156,0,l),
(156,286,l),
(304,286,ls),
(396,286,o),
(425,259,o),
(431,193,cs),
(448,0,l),
(534,0,l),
(516,204,ls),
(508,294,o),
(463,330,o),
(368,336,c),
(372,324,l),
(448,329,o),
(528,398,o),
(528,498,cs),
(528,630,o),
(435,710,o),
(286,710,cs),
(70,710,l),
(70,0,l)
);
},
{
closed = 1;
nodes = (
(156,626,l),
(286,626,ls),
(384,626,o),
(438,580,o),
(438,498,cs),
(438,416,o),
(384,370,o),
(286,370,cs),
(156,370,l)
);
}
);
width = 600;
},
{
anchors = (
{
name = bottom;
pos = (296,0);
},
{
name = top;
pos = (289,710);
}
);
background = {
anchors = (
{
name = bottom;
pos = (296,0);
},
{
name = top;
pos = (289,710);
}
);
shapes = (
{
closed = 1;
nodes = (
(202,0,l),
(202,254,l),
(296,254,ls),
(360,254,o),
(384,236,o),
(390,168,cs),
(404,0,l),
(554,0,l),
(538,194,ls),
(530,290,o),
(472,328,o),
(364,328,c),
(368,314,l),
(470,322,o),
(540,388,o),
(540,496,cs),
(540,627,o),
(450,710,o),
(294,710,cs),
(56,710,l),
(56,0,l)
);
},
{
closed = 1;
nodes = (
(202,580,l),
(286,580,ls),
(348,580,o),
(386,541,o),
(386,482,cs),
(386,424,o),
(348,384,o),
(286,384,cs),
(202,384,l)
);
}
);
};
layerId = "58B1DC7A-69F8-4375-AD2E-AC5103CCF536";
shapes = (
{
closed = 1;
nodes = (
(236,0,l),
(236,239,l),
(266,239,ls),
(332,239,o),
(356,227,o),
(362,138,cs),
(372,0,l),
(554,0,l),
(538,194,ls),
(530,287,o),
(477,328,o),
(364,328,c),
(368,314,l),
(470,322,o),
(540,388,o),
(540,496,cs),
(540,627,o),
(450,710,o),
(294,710,cs),
(56,710,l),
(56,0,l)
);
},
{
closed = 1;
nodes = (
(236,552,l),
(286,552,ls),
(331,552,o),
(356,524,o),
(356,475,cs),
(356,425,o),
(331,397,o),
(286,397,cs),
(236,397,l)
);
}
);
width = 600;
}
);
unicode = 82;
}
{
color = 4;
glyphname = S;
kernLeft = "0";
kernRight = "0";
layers = (
{
anchors = (
{
name = bottom;
pos = (299,0);
},
{
name = top;
pos = (299,710);
}
);
background = {
anchors = (
{
name = bottom;
pos = (299,0);
},
{
name = top;
pos = (299,710);
}
);
shapes = (
{
closed = 1;
nodes = (
(434,-16,o),
(542,56,o),
(542,170,cs),
(542,272,o),
(492,330,o),
(296,382,cs),
(152,420,o),
(107,453,o),
(107,540,cs),
(107,630,o),
(178,694,o),
(291,694,cs),
(417,694,o),
(489,607,o),
(489,505,c),
(523,508,l),
(523,616,o),
(441,726,o),
(293,726,cs),
(156,726,o),
(73,644,o),
(73,542,cs),
(73,430,o),
(142,390,o),
(286,352,cs),
(466,304,o),
(508,253,o),
(508,172,cs),
(508,74,o),
(419,16,o),
(311,16,cs),
(184,16,o),
(91,112,o),
(91,222,c),
(58,219,l),
(58,89,o),
(170,-16,o),
(309,-16,cs)
);
}
);
};
layerId = "EE2FFE84-06F1-4AFB-BBEC-60D09A436D14";
shapes = (
{
closed = 1;
nodes = (
(434,-16,o),
(542,56,o),
(542,170,cs),
(542,272,o),
(492,330,o),
(296,382,cs),
(152,420,o),
(107,453,o),
(107,540,cs),
(107,630,o),
(178,694,o),
(291,694,cs),
(417,694,o),
(489,607,o),
(489,505,c),
(523,508,l),
(523,616,o),
(441,726,o),
(293,726,cs),
(156,726,o),
(73,644,o),
(73,542,cs),
(73,430,o),
(142,390,o),
(286,352,cs),
(466,304,o),
(508,253,o),
(508,172,cs),
(508,74,o),
(419,16,o),
(311,16,cs),
(184,16,o),
(91,112,o),
(91,222,c),
(58,219,l),
(58,89,o),
(170,-16,o),
(309,-16,cs)
);
}
);
width = 600;
},
{
anchors = (
{
name = bottom;
pos = (300,0);
},
{
name = top;
pos = (299,710);
}
);
background = {
anchors = (
{
name = bottom;
pos = (300,0);
},
{
name = top;
pos = (299,710);
}
);
shapes = (
{
closed = 1;
nodes = (
(456,-16,o),
(556,62,o),
(556,174,cs),
(556,292,o),
(494,351,o),
(321,400,cs),
(187,438,o),
(151,461,o),
(151,528,cs),
(151,596,o),
(207,642,o),
(295,642,cs),
(391,642,o),
(441,580,o),
(453,494,c),
(543,500,l),
(527,630,o),
(443,726,o),
(297,726,cs),
(151,726,o),
(61,643,o),
(61,524,cs),
(61,418,o),
(119,370,o),
(267,328,cs),
(432,281,o),
(466,244,o),
(466,176,cs),
(466,107,o),
(412,68,o),
(313,68,cs),
(213,68,o),
(148,127,o),
(134,233,c),
(44,227,l),
(56,83,o),
(161,-16,o),
(311,-16,cs)
);
}
);
};
layerId = "574EE4B9-5C1A-4E7E-9985-C08FACB65BD8";
shapes = (
{
closed = 1;
nodes = (
(456,-16,o),
(556,62,o),
(556,174,cs),
(556,292,o),
(494,351,o),
(321,400,cs),
(187,438,o),
(151,461,o),
(151,528,cs),
(151,596,o),
(207,642,o),
(295,642,cs),
(391,642,o),
(441,580,o),
(453,494,c),
(543,500,l),
(527,630,o),
(443,726,o),
(297,726,cs),
(151,726,o),
(61,643,o),
(61,524,cs),
(61,418,o),
(119,370,o),
(267,328,cs),
(432,281,o),
(466,244,o),
(466,176,cs),
(466,107,o),
(412,68,o),
(313,68,cs),
(213,68,o),
(148,127,o),
(134,233,c),
(44,227,l),
(56,83,o),
(161,-16,o),
(311,-16,cs)
);
}
);
width = 600;
},
{
anchors = (
{
name = bottom;
pos = (307,0);
},
{
name = top;
pos = (305,710);
}
);
background = {
shapes = (
{
closed = 1;
nodes = (
(460,-16,o),
(560,70,o),
(560,190,cs),
(560,314,o),
(493,397,o),
(326,432,cs),
(263,445,o),
(236,470,o),
(236,512,cs),
(236,549,o),
(260,572,o),
(297,572,cs),
(341,572,o),
(366,539,o),
(374,473,c),
(555,480,l),
(537,638,o),
(447,726,o),
(302,726,cs),
(150,726,o),
(52,640,o),
(52,512,cs),
(52,393,o),
(124,320,o),
(270,290,cs),
(341,275,o),
(376,243,o),
(376,196,cs),
(376,160,o),
(349,138,o),
(309,138,cs),
(259,138,o),
(231,174,o),
(219,257,c),
(40,249,l),
(51,79,o),
(145,-16,o),
(304,-16,cs)
);
}
);
};
layerId = "58B1DC7A-69F8-4375-AD2E-AC5103CCF536";
shapes = (
{
closed = 1;
nodes = (
(468,-16,o),
(560,68,o),
(560,206,cs),
(560,314,o),
(512,389,o),
(358,424,cs),
(262,446,o),
(232,470,o),
(232,512,cs),
(232,549,o),
(256,572,o),
(293,572,cs),
(337,572,o),
(366,539,o),
(374,473,c),
(555,480,l),
(547,645,o),
(457,726,o),
(302,726,cs),
(140,726,o),
(52,640,o),
(52,502,cs),
(52,376,o),
(124,324,o),
(262,292,cs),
(348,272,o),
(380,241,o),
(380,196,cs),
(380,158,o),
(353,138,o),
(313,138,cs),
(261,138,o),
(231,174,o),
(219,257,c),
(40,249,l),
(51,79,o),
(133,-16,o),
(302,-16,cs)
);
}
);
width = 600;
}
);
unicode = 83;
}
{
color = 4;
glyphname = T;
kernLeft = "0";
kernRight = "0";
layers = (
{
anchors = (
{
name = bottom;
pos = (300,0);
},
{
name = center;
pos = (300,349);
},
{
name = top;
pos = (300,710);
}
);
background = {
anchors = (
{
name = bottom;
pos = (300,0);
},
{
name = center;
pos = (300,349);
},
{
name = top;
pos = (300,710);
}
);
shapes = (
{
closed = 1;
nodes = (
(316,0,l),
(316,680,l),
(560,680,l),
(560,710,l),
(40,710,l),
(40,680,l),
(284,680,l),
(284,0,l)
);
}
);
};
layerId = "EE2FFE84-06F1-4AFB-BBEC-60D09A436D14";
shapes = (
{
closed = 1;
nodes = (
(316,0,l),
(316,680,l),
(560,680,l),
(560,710,l),
(40,710,l),
(40,680,l),
(284,680,l),
(284,0,l)
);
}
);
width = 600;
},
{
anchors = (
{
name = bottom;
pos = (300,0);
},
{
name = center;
pos = (300,348);
},
{
name = top;
pos = (300,710);
}
);
background = {
anchors = (
{
name = bottom;
pos = (300,0);
},
{
name = center;
pos = (300,348);
},
{
name = top;
pos = (300,710);
}
);
shapes = (
{
closed = 1;
nodes = (
(343,0,l),
(343,628,l),
(560,628,l),
(560,710,l),
(40,710,l),
(40,628,l),
(257,628,l),
(257,0,l)
);
}
);
};
layerId = "574EE4B9-5C1A-4E7E-9985-C08FACB65BD8";
shapes = (
{
closed = 1;
nodes = (
(343,0,l),
(343,626,l),
(560,626,l),
(560,710,l),
(40,710,l),
(40,626,l),
(257,626,l),
(257,0,l)
);
}
);
width = 600;
},
{
anchors = (
{
name = bottom;
pos = (300,0);
},
{
name = center;
pos = (300,312);
},
{
name = top;
pos = (300,710);
}
);
background = {
anchors = (
{
name = bottom;
pos = (300,0);
},
{
name = center;
pos = (300,315);
},
{
name = top;
pos = (300,710);
}
);
shapes = (
{
closed = 1;
nodes = (
(373,0,l),
(373,580,l),
(560,580,l),
(560,710,l),
(40,710,l),
(40,580,l),
(227,580,l),
(227,0,l)
);
}
);
};
layerId = "58B1DC7A-69F8-4375-AD2E-AC5103CCF536";
shapes = (
{
closed = 1;
nodes = (
(390,0,l),
(390,552,l),
(560,552,l),
(560,710,l),
(40,710,l),
(40,552,l),
(210,552,l),
(210,0,l)
);
}
);
width = 600;
}
);
unicode = 84;
}
{
color = 4;
glyphname = U;
kernLeft = "0";
kernRight = "0";
layers = (
{
anchors = (
{
name = bottom;
pos = (300,0);
},
{
name = ogonek;
pos = (386,0);
},
{
name = top;
pos = (300,710);
}
);
background = {
anchors = (
{
name = bottom;
pos = (300,0);
},
{
name = ogonek;
pos = (386,0);
},
{
name = top;
pos = (300,710);
}
);
shapes = (
{
closed = 1;
nodes = (
(441,-16,o),
(520,79,o),
(520,248,cs),
(520,710,l),
(488,710,l),
(488,248,ls),
(488,99,o),
(421,16,o),
(300,16,cs),
(179,16,o),
(112,99,o),
(112,248,cs),
(112,710,l),
(80,710,l),
(80,248,ls),
(80,79,o),
(159,-16,o),
(300,-16,cs)
);
}
);
};
layerId = "EE2FFE84-06F1-4AFB-BBEC-60D09A436D14";
shapes = (
{
closed = 1;
nodes = (
(441,-16,o),
(520,79,o),
(520,248,cs),
(520,710,l),
(488,710,l),
(488,248,ls),
(488,99,o),
(421,16,o),
(300,16,cs),
(179,16,o),
(112,99,o),
(112,248,cs),
(112,710,l),
(80,710,l),
(80,248,ls),
(80,79,o),
(159,-16,o),
(300,-16,cs)
);
}
);
width = 600;
},
{
anchors = (
{
name = bottom;
pos = (300,0);
},
{
name = ogonek;
pos = (394,0);
},
{
name = top;
pos = (300,710);
}
);
background = {
anchors = (
{
name = bottom;
pos = (300,0);
},
{
name = ogonek;
pos = (394,0);
},
{
name = top;
pos = (300,710);
}
);
shapes = (
{
closed = 1;
nodes = (
(450,-16,o),
(540,86,o),
(540,248,cs),
(540,710,l),
(454,710,l),
(454,248,ls),
(454,133,o),
(401,68,o),
(300,68,cs),
(199,68,o),
(146,133,o),
(146,248,cs),
(146,710,l),
(60,710,l),
(60,248,ls),
(60,86,o),
(150,-16,o),
(300,-16,cs)
);
}
);
};
layerId = "574EE4B9-5C1A-4E7E-9985-C08FACB65BD8";
shapes = (
{
closed = 1;
nodes = (
(449,-16,o),
(540,85,o),
(540,248,cs),
(540,710,l),
(454,710,l),
(454,248,ls),
(454,131,o),
(400,68,o),
(300,68,cs),
(200,68,o),
(146,131,o),
(146,248,cs),
(146,710,l),
(60,710,l),
(60,248,ls),
(60,85,o),
(151,-16,o),
(300,-16,cs)
);
}
);
width = 600;
},
{
anchors = (
{
name = bottom;
pos = (300,0);
},
{
name = ogonek;
pos = (396,0);
},
{
name = top;
pos = (300,710);
}
);
background = {
anchors = (
{
name = bottom;
pos = (300,0);
},
{
name = ogonek;
pos = (396,0);
},
{
name = top;
pos = (300,710);
}
);
shapes = (
{
closed = 1;
nodes = (
(460,-16,o),
(550,70,o),
(550,244,cs),
(550,711,l),
(404,711,l),
(404,232,ls),
(404,152,o),
(364,114,o),
(300,114,cs),
(236,114,o),
(196,152,o),
(196,232,cs),
(196,711,l),
(50,711,l),
(50,244,ls),
(50,70,o),
(140,-16,o),
(300,-16,cs)
);
}
);
};
layerId = "58B1DC7A-69F8-4375-AD2E-AC5103CCF536";
shapes = (
{
closed = 1;
nodes = (
(460,-16,o),
(550,70,o),
(550,244,cs),
(550,711,l),
(370,711,l),
(370,224,ls),
(370,170,o),
(345,138,o),
(300,138,cs),
(255,138,o),
(230,170,o),
(230,224,cs),
(230,711,l),
(50,711,l),
(50,244,ls),
(50,70,o),
(140,-16,o),
(300,-16,cs)
);
}
);
width = 600;
}
);
unicode = 85;
}
{
color = 4;
glyphname = V;
kernLeft = "0";
kernRight = "0";
layers = (
{
anchors = (
{
name = bottom;
pos = (300,0);
},
{
name = top;
pos = (300,710);
}
);
background = {
shapes = (
{
closed = 1;
nodes = (
(318,0,l),
(566,710,l),
(534,710,l),
(296,18,l),
(304,18,l),
(66,710,l),
(34,710,l),
(282,0,l)
);
}
);
};
layerId = "EE2FFE84-06F1-4AFB-BBEC-60D09A436D14";
shapes = (
{
closed = 1;
nodes = (
(318,0,l),
(560,710,l),
(528,710,l),
(296,20,l),
(304,20,l),
(72,710,l),
(40,710,l),
(282,0,l)
);
}
);
width = 600;
},
{
anchors = (
{
name = bottom;
pos = (300,0);
},
{
name = top;
pos = (300,710);
}
);
background = {
shapes = (
{
closed = 1;
nodes = (
(356,0,l),
(576,710,l),
(484,710,l),
(288,56,l),
(312,56,l),
(116,710,l),
(24,710,l),
(244,0,l)
);
}
);
};
layerId = "574EE4B9-5C1A-4E7E-9985-C08FACB65BD8";
shapes = (
{
closed = 1;
nodes = (
(356,0,l),
(570,710,l),
(478,710,l),
(288,56,l),
(312,56,l),
(122,710,l),
(30,710,l),
(244,0,l)
);
}
);
width = 600;
},
{
anchors = (
{
name = bottom;
pos = (300,0);
},
{
name = top;
pos = (300,710);
}
);
background = {
shapes = (
{
closed = 1;
nodes = (
(374,0,l),
(586,710,l),
(426,710,l),
(286,200,l),
(314,200,l),
(174,710,l),
(14,710,l),
(226,0,l)
);
}
);
};
layerId = "58B1DC7A-69F8-4375-AD2E-AC5103CCF536";
shapes = (
{
closed = 1;
nodes = (
(384,0,l),
(586,710,l),
(396,710,l),
(270,200,l),
(330,200,l),
(204,710,l),
(14,710,l),
(216,0,l)
);
}
);
width = 600;
}
);
unicode = 86;
}
{
color = 4;
glyphname = W;
kernLeft = "0";
kernRight = "0";
layers = (
{
anchors = (
{
name = bottom;
pos = (300,0);
},
{
name = top;
pos = (300,710);
}
);
background = {
anchors = (
{
name = bottom;
pos = (300,0);
},
{
name = top;
pos = (300,710);
}
);
shapes = (
{
closed = 1;
nodes = (
(200,0,l),
(308,618,l),
(292,618,l),
(400,0,l),
(446,0,l),
(540,710,l),
(508,710,l),
(418,16,l),
(424,16,l),
(318,630,l),
(282,630,l),
(176,16,l),
(182,16,l),
(92,710,l),
(60,710,l),
(154,0,l)
);
}
);
};
layerId = "EE2FFE84-06F1-4AFB-BBEC-60D09A436D14";
shapes = (
{
closed = 1;
nodes = (
(190,0,l),
(308,618,l),
(292,618,l),
(410,0,l),
(456,0,l),
(560,710,l),
(528,710,l),
(428,16,l),
(434,16,l),
(318,630,l),
(282,630,l),
(166,16,l),
(172,16,l),
(72,710,l),
(40,710,l),
(144,0,l)
);
}
);
width = 600;
},
{
anchors = (
{
name = bottom;
pos = (300,0);
},
{
name = top;
pos = (300,710);
}
);
background = {
anchors = (
{
name = bottom;
pos = (300,0);
},
{
name = top;
pos = (300,710);
}
);
shapes = (
{
closed = 1;
nodes = (
(238,0,l),
(314,560,l),
(286,560,l),
(362,0,l),
(492,0,l),
(560,710,l),
(470,710,l),
(414,50,l),
(424,50,l),
(344,630,l),
(256,630,l),
(176,50,l),
(186,50,l),
(130,710,l),
(40,710,l),
(108,0,l)
);
}
);
};
layerId = "574EE4B9-5C1A-4E7E-9985-C08FACB65BD8";
shapes = (
{
closed = 1;
nodes = (
(238,0,l),
(312,560,l),
(288,560,l),
(362,0,l),
(492,0,l),
(570,710,l),
(480,710,l),
(414,50,l),
(424,50,l),
(346,630,l),
(254,630,l),
(176,50,l),
(186,50,l),
(120,710,l),
(30,710,l),
(108,0,l)
);
}
);
width = 600;
},
{
anchors = (
{
name = bottom;
pos = (300,0);
},
{
name = top;
pos = (300,710);
}
);
background = {
anchors = (
{
name = bottom;
pos = (300,0);
},
{
name = top;
pos = (300,710);
}
);
shapes = (
{
closed = 1;
nodes = (
(240,0,l),
(322,460,l),
(278,460,l),
(360,0,l),
(500,0,l),
(580,710,l),
(432,710,l),
(396,280,l),
(402,280,l),
(346,630,l),
(254,630,l),
(198,280,l),
(204,280,l),
(168,710,l),
(20,710,l),
(100,0,l)
);
}
);
};
layerId = "58B1DC7A-69F8-4375-AD2E-AC5103CCF536";
shapes = (
{
closed = 1;
nodes = (
(254,0,l),
(312,360,l),
(288,360,l),
(346,0,l),
(510,0,l),
(580,710,l),
(416,710,l),
(386,230,l),
(402,230,l),
(345,630,l),
(255,630,l),
(198,230,l),
(214,230,l),
(184,710,l),
(20,710,l),
(90,0,l)
);
}
);
width = 600;
}
);
unicode = 87;
}
{
color = 4;
glyphname = X;
kernLeft = "0";
kernRight = "0";
layers = (
{
anchors = (
{
name = bottom;
pos = (300,0);
},
{
name = top;
pos = (300,710);
}
);
background = {
shapes = (
{
closed = 1;
nodes = (
(96,0,l),
(298,338,l),
(504,0,l),
(540,0,l),
(322,358,l),
(532,710,l),
(496,710,l),
(302,382,l),
(104,710,l),
(68,710,l),
(278,362,l),
(60,0,l)
);
}
);
};
guides = (
{
angle = -90;
pos = (529,0);
}
);
layerId = "EE2FFE84-06F1-4AFB-BBEC-60D09A436D14";
shapes = (
{
closed = 1;
nodes = (
(96,0,l),
(299,336,l),
(504,0,l),
(540,0,l),
(322,356,l),
(532,710,l),
(496,710,l),
(302,382,l),
(104,710,l),
(68,710,l),
(279,360,l),
(60,0,l)
);
}
);
width = 600;
},
{
anchors = (
{
name = bottom;
pos = (300,0);
},
{
name = top;
pos = (300,710);
}
);
background = {
shapes = (
{
closed = 1;
nodes = (
(148,0,l),
(299,291,l),
(450,0,l),
(550,0,l),
(354,356,l),
(546,710,l),
(448,710,l),
(301,423,l),
(154,710,l),
(54,710,l),
(246,357,l),
(50,0,l)
);
}
);
};
layerId = "574EE4B9-5C1A-4E7E-9985-C08FACB65BD8";
shapes = (
{
closed = 1;
nodes = (
(148,0,l),
(299,289,l),
(450,0,l),
(550,0,l),
(354,356,l),
(546,710,l),
(448,710,l),
(301,425,l),
(154,710,l),
(54,710,l),
(246,357,l),
(50,0,l)
);
}
);
width = 600;
},
{
anchors = (
{
name = bottom;
pos = (300,0);
},
{
name = top;
pos = (300,710);
}
);
background = {
shapes = (
{
closed = 1;
nodes = (
(196,0,l),
(298,234,l),
(400,0,l),
(570,0,l),
(396,356,l),
(568,710,l),
(402,710,l),
(302,482,l),
(202,710,l),
(32,710,l),
(204,358,l),
(30,0,l)
);
}
);
};
layerId = "58B1DC7A-69F8-4375-AD2E-AC5103CCF536";
shapes = (
{
closed = 1;
nodes = (
(214,0,l),
(298,230,l),
(382,0,l),
(576,0,l),
(424,356,l),
(574,710,l),
(384,710,l),
(302,486,l),
(220,710,l),
(26,710,l),
(176,358,l),
(24,0,l)
);
}
);
width = 600;
}
);
unicode = 88;
}
{
color = 4;
glyphname = Y;
kernLeft = "0";
kernRight = "0";
layers = (
{
anchors = (
{
name = bottom;
pos = (300,0);
},
{
name = top;
pos = (300,710);
}
);
background = {
anchors = (
{
name = bottom;
pos = (300,0);
},
{
name = top;
pos = (300,710);
}
);
shapes = (
{
closed = 1;
nodes = (
(316,0,l),
(316,290,l),
(546,710,l),
(508,710,l),
(300,326,l),
(92,710,l),
(54,710,l),
(284,290,l),
(284,0,l)
);
}
);
};
layerId = "EE2FFE84-06F1-4AFB-BBEC-60D09A436D14";
shapes = (
{
closed = 1;
nodes = (
(316,0,l),
(316,290,l),
(550,710,l),
(512,710,l),
(300,324,l),
(88,710,l),
(50,710,l),
(284,290,l),
(284,0,l)
);
}
);
width = 600;
},
{
anchors = (
{
name = bottom;
pos = (300,0);
},
{
name = top;
pos = (300,710);
}
);
background = {
anchors = (
{
name = bottom;
pos = (300,0);
},
{
name = top;
pos = (300,710);
}
);
shapes = (
{
closed = 1;
nodes = (
(344,0,l),
(344,290,l),
(556,710,l),
(458,710,l),
(300,390,l),
(142,710,l),
(44,710,l),
(258,290,l),
(258,0,l)
);
}
);
};
layerId = "574EE4B9-5C1A-4E7E-9985-C08FACB65BD8";
shapes = (
{
closed = 1;
nodes = (
(344,0,l),
(344,290,l),
(560,710,l),
(462,710,l),
(300,378,l),
(138,710,l),
(40,710,l),
(258,290,l),
(258,0,l)
);
}
);
width = 600;
},
{
anchors = (
{
name = bottom;
pos = (302,0);
},
{
name = top;
pos = (300,710);
}
);
background = {
anchors = (
{
name = bottom;
pos = (302,0);
},
{
name = top;
pos = (300,710);
}
);
shapes = (
{
closed = 1;
nodes = (
(374,0,l),
(374,282,l),
(566,710,l),
(404,710,l),
(300,448,l),
(196,710,l),
(34,710,l),
(228,282,l),
(228,0,l)
);
}
);
};
layerId = "58B1DC7A-69F8-4375-AD2E-AC5103CCF536";
shapes = (
{
closed = 1;
nodes = (
(390,0,l),
(390,300,l),
(576,710,l),
(386,710,l),
(300,486,l),
(214,710,l),
(24,710,l),
(210,300,l),
(210,0,l)
);
}
);
width = 600;
}
);
unicode = 89;
}
{
color = 9;
glyphname = bracketright;
layers = (
{
background = {
shapes = (
{
closed = 1;
nodes = (
(192,-110,l),
(192,750,l),
(39,750,l),
(39,720,l),
(160,720,l),
(160,-80,l),
(39,-80,l),
(39,-110,l)
);
}
);
};
layerId = "EE2FFE84-06F1-4AFB-BBEC-60D09A436D14";
shapes = (
{
closed = 1;
nodes = (
(440,-110,l),
(440,750,l),
(160,750,l),
(160,722,l),
(408,722,l),
(408,-82,l),
(160,-82,l),
(160,-110,l)
);
}
);
width = 600;
},
{
background = {
shapes = (
{
closed = 1;
nodes = (
(356,-110,l),
(356,750,l),
(9,750,l),
(9,594,l),
(170,594,l),
(170,46,l),
(9,46,l),
(9,-110,l)
);
}
);
};
layerId = "58B1DC7A-69F8-4375-AD2E-AC5103CCF536";
shapes = (
{
closed = 1;
nodes = (
(500,-110,l),
(500,750,l),
(100,750,l),
(100,600,l),
(320,600,l),
(320,40,l),
(100,40,l),
(100,-110,l)
);
}
);
width = 600;
},
{
background = {
shapes = (
{
closed = 1;
nodes = (
(255,-110,l),
(255,750,l),
(15,750,l),
(15,674,l),
(175,674,l),
(175,-34,l),
(15,-34,l),
(15,-110,l)
);
}
);
};
layerId = "574EE4B9-5C1A-4E7E-9985-C08FACB65BD8";
shapes = (
{
closed = 1;
nodes = (
(460,-110,l),
(460,750,l),
(140,750,l),
(140,680,l),
(380,680,l),
(380,-40,l),
(140,-40,l),
(140,-110,l)
);
}
);
width = 600;
}
);
unicode = 93;
}
{
color = 4;
glyphname = asciicircum;
layers = (
{
background = {
shapes = (
{
closed = 1;
nodes = (
(94,383,l),
(186,658,l),
(182,658,l),
(274,383,l),
(308,383,l),
(208,673,l),
(160,673,l),
(60,383,l)
);
}
);
};
guides = (
{
pos = (67,383);
}
);
layerId = "EE2FFE84-06F1-4AFB-BBEC-60D09A436D14";
shapes = (
{
closed = 1;
nodes = (
(174,383,l),
(302,695,l),
(298,695,l),
(426,383,l),
(460,383,l),
(324,710,l),
(276,710,l),
(140,383,l)
);
}
);
width = 600;
},
{
background = {
shapes = (
{
closed = 1;
nodes = (
(187,383,l),
(263,611,l),
(222,611,l),
(299,383,l),
(425,383,l),
(325,673,l),
(160,673,l),
(60,383,l)
);
}
);
};
layerId = "58B1DC7A-69F8-4375-AD2E-AC5103CCF536";
shapes = (
{
closed = 1;
nodes = (
(215,373,l),
(321,648,l),
(280,648,l),
(386,373,l),
(520,373,l),
(383,710,l),
(218,710,l),
(80,373,l)
);
}
);
width = 600;
},
{
background = {
shapes = (
{
closed = 1;
nodes = (
(142,383,l),
(219,612,l),
(207,612,l),
(284,383,l),
(366,383,l),
(266,673,l),
(160,673,l),
(60,383,l)
);
}
);
};
layerId = "574EE4B9-5C1A-4E7E-9985-C08FACB65BD8";
shapes = (
{
closed = 1;
nodes = (
(196,373,l),
(306,649,l),
(294,649,l),
(404,373,l),
(490,373,l),
(353,710,l),
(247,710,l),
(110,373,l)
);
}
);
width = 600;
}
);
unicode = 94;
}
{
color = 9;
glyphname = grave;
layers = (
{
layerId = "EE2FFE84-06F1-4AFB-BBEC-60D09A436D14";
shapes = (
{
closed = 1;
nodes = (
(360,500,l),
(282,726,l),
(240,726,l),
(326,500,l)
);
}
);
width = 600;
},
{
layerId = "574EE4B9-5C1A-4E7E-9985-C08FACB65BD8";
shapes = (
{
closed = 1;
nodes = (
(400,500,l),
(326,728,l),
(200,728,l),
(298,500,l)
);
}
);
width = 600;
},
{
layerId = "58B1DC7A-69F8-4375-AD2E-AC5103CCF536";
shapes = (
{
closed = 1;
nodes = (
(440,500,l),
(360,740,l),
(160,740,l),
(270,500,l)
);
}
);
width = 600;
}
);
unicode = 96;
}
{
color = 8;
glyphname = a;
kernLeft = "0";
kernRight = "0";
layers = (
{
anchors = (
{
name = bottom;
pos = (272,0);
},
{
name = ogonek;
pos = (540,0);
},
{
name = top;
pos = (278,530);
}
);
background = {
anchors = (
{
name = bottom;
pos = (272,0);
},
{
name = ogonek;
pos = (540,0);
},
{
name = top;
pos = (278,530);
}
);
shapes = (
{
closed = 1;
nodes = (
(338,-12,o),
(414,51,o),
(438,122,c),
(430,122,l),
(430,20,o),
(458,-2,o),
(506,-2,cs),
(516,-2,o),
(534,-1,o),
(540,0,c),
(540,30,l),
(510,30,ls),
(478,30,o),
(462,43,o),
(462,102,cs),
(462,326,ls),
(462,472,o),
(394,542,o),
(276,542,cs),
(163,542,o),
(91,481,o),
(73,373,c),
(106,370,l),
(121,461,o),
(180,512,o),
(276,512,cs),
(380,512,o),
(432,454,o),
(432,316,c),
(225,276,ls),
(131,258,o),
(64,210,o),
(64,130,cs),
(64,44,o),
(132,-12,o),
(234,-12,cs)
);
},
{
closed = 1;
nodes = (
(146,18,o),
(96,58,o),
(96,132,cs),
(96,196,o),
(150,231,o),
(234,248,cs),
(432,287,l),
(432,204,ls),
(432,98,o),
(352,18,o),
(234,18,cs)
);
}
);
};
layerId = "EE2FFE84-06F1-4AFB-BBEC-60D09A436D14";
shapes = (
{
closed = 1;
nodes = (
(338,-12,o),
(414,51,o),
(438,122,c),
(430,122,l),
(430,20,o),
(458,-2,o),
(506,-2,cs),
(516,-2,o),
(534,-1,o),
(540,0,c),
(540,30,l),
(510,30,ls),
(478,30,o),
(462,43,o),
(462,102,cs),
(462,326,ls),
(462,472,o),
(394,542,o),
(276,542,cs),
(163,542,o),
(91,481,o),
(73,373,c),
(106,370,l),
(121,461,o),
(180,512,o),
(276,512,cs),
(380,512,o),
(432,454,o),
(432,316,c),
(225,276,ls),
(131,258,o),
(64,210,o),
(64,130,cs),
(64,44,o),
(132,-12,o),
(234,-12,cs)
);
},
{
closed = 1;
nodes = (
(146,18,o),
(96,58,o),
(96,132,cs),
(96,196,o),
(150,231,o),
(234,248,cs),
(432,287,l),
(432,204,ls),
(432,98,o),
(352,18,o),
(234,18,cs)
);
}
);
width = 600;
},
{
anchors = (
{
name = bottom;
pos = (279,0);
},
{
name = ogonek;
pos = (550,0);
},
{
name = top;
pos = (284,530);
}
);
background = {
anchors = (
{
name = bottom;
pos = (279,0);
},
{
name = ogonek;
pos = (550,0);
},
{
name = top;
pos = (284,530);
}
);
shapes = (
{
closed = 1;
nodes = (
(322,-12,o),
(402,39,o),
(416,108,c),
(400,108,l),
(402,30,o),
(437,-2,o),
(506,-2,cs),
(522,-2,o),
(542,-1,o),
(550,0,c),
(550,74,l),
(516,74,ls),
(494,74,o),
(484,82,o),
(484,106,cs),
(484,326,ls),
(484,460,o),
(410,542,o),
(282,542,cs),
(162,542,o),
(84,474,o),
(64,374,c),
(153,367,l),
(169,428,o),
(208,462,o),
(282,462,cs),
(358,462,o),
(400,418,o),
(400,328,c),
(222,292,ls),
(106,269,o),
(54,222,o),
(54,132,cs),
(54,46,o),
(130,-12,o),
(230,-12,cs)
);
},
{
closed = 1;
nodes = (
(178,62,o),
(142,90,o),
(142,140,cs),
(142,184,o),
(166,210,o),
(238,224,cs),
(400,256,l),
(400,210,ls),
(400,122,o),
(346,62,o),
(238,62,cs)
);
}
);
};
layerId = "574EE4B9-5C1A-4E7E-9985-C08FACB65BD8";
shapes = (
{
closed = 1;
nodes = (
(322,-12,o),
(402,39,o),
(416,108,c),
(400,108,l),
(402,30,o),
(437,-2,o),
(506,-2,cs),
(522,-2,o),
(542,-1,o),
(550,0,c),
(550,74,l),
(516,74,ls),
(494,74,o),
(484,82,o),
(484,106,cs),
(484,326,ls),
(484,460,o),
(410,542,o),
(282,542,cs),
(162,542,o),
(84,474,o),
(64,374,c),
(153,367,l),
(169,428,o),
(208,462,o),
(282,462,cs),
(358,462,o),
(400,418,o),
(400,328,c),
(222,292,ls),
(106,269,o),
(54,222,o),
(54,132,cs),
(54,46,o),
(130,-12,o),
(230,-12,cs)
);
},
{
closed = 1;
nodes = (
(178,62,o),
(142,90,o),
(142,140,cs),
(142,184,o),
(166,210,o),
(238,224,cs),
(400,256,l),
(400,210,ls),
(400,122,o),
(346,62,o),
(238,62,cs)
);
}
);
width = 600;
},
{
anchors = (
{
name = bottom;
pos = (285,0);
},
{
name = ogonek;
pos = (560,0);
},
{
name = top;
pos = (284,540);
}
);
background = {
anchors = (
{
name = bottom;
pos = (285,0);
},
{
name = ogonek;
pos = (560,0);
},
{
name = top;
pos = (284,540);
}
);
shapes = (
{
closed = 1;
nodes = (
(320,-12,o),
(383,46,o),
(389,122,c),
(375,122,l),
(379,46,o),
(420,-6,o),
(508,-6,cs),
(530,-6,o),
(552,-2,o),
(560,0,c),
(560,120,l),
(536,120,ls),
(510,120,o),
(500,129,o),
(500,158,cs),
(500,326,ls),
(500,470,o),
(423,552,o),
(280,552,cs),
(154,552,o),
(72,482,o),
(52,374,c),
(196,366,l),
(204,406,o),
(230,428,o),
(280,428,cs),
(332,428,o),
(358,400,o),
(358,338,c),
(200,304,ls),
(114,285,o),
(44,236,o),
(44,148,cs),
(44,46,o),
(134,-12,o),
(231,-12,cs)
);
},
{
closed = 1;
nodes = (
(210,106,o),
(192,126,o),
(192,156,cs),
(192,186,o),
(211,203,o),
(244,210,cs),
(358,234,l),
(358,204,ls),
(358,140,o),
(310,106,o),
(252,106,cs)
);
}
);
};
layerId = "58B1DC7A-69F8-4375-AD2E-AC5103CCF536";
shapes = (
{
closed = 1;
nodes = (
(319,-12,o),
(375,46,o),
(381,122,c),
(367,122,l),
(371,46,o),
(420,-6,o),
(508,-6,cs),
(530,-6,o),
(552,-2,o),
(560,0,c),
(560,120,l),
(546,120,ls),
(530,120,o),
(520,129,o),
(520,158,cs),
(520,326,ls),
(520,470,o),
(452,552,o),
(280,552,cs),
(154,552,o),
(64,482,o),
(44,374,c),
(218,366,l),
(222,396,o),
(242,424,o),
(284,424,cs),
(336,424,o),
(350,390,o),
(350,338,c),
(200,304,ls),
(108,283,o),
(40,234,o),
(40,144,cs),
(40,44,o),
(122,-12,o),
(220,-12,cs)
);
},
{
closed = 1;
nodes = (
(229,108,o),
(214,124,o),
(214,150,cs),
(214,182,o),
(227,196,o),
(260,204,cs),
(350,226,l),
(350,204,ls),
(350,140,o),
(315,108,o),
(261,108,cs)
);
}
);
width = 600;
}
);
unicode = 97;
}
{
color = 4;
glyphname = c;
kernLeft = "0";
kernRight = "0";
layers = (
{
anchors = (
{
name = bottom;
pos = (314,0);
},
{
name = top;
pos = (314,530);
}
);
background = {
anchors = (
{
name = bottom;
pos = (314,0);
},
{
name = top;
pos = (314,530);
}
);
shapes = (
{
closed = 1;
nodes = (
(425,-12,o),
(496,67,o),
(520,175,c),
(488,178,l),
(468,78,o),
(403,18,o),
(315,18,cs),
(197,18,o),
(122,113,o),
(122,265,cs),
(122,417,o),
(197,512,o),
(315,512,cs),
(403,512,o),
(462,457,o),
(486,363,c),
(518,365,l),
(492,465,o),
(425,542,o),
(315,542,cs),
(165,542,o),
(90,415,o),
(90,265,cs),
(90,115,o),
(165,-12,o),
(315,-12,cs)
);
}
);
};
layerId = "EE2FFE84-06F1-4AFB-BBEC-60D09A436D14";
shapes = (
{
closed = 1;
nodes = (
(425,-12,o),
(496,67,o),
(520,175,c),
(488,178,l),
(468,78,o),
(403,18,o),
(315,18,cs),
(197,18,o),
(122,113,o),
(122,265,cs),
(122,417,o),
(197,512,o),
(315,512,cs),
(403,512,o),
(462,457,o),
(486,363,c),
(518,365,l),
(492,465,o),
(425,542,o),
(315,542,cs),
(165,542,o),
(90,415,o),
(90,265,cs),
(90,115,o),
(165,-12,o),
(315,-12,cs)
);
}
);
width = 600;
},
{
anchors = (
{
name = bottom;
pos = (313,0);
},
{
name = top;
pos = (313,530);
}
);
background = {
anchors = (
{
name = bottom;
pos = (313,0);
},
{
name = top;
pos = (313,530);
}
);
shapes = (
{
closed = 1;
nodes = (
(432,-12,o),
(518,64,o),
(540,182,c),
(452,188,l),
(436,108,o),
(382,68,o),
(314,68,cs),
(216,68,o),
(158,142,o),
(158,265,cs),
(158,388,o),
(216,462,o),
(314,462,cs),
(382,462,o),
(432,422,o),
(448,352,c),
(536,358,l),
(514,476,o),
(432,542,o),
(314,542,cs),
(166,542,o),
(70,433,o),
(70,265,cs),
(70,97,o),
(166,-12,o),
(314,-12,cs)
);
}
);
};
layerId = "574EE4B9-5C1A-4E7E-9985-C08FACB65BD8";
shapes = (
{
closed = 1;
nodes = (
(432,-12,o),
(518,64,o),
(540,182,c),
(452,188,l),
(436,108,o),
(382,68,o),
(314,68,cs),
(216,68,o),
(158,142,o),
(158,265,cs),
(158,388,o),
(216,462,o),
(314,462,cs),
(382,462,o),
(432,422,o),
(448,352,c),
(536,358,l),
(514,476,o),
(432,542,o),
(314,542,cs),
(166,542,o),
(70,433,o),
(70,265,cs),
(70,97,o),
(166,-12,o),
(314,-12,cs)
);
}
);
width = 600;
},
{
anchors = (
{
name = bottom;
pos = (307,0);
},
{
name = top;
pos = (307,540);
}
);
background = {
anchors = (
{
name = bottom;
pos = (307,0);
},
{
name = top;
pos = (307,540);
}
);
shapes = (
{
closed = 1;
nodes = (
(440,-12,o),
(537,77,o),
(556,210,c),
(408,218,l),
(394,155,o),
(362,114,o),
(306,114,cs),
(238,114,o),
(200,173,o),
(200,270,cs),
(200,367,o),
(240,426,o),
(306,426,cs),
(362,426,o),
(393,386,o),
(408,324,c),
(556,332,l),
(537,463,o),
(438,552,o),
(306,552,cs),
(152,552,o),
(50,442,o),
(50,270,cs),
(50,98,o),
(152,-12,o),
(306,-12,cs)
);
}
);
};
layerId = "58B1DC7A-69F8-4375-AD2E-AC5103CCF536";
shapes = (
{
closed = 1;
nodes = (
(440,-12,o),
(547,77,o),
(562,210,c),
(396,218,l),
(385,164,o),
(354,134,o),
(308,134,cs),
(249,134,o),
(214,186,o),
(214,270,cs),
(214,354,o),
(249,406,o),
(308,406,cs),
(353,406,o),
(384,377,o),
(396,324,c),
(562,332,l),
(547,463,o),
(438,552,o),
(306,552,cs),
(149,552,o),
(38,436,o),
(38,270,cs),
(38,104,o),
(149,-12,o),
(306,-12,cs)
);
}
);
width = 600;
}
);
unicode = 99;
}
{
color = 4;
glyphname = d;
layers = (
{
anchors = (
{
name = bottom;
pos = (300,0);
},
{
name = center;
pos = (442,618);
},
{
name = top;
pos = (300,530);
},
{
name = topright;
pos = (518,530);
}
);
background = {
anchors = (
{
name = bottom;
pos = (300,0);
},
{
name = center;
pos = (300,265);
},
{
name = top;
pos = (300,530);
},
{
name = topright;
pos = (510,530);
}
);
shapes = (
{
pos = (600,0);
ref = b;
scale = (-1,1);
}
);
};
layerId = "EE2FFE84-06F1-4AFB-BBEC-60D09A436D14";
shapes = (
{
closed = 1;
nodes = (
(371,-12,o),
(441,58,o),
(468,143,c),
(465,148,l),
(468,0,l),
(490,0,l),
(490,710,l),
(460,710,l),
(460,386,l),
(463,390,l),
(437,477,o),
(367,542,o),
(276,542,cs),
(140,542,o),
(55,433,o),
(55,265,cs),
(55,95,o),
(140,-12,o),
(276,-12,cs)
);
},
{
closed = 1;
nodes = (
(160,18,o),
(87,113,o),
(87,265,cs),
(87,415,o),
(160,512,o),
(276,512,cs),
(386,512,o),
(460,408,o),
(460,265,cs),
(460,119,o),
(386,18,o),
(276,18,cs)
);
}
);
width = 600;
},
{
anchors = (
{
name = bottom;
pos = (300,0);
},
{
name = center;
pos = (430,616);
},
{
name = top;
pos = (300,530);
},
{
name = topright;
pos = (530,530);
}
);
background = {
anchors = (
{
name = bottom;
pos = (300,0);
},
{
name = center;
pos = (300,265);
},
{
name = top;
pos = (300,530);
},
{
name = topright;
pos = (520,530);
}
);
shapes = (
{
pos = (600,0);
ref = b;
scale = (-1,1);
}
);
};
layerId = "574EE4B9-5C1A-4E7E-9985-C08FACB65BD8";
shapes = (
{
closed = 1;
nodes = (
(351,-12,o),
(417,32,o),
(442,105,c),
(429,120,l),
(434,0,l),
(510,0,l),
(510,710,l),
(426,710,l),
(426,416,l),
(435,437,l),
(417,487,o),
(352,542,o),
(267,542,cs),
(127,542,o),
(40,435,o),
(40,265,cs),
(40,95,o),
(127,-12,o),
(267,-12,cs)
);
},
{
closed = 1;
nodes = (
(183,68,o),
(128,144,o),
(128,265,cs),
(128,388,o),
(183,462,o),
(270,462,cs),
(368,462,o),
(426,388,o),
(426,265,cs),
(426,144,o),
(368,68,o),
(272,68,cs)
);
}
);
width = 600;
},
{
anchors = (
{
name = bottom;
pos = (300,0);
},
{
name = center;
pos = (410,622);
},
{
name = top;
pos = (300,540);
},
{
name = topright;
pos = (550,540);
}
);
background = {
anchors = (
{
name = bottom;
pos = (300,0);
},
{
name = center;
pos = (300,270);
},
{
name = top;
pos = (300,540);
},
{
name = topright;
pos = (540,540);
}
);
shapes = (
{
pos = (600,0);
ref = b;
scale = (-1,1);
}
);
};
layerId = "58B1DC7A-69F8-4375-AD2E-AC5103CCF536";
shapes = (
{
closed = 1;
nodes = (
(322,-12,o),
(376,55,o),
(394,129,c),
(377,157,l),
(384,0,l),
(550,0,l),
(550,710,l),
(380,710,l),
(380,394,l),
(394,418,l),
(380,501,o),
(317,552,o),
(224,552,cs),
(102,552,o),
(20,452,o),
(20,270,cs),
(20,88,o),
(102,-12,o),
(224,-12,cs)
);
},
{
closed = 1;
nodes = (
(223,134,o),
(196,179,o),
(196,270,cs),
(196,361,o),
(223,406,o),
(286,406,cs),
(341,406,o),
(380,360,o),
(380,270,cs),
(380,180,o),
(340,134,o),
(286,134,cs)
);
}
);
width = 600;
}
);
unicode = 100;
}
{
color = 4;
glyphname = e;
layers = (
{
anchors = (
{
name = bottom;
pos = (304,0);
},
{
name = ogonek;
pos = (431,25);
},
{
name = top;
pos = (300,530);
}
);
background = {
anchors = (
{
name = bottom;
pos = (309,0);
},
{
name = ogonek;
pos = (436,25);
},
{
name = top;
pos = (305,530);
}
);
shapes = (
{
closed = 1;
nodes = (
(418,-12,o),
(493,53,o),
(519,143,c),
(486,145,l),
(464,69,o),
(404,18,o),
(310,18,cs),
(192,18,o),
(114,110,o),
(112,260,c),
(530,260,l),
(530,272,ls),
(530,416,o),
(458,542,o),
(306,542,cs),
(156,542,o),
(80,415,o),
(80,265,cs),
(80,115,o),
(158,-12,o),
(310,-12,cs)
);
},
{
closed = 1;
nodes = (
(119,427,o),
(194,512,o),
(306,512,cs),
(426,512,o),
(493,424,o),
(497,288,c),
(112,288,l)
);
}
);
};
layerId = "EE2FFE84-06F1-4AFB-BBEC-60D09A436D14";
shapes = (
{
closed = 1;
nodes = (
(413,-12,o),
(488,53,o),
(514,143,c),
(481,145,l),
(459,69,o),
(399,18,o),
(305,18,cs),
(187,18,o),
(109,110,o),
(107,260,c),
(525,260,l),
(525,272,ls),
(525,416,o),
(453,542,o),
(301,542,cs),
(151,542,o),
(75,415,o),
(75,265,cs),
(75,115,o),
(153,-12,o),
(305,-12,cs)
);
},
{
closed = 1;
nodes = (
(114,427,o),
(189,512,o),
(301,512,cs),
(421,512,o),
(488,424,o),
(492,288,c),
(107,288,l)
);
}
);
width = 600;
},
{
anchors = (
{
name = bottom;
pos = (306,0);
},
{
name = ogonek;
pos = (435,24);
},
{
name = top;
pos = (303,528);
}
);
background = {
anchors = (
{
name = bottom;
pos = (309,0);
},
{
name = ogonek;
pos = (438,24);
},
{
name = top;
pos = (306,528);
}
);
shapes = (
{
closed = 1;
nodes = (
(421,-12,o),
(503,55,o),
(531,150,c),
(441,157,l),
(423,103,o),
(378,68,o),
(309,68,cs),
(217,68,o),
(160,125,o),
(154,239,c),
(540,239,l),
(540,264,ls),
(540,442,o),
(443,542,o),
(305,542,cs),
(159,542,o),
(66,433,o),
(66,265,cs),
(66,97,o),
(159,-12,o),
(309,-12,cs)
);
},
{
closed = 1;
nodes = (
(168,411,o),
(223,462,o),
(305,462,cs),
(383,462,o),
(440,415,o),
(448,313,c),
(154,313,l)
);
}
);
};
layerId = "574EE4B9-5C1A-4E7E-9985-C08FACB65BD8";
shapes = (
{
closed = 1;
nodes = (
(418,-12,o),
(500,55,o),
(528,150,c),
(438,157,l),
(420,103,o),
(375,68,o),
(306,68,cs),
(214,68,o),
(157,125,o),
(151,239,c),
(537,239,l),
(537,264,ls),
(537,442,o),
(440,542,o),
(302,542,cs),
(156,542,o),
(63,433,o),
(63,265,cs),
(63,97,o),
(156,-12,o),
(306,-12,cs)
);
},
{
closed = 1;
nodes = (
(165,411,o),
(220,462,o),
(302,462,cs),
(380,462,o),
(437,415,o),
(445,313,c),
(151,313,l)
);
}
);
width = 600;
},
{
anchors = (
{
name = bottom;
pos = (300,0);
},
{
name = ogonek;
pos = (426,19);
},
{
name = top;
pos = (300,539);
}
);
background = {
anchors = (
{
name = bottom;
pos = (300,0);
},
{
name = ogonek;
pos = (426,19);
},
{
name = top;
pos = (300,539);
}
);
shapes = (
{
closed = 1;
nodes = (
(425,-12,o),
(508,62,o),
(544,170,c),
(396,184,l),
(379,138,o),
(346,114,o),
(300,114,cs),
(245,114,o),
(204,155,o),
(195,238,c),
(556,238,l),
(556,266,ls),
(556,456,o),
(436,552,o),
(300,552,cs),
(150,552,o),
(44,444,o),
(44,270,cs),
(44,98,o),
(149,-12,o),
(300,-12,cs)
);
},
{
closed = 1;
nodes = (
(211,391,o),
(248,426,o),
(300,426,cs),
(352,426,o),
(389,388,o),
(401,326,c),
(199,326,l)
);
}
);
};
layerId = "58B1DC7A-69F8-4375-AD2E-AC5103CCF536";
shapes = (
{
closed = 1;
nodes = (
(426,-12,o),
(508,49,o),
(550,173,c),
(383,184,l),
(372,153,o),
(342,134,o),
(305,134,cs),
(255,134,o),
(219,169,o),
(212,226,c),
(562,226,l),
(562,266,ls),
(562,434,o),
(454,552,o),
(300,552,cs),
(146,552,o),
(38,436,o),
(38,270,cs),
(38,98,o),
(149,-12,o),
(300,-12,cs)
);
},
{
closed = 1;
nodes = (
(221,379,o),
(251,406,o),
(298,406,cs),
(345,406,o),
(375,379,o),
(381,331,c),
(215,331,l)
);
}
);
width = 600;
}
);
unicode = 101;
}
{
color = 4;
glyphname = h;
kernLeft = "0";
kernRight = "0";
layers = (
{
anchors = (
{
name = bottom;
pos = (300,0);
},
{
name = center;
pos = (170,618);
},
{
name = top;
pos = (135,710);
}
);
background = {
anchors = (
{
name = top;
pos = (135,710);
}
);
shapes = (
{
closed = 1;
nodes = (
(150,0,l),
(150,317,ls),
(150,431,o),
(214,512,o),
(324,512,cs),
(434,512,o),
(476,432,o),
(476,317,cs),
(476,0,l),
(506,0,l),
(506,341,ls),
(506,453,o),
(451,542,o),
(332,542,cs),
(236,542,o),
(154,489,o),
(146,385,c),
(150,385,l),
(150,710,l),
(120,710,l),
(120,0,l)
);
}
);
};
layerId = "EE2FFE84-06F1-4AFB-BBEC-60D09A436D14";
shapes = (
{
closed = 1;
nodes = (
(150,0,l),
(150,317,ls),
(150,431,o),
(214,512,o),
(324,512,cs),
(434,512,o),
(476,432,o),
(476,317,cs),
(476,0,l),
(506,0,l),
(506,341,ls),
(506,453,o),
(451,542,o),
(332,542,cs),
(236,542,o),
(154,489,o),
(146,385,c),
(150,385,l),
(150,710,l),
(120,710,l),
(120,0,l)
);
}
);
width = 600;
},
{
anchors = (
{
name = bottom;
pos = (300,0);
},
{
name = center;
pos = (186,616);
},
{
name = top;
pos = (143,710);
}
);
background = {
anchors = (
{
name = top;
pos = (143,710);
}
);
shapes = (
{
closed = 1;
nodes = (
(184,0,l),
(184,316,ls),
(184,414,o),
(240,468,o),
(325,468,cs),
(399,468,o),
(436,419,o),
(436,317,cs),
(436,0,l),
(520,0,l),
(520,341,ls),
(520,459,o),
(457,542,o),
(343,542,cs),
(260,542,o),
(194,503,o),
(174,415,c),
(184,413,l),
(184,710,l),
(100,710,l),
(100,0,l)
);
}
);
};
layerId = "574EE4B9-5C1A-4E7E-9985-C08FACB65BD8";
shapes = (
{
closed = 1;
nodes = (
(184,0,l),
(184,316,ls),
(184,414,o),
(240,468,o),
(325,468,cs),
(399,468,o),
(436,419,o),
(436,317,cs),
(436,0,l),
(520,0,l),
(520,341,ls),
(520,459,o),
(457,542,o),
(343,542,cs),
(260,542,o),
(194,503,o),
(174,415,c),
(184,413,l),
(184,710,l),
(100,710,l),
(100,0,l)
);
}
);
width = 600;
},
{
anchors = (
{
name = bottom;
pos = (300,0);
},
{
name = center;
pos = (200,622);
},
{
name = top;
pos = (160,710);
}
);
background = {
anchors = (
{
name = top;
pos = (164,723);
}
);
shapes = (
{
closed = 1;
nodes = (
(230,0,l),
(230,304,ls),
(230,386,o),
(266,432,o),
(318,432,cs),
(369,432,o),
(392,400,o),
(392,318,cs),
(392,0,l),
(534,0,l),
(534,349,ls),
(534,475,o),
(477,552,o),
(372,552,cs),
(304,552,o),
(245,519,o),
(218,442,c),
(230,427,l),
(230,710,l),
(88,710,l),
(88,0,l)
);
}
);
};
layerId = "58B1DC7A-69F8-4375-AD2E-AC5103CCF536";
shapes = (
{
closed = 1;
nodes = (
(234,0,l),
(234,304,ls),
(234,376,o),
(267,410,o),
(307,410,cs),
(342,410,o),
(366,389,o),
(366,318,cs),
(366,0,l),
(536,0,l),
(536,349,ls),
(536,475,o),
(490,552,o),
(382,552,cs),
(304,552,o),
(249,519,o),
(222,442,c),
(234,427,l),
(234,710,l),
(64,710,l),
(64,0,l)
);
}
);
width = 600;
}
);
unicode = 104;
}
{
color = 4;
glyphname = k;
kernLeft = "0";
kernRight = "0";
layers = (
{
anchors = (
{
name = bottom;
pos = (328,0);
},
{
name = top;
pos = (129,710);
}
);
background = {
anchors = (
{
name = bottom;
pos = (328,0);
},
{
name = top;
pos = (129,710);
}
);
shapes = (
{
closed = 1;
nodes = (
(144,0,l),
(144,156,l),
(275,284,l),
(514,0,l),
(550,0,l),
(295,302,l),
(530,530,l),
(490,530,l),
(144,194,l),
(144,710,l),
(114,710,l),
(114,0,l)
);
}
);
};
layerId = "EE2FFE84-06F1-4AFB-BBEC-60D09A436D14";
shapes = (
{
closed = 1;
nodes = (
(144,0,l),
(144,156,l),
(275,284,l),
(514,0,l),
(550,0,l),
(295,302,l),
(530,530,l),
(490,530,l),
(144,194,l),
(144,710,l),
(114,710,l),
(114,0,l)
);
}
);
width = 600;
},
{
anchors = (
{
name = bottom;
pos = (309,0);
},
{
name = top;
pos = (133,710);
}
);
background = {
anchors = (
{
name = bottom;
pos = (309,0);
},
{
name = top;
pos = (133,710);
}
);
shapes = (
{
closed = 1;
nodes = (
(174,0,l),
(174,138,l),
(278,248,l),
(452,0,l),
(554,0,l),
(335,305,l),
(544,530,l),
(432,530,l),
(174,245,l),
(174,710,l),
(90,710,l),
(90,0,l)
);
}
);
};
layerId = "574EE4B9-5C1A-4E7E-9985-C08FACB65BD8";
shapes = (
{
closed = 1;
nodes = (
(174,0,l),
(174,138,l),
(278,248,l),
(452,0,l),
(554,0,l),
(335,305,l),
(544,530,l),
(432,530,l),
(174,245,l),
(174,710,l),
(90,710,l),
(90,0,l)
);
}
);
width = 600;
},
{
anchors = (
{
name = bottom;
pos = (298,0);
},
{
name = top;
pos = (135,710);
}
);
background = {
anchors = (
{
name = bottom;
pos = (298,0);
},
{
name = top;
pos = (135,710);
}
);
shapes = (
{
closed = 1;
nodes = (
(206,0,l),
(206,148,l),
(264,212,l),
(400,0,l),
(572,0,l),
(356,310,l),
(564,540,l),
(396,540,l),
(206,324,l),
(206,710,l),
(64,710,l),
(64,0,l)
);
}
);
};
layerId = "58B1DC7A-69F8-4375-AD2E-AC5103CCF536";
shapes = (
{
closed = 1;
nodes = (
(210,0,l),
(210,142,l),
(262,200,l),
(390,0,l),
(580,0,l),
(372,308,l),
(572,540,l),
(378,540,l),
(210,340,l),
(210,710,l),
(40,710,l),
(40,0,l)
);
}
);
width = 600;
}
);
unicode = 107;
}
{
color = 4;
glyphname = l;
kernLeft = "0";
kernRight = "0";
layers = (
{
anchors = (
{
name = bottom;
pos = (310,0);
},
{
name = center;
pos = (320,356);
},
{
name = top;
pos = (300,710);
},
{
name = topright;
pos = (400,530);
}
);
background = {
anchors = (
{
name = bottom;
pos = (300,0);
},
{
name = center;
pos = (300,265);
},
{
name = top;
pos = (320,710);
},
{
name = topright;
pos = (400,530);
}
);
shapes = (
{
closed = 1;
nodes = (
(350,0,l),
(350,600,ls),
(350,668,o),
(308,710,o),
(240,710,cs),
(120,710,l),
(120,682,l),
(242,682,ls),
(292,682,o),
(320,654,o),
(320,604,cs),
(320,0,l)
);
},
{
closed = 1;
nodes = (
(540,0,l),
(540,28,l),
(100,28,l),
(100,0,l)
);
}
);
};
layerId = "EE2FFE84-06F1-4AFB-BBEC-60D09A436D14";
name = Thin;
shapes = (
{
closed = 1;
nodes = (
(330,0,l),
(330,600,ls),
(330,668,o),
(288,710,o),
(220,710,cs),
(100,710,l),
(100,682,l),
(222,682,ls),
(272,682,o),
(300,654,o),
(300,604,cs),
(300,0,l)
);
},
{
closed = 1;
nodes = (
(520,0,l),
(520,28,l),
(80,28,l),
(80,0,l)
);
}
);
width = 600;
},
{
anchors = (
{
name = bottom;
pos = (314,0);
},
{
name = center;
pos = (320,397);
},
{
name = top;
pos = (280,710);
},
{
name = topright;
pos = (400,530);
}
);
background = {
anchors = (
{
name = bottom;
pos = (300,0);
},
{
name = center;
pos = (300,265);
},
{
name = top;
pos = (300,710);
},
{
name = topright;
pos = (400,530);
}
);
shapes = (
{
closed = 1;
nodes = (
(377,0,l),
(377,562,ls),
(377,659,o),
(326,710,o),
(229,710,cs),
(100,710,l),
(100,636,l),
(225,636,ls),
(268,636,o),
(293,611,o),
(293,568,cs),
(293,0,l)
);
},
{
closed = 1;
nodes = (
(560,0,l),
(560,74,l),
(80,74,l),
(80,0,l)
);
}
);
};
layerId = "574EE4B9-5C1A-4E7E-9985-C08FACB65BD8";
name = Thin;
shapes = (
{
closed = 1;
nodes = (
(357,0,l),
(357,562,ls),
(357,659,o),
(306,710,o),
(209,710,cs),
(80,710,l),
(80,636,l),
(205,636,ls),
(248,636,o),
(273,611,o),
(273,568,cs),
(273,0,l)
);
},
{
closed = 1;
nodes = (
(540,0,l),
(540,74,l),
(60,74,l),
(60,0,l)
);
}
);
width = 600;
},
{
anchors = (
{
name = bottom;
pos = (312,0);
},
{
name = center;
pos = (310,360);
},
{
name = top;
pos = (280,710);
},
{
name = topright;
pos = (394,540);
}
);
background = {
anchors = (
{
name = bottom;
pos = (330,0);
},
{
name = center;
pos = (330,270);
},
{
name = top;
pos = (300,710);
},
{
name = topright;
pos = (415,540);
}
);
shapes = (
{
closed = 1;
nodes = (
(400,0,l),
(400,520,ls),
(400,647,o),
(337,710,o),
(210,710,cs),
(80,710,l),
(80,590,l),
(200,590,ls),
(238,590,o),
(258,570,o),
(258,532,cs),
(258,0,l)
);
},
{
closed = 1;
nodes = (
(580,0,l),
(580,120,l),
(60,120,l),
(60,0,l)
);
}
);
};
layerId = "58B1DC7A-69F8-4375-AD2E-AC5103CCF536";
name = Thin;
shapes = (
{
closed = 1;
nodes = (
(398,0,l),
(398,520,ls),
(398,647,o),
(335,710,o),
(208,710,cs),
(60,710,l),
(60,580,l),
(170,580,ls),
(208,580,o),
(228,560,o),
(228,522,cs),
(228,0,l)
);
},
{
closed = 1;
nodes = (
(560,0,l),
(560,130,l),
(40,130,l),
(40,0,l)
);
}
);
width = 600;
}
);
unicode = 108;
}
{
color = 4;
glyphname = m;
kernLeft = "0";
kernRight = "0";
layers = (
{
anchors = (
{
name = bottom;
pos = (300,0);
},
{
name = top;
pos = (300,530);
}
);
background = {
anchors = (
{
name = bottom;
pos = (300,0);
},
{
name = top;
pos = (300,530);
}
);
shapes = (
{
closed = 1;
nodes = (
(80,0,l),
(80,340,ls),
(80,433,o),
(130,512,o),
(190,512,cs),
(254,512,o),
(285,448,o),
(285,340,cs),
(285,0,l),
(315,0,l),
(315,340,ls),
(315,436,o),
(367,512,o),
(428,512,cs),
(491,512,o),
(520,464,o),
(520,350,cs),
(520,0,l),
(550,0,l),
(550,354,ls),
(550,484,o),
(512,542,o),
(432,542,cs),
(360,542,o),
(314,482,o),
(298,364,c),
(310,364,l),
(302,482,o),
(266,542,o),
(194,542,cs),
(126,542,o),
(88,487,o),
(72,382,c),
(80,380,l),
(78,530,l),
(50,530,l),
(50,0,l)
);
}
);
};
layerId = "EE2FFE84-06F1-4AFB-BBEC-60D09A436D14";
shapes = (
{
closed = 1;
nodes = (
(80,0,l),
(80,340,ls),
(80,433,o),
(130,512,o),
(190,512,cs),
(254,512,o),
(285,448,o),
(285,340,cs),
(285,0,l),
(315,0,l),
(315,340,ls),
(315,436,o),
(367,512,o),
(428,512,cs),
(491,512,o),
(520,466,o),
(520,352,cs),
(520,0,l),
(550,0,l),
(550,354,ls),
(550,484,o),
(512,542,o),
(432,542,cs),
(360,542,o),
(314,482,o),
(298,364,c),
(310,364,l),
(302,482,o),
(266,542,o),
(194,542,cs),
(126,542,o),
(88,487,o),
(72,382,c),
(80,380,l),
(78,530,l),
(50,530,l),
(50,0,l)
);
}
);
width = 600;
},
{
anchors = (
{
name = bottom;
pos = (303,0);
},
{
name = top;
pos = (326,530);
}
);
background = {
anchors = (
{
name = bottom;
pos = (303,0);
},
{
name = top;
pos = (326,530);
}
);
shapes = (
{
closed = 1;
nodes = (
(124,0,l),
(124,338,ls),
(124,428,o),
(154,468,o),
(196,468,cs),
(240,468,o),
(258,430,o),
(258,340,cs),
(258,0,l),
(342,0,l),
(342,338,ls),
(342,428,o),
(372,468,o),
(414,468,cs),
(456,468,o),
(476,434,o),
(476,340,cs),
(476,0,l),
(560,0,l),
(560,350,ls),
(560,486,o),
(523,542,o),
(438,542,cs),
(374,542,o),
(330,490,o),
(318,408,c),
(328,408,l),
(320,496,o),
(286,542,o),
(224,542,cs),
(163,542,o),
(122,492,o),
(110,414,c),
(120,412,l),
(117,530,l),
(40,530,l),
(40,0,l)
);
}
);
};
layerId = "574EE4B9-5C1A-4E7E-9985-C08FACB65BD8";
shapes = (
{
closed = 1;
nodes = (
(124,0,l),
(124,338,ls),
(124,428,o),
(154,468,o),
(196,468,cs),
(240,468,o),
(258,430,o),
(258,340,cs),
(258,0,l),
(342,0,l),
(342,338,ls),
(342,428,o),
(372,468,o),
(414,468,cs),
(456,468,o),
(476,434,o),
(476,340,cs),
(476,0,l),
(560,0,l),
(560,352,ls),
(560,488,o),
(523,542,o),
(438,542,cs),
(374,542,o),
(330,490,o),
(318,408,c),
(328,408,l),
(320,496,o),
(286,542,o),
(224,542,cs),
(163,542,o),
(122,492,o),
(110,414,c),
(120,412,l),
(117,530,l),
(40,530,l),
(40,0,l)
);
}
);
width = 600;
},
{
anchors = (
{
name = bottom;
pos = (301,0);
},
{
name = top;
pos = (325,540);
}
);
background = {
anchors = (
{
name = bottom;
pos = (301,0);
},
{
name = top;
pos = (325,540);
}
);
shapes = (
{
closed = 1;
nodes = (
(160,0,l),
(160,342,ls),
(160,405,o),
(169,432,o),
(198,432,cs),
(223,432,o),
(230,408,o),
(230,342,cs),
(230,0,l),
(370,0,l),
(370,342,ls),
(370,405,o),
(382,432,o),
(409,432,cs),
(433,432,o),
(440,411,o),
(440,342,cs),
(440,0,l),
(580,0,l),
(580,362,ls),
(580,490,o),
(546,552,o),
(462,552,cs),
(399,552,o),
(359,505,o),
(342,420,c),
(360,420,l),
(346,510,o),
(315,552,o),
(254,552,cs),
(197,552,o),
(146,509,o),
(128,423,c),
(145,419,l),
(139,540,l),
(20,540,l),
(20,0,l)
);
}
);
};
layerId = "58B1DC7A-69F8-4375-AD2E-AC5103CCF536";
shapes = (
{
closed = 1;
nodes = (
(176,0,l),
(176,348,ls),
(176,393,o),
(185,410,o),
(206,410,cs),
(223,410,o),
(230,398,o),
(230,348,cs),
(230,0,l),
(370,0,l),
(370,348,ls),
(370,393,o),
(382,410,o),
(401,410,cs),
(417,410,o),
(424,401,o),
(424,348,cs),
(424,0,l),
(580,0,l),
(580,386,ls),
(580,496,o),
(544,552,o),
(470,552,cs),
(406,552,o),
(358,508,o),
(342,414,c),
(360,414,l),
(348,508,o),
(326,552,o),
(258,552,cs),
(203,552,o),
(166,511,o),
(146,417,c),
(159,413,l),
(153,540,l),
(20,540,l),
(20,0,l)
);
}
);
width = 600;
}
);
unicode = 109;
}
{
color = 4;
glyphname = n;
kernLeft = "0";
kernRight = "0";
layers = (
{
anchors = (
{
name = bottom;
pos = (300,0);
},
{
name = top;
pos = (300,530);
}
);
background = {
anchors = (
{
name = bottom;
pos = (303,0);
},
{
name = top;
pos = (303,530);
}
);
shapes = (
{
closed = 1;
nodes = (
(140,0,l),
(140,317,ls),
(140,431,o),
(205,512,o),
(315,512,cs),
(425,512,o),
(466,431,o),
(466,317,cs),
(466,0,l),
(496,0,l),
(496,341,ls),
(496,453,o),
(441,542,o),
(321,542,cs),
(226,542,o),
(145,488,o),
(135,384,c),
(140,384,l),
(138,530,l),
(110,530,l),
(110,0,l)
);
}
);
};
layerId = "EE2FFE84-06F1-4AFB-BBEC-60D09A436D14";
shapes = (
{
closed = 1;
nodes = (
(134,0,l),
(134,317,ls),
(134,431,o),
(202,512,o),
(312,512,cs),
(422,512,o),
(466,431,o),
(466,317,cs),
(466,0,l),
(496,0,l),
(496,341,ls),
(496,453,o),
(438,542,o),
(318,542,cs),
(223,542,o),
(139,488,o),
(129,384,c),
(134,384,l),
(132,530,l),
(104,530,l),
(104,0,l)
);
}
);
width = 600;
},
{
anchors = (
{
name = bottom;
pos = (300,0);
},
{
name = top;
pos = (300,530);
}
);
background = {
anchors = (
{
name = bottom;
pos = (306,0);
},
{
name = top;
pos = (306,530);
}
);
shapes = (
{
closed = 1;
nodes = (
(180,0,l),
(180,317,ls),
(180,415,o),
(238,468,o),
(320,468,cs),
(400,468,o),
(432,415,o),
(432,317,cs),
(432,0,l),
(516,0,l),
(516,341,ls),
(516,453,o),
(459,542,o),
(338,542,cs),
(255,542,o),
(186,498,o),
(166,404,c),
(176,395,l),
(173,530,l),
(96,530,l),
(96,0,l)
);
}
);
};
layerId = "574EE4B9-5C1A-4E7E-9985-C08FACB65BD8";
shapes = (
{
closed = 1;
nodes = (
(168,0,l),
(168,317,ls),
(168,415,o),
(232,468,o),
(314,468,cs),
(394,468,o),
(432,415,o),
(432,317,cs),
(432,0,l),
(516,0,l),
(516,341,ls),
(516,453,o),
(453,542,o),
(332,542,cs),
(249,542,o),
(174,498,o),
(154,404,c),
(164,395,l),
(161,530,l),
(84,530,l),
(84,0,l)
);
}
);
width = 600;
},
{
anchors = (
{
name = bottom;
pos = (297,0);
},
{
name = top;
pos = (297,540);
}
);
background = {
anchors = (
{
name = bottom;
pos = (308,0);
},
{
name = top;
pos = (308,540);
}
);
shapes = (
{
closed = 1;
nodes = (
(230,0,l),
(230,304,ls),
(230,388,o),
(270,432,o),
(318,432,cs),
(372,432,o),
(392,396,o),
(392,314,cs),
(392,0,l),
(534,0,l),
(534,351,ls),
(534,473,o),
(478,552,o),
(370,552,cs),
(288,552,o),
(222,502,o),
(204,390,c),
(220,386,l),
(215,540,l),
(88,540,l),
(88,0,l)
);
}
);
};
layerId = "58B1DC7A-69F8-4375-AD2E-AC5103CCF536";
shapes = (
{
closed = 1;
nodes = (
(234,0,l),
(234,306,ls),
(234,376,o),
(269,410,o),
(307,410,cs),
(346,410,o),
(366,384,o),
(366,316,cs),
(366,0,l),
(536,0,l),
(536,351,ls),
(536,473,o),
(491,552,o),
(380,552,cs),
(288,552,o),
(226,502,o),
(208,390,c),
(224,386,l),
(219,540,l),
(64,540,l),
(64,0,l)
);
}
);
width = 600;
}
);
unicode = 110;
}
{
color = 4;
glyphname = p;
kernLeft = "0";
kernRight = "0";
layers = (
{
anchors = (
{
name = bottom;
pos = (300,0);
},
{
name = top;
pos = (300,530);
}
);
background = {
shapes = (
{
closed = 1;
nodes = (
(120,-150,l),
(120,173,l),
(113,162,l),
(127,74,o),
(210,-12,o),
(310,-12,cs),
(442,-12,o),
(525,95,o),
(525,265,cs),
(525,435,o),
(442,542,o),
(308,542,cs),
(210,542,o),
(135,476,o),
(109,360,c),
(118,355,l),
(116,530,l),
(90,530,l),
(90,-150,l)
);
},
{
closed = 1;
nodes = (
(200,18,o),
(120,125,o),
(120,265,cs),
(120,405,o),
(198,512,o),
(308,512,cs),
(422,512,o),
(493,417,o),
(493,265,cs),
(493,113,o),
(423,18,o),
(310,18,cs)
);
}
);
};
layerId = "EE2FFE84-06F1-4AFB-BBEC-60D09A436D14";
shapes = (
{
closed = 1;
nodes = (
(120,-150,l),
(120,173,l),
(113,162,l),
(127,74,o),
(210,-12,o),
(310,-12,cs),
(442,-12,o),
(525,95,o),
(525,265,cs),
(525,435,o),
(442,542,o),
(308,542,cs),
(210,542,o),
(135,476,o),
(109,360,c),
(118,355,l),
(116,530,l),
(90,530,l),
(90,-150,l)
);
},
{
closed = 1;
nodes = (
(200,18,o),
(120,125,o),
(120,265,cs),
(120,405,o),
(198,512,o),
(308,512,cs),
(422,512,o),
(493,417,o),
(493,265,cs),
(493,113,o),
(423,18,o),
(310,18,cs)
);
}
);
width = 600;
},
{
anchors = (
{
name = bottom;
pos = (300,0);
},
{
name = top;
pos = (300,530);
}
);
background = {
shapes = (
{
closed = 1;
nodes = (
(164,-150,l),
(164,114,l),
(152,100,l),
(170,32,o),
(240,-12,o),
(322,-12,cs),
(480,-12,o),
(550,119,o),
(550,265,cs),
(550,411,o),
(480,542,o),
(322,542,cs),
(240,542,o),
(174,498,o),
(148,416,c),
(160,410,l),
(158,530,l),
(80,530,l),
(80,-150,l)
);
},
{
closed = 1;
nodes = (
(221,68,o),
(164,135,o),
(164,265,cs),
(164,395,o),
(222,462,o),
(314,462,cs),
(406,462,o),
(462,389,o),
(462,265,cs),
(462,141,o),
(406,68,o),
(314,68,cs)
);
}
);
};
layerId = "574EE4B9-5C1A-4E7E-9985-C08FACB65BD8";
shapes = (
{
closed = 1;
nodes = (
(164,-150,l),
(164,114,l),
(152,100,l),
(170,32,o),
(240,-12,o),
(322,-12,cs),
(480,-12,o),
(550,119,o),
(550,265,cs),
(550,411,o),
(480,542,o),
(322,542,cs),
(240,542,o),
(174,498,o),
(148,416,c),
(160,410,l),
(158,530,l),
(80,530,l),
(80,-150,l)
);
},
{
closed = 1;
nodes = (
(221,68,o),
(164,135,o),
(164,265,cs),
(164,395,o),
(222,462,o),
(314,462,cs),
(406,462,o),
(462,389,o),
(462,265,cs),
(462,141,o),
(406,68,o),
(314,68,cs)
);
}
);
width = 600;
},
{
anchors = (
{
name = bottom;
pos = (300,0);
},
{
name = top;
pos = (300,540);
}
);
background = {
shapes = (
{
closed = 1;
nodes = (
(212,-150,l),
(212,123,l),
(196,110,l),
(230,32,o),
(283,-12,o),
(360,-12,cs),
(487,-12,o),
(562,105,o),
(562,270,cs),
(562,435,o),
(487,552,o),
(360,552,cs),
(276,552,o),
(225,504,o),
(197,428,c),
(211,414,l),
(206,540,l),
(70,540,l),
(70,-150,l)
);
},
{
closed = 1;
nodes = (
(252,114,o),
(212,170,o),
(212,270,cs),
(212,370,o),
(251,426,o),
(314,426,cs),
(377,426,o),
(412,371,o),
(412,270,cs),
(412,169,o),
(377,114,o),
(314,114,cs)
);
}
);
};
layerId = "58B1DC7A-69F8-4375-AD2E-AC5103CCF536";
shapes = (
{
closed = 1;
nodes = (
(210,-150,l),
(210,123,l),
(194,110,l),
(229,24,o),
(281,-12,o),
(368,-12,cs),
(499,-12,o),
(570,105,o),
(570,270,cs),
(570,435,o),
(499,552,o),
(368,552,cs),
(278,552,o),
(226,504,o),
(198,420,c),
(211,414,l),
(206,540,l),
(40,540,l),
(40,-150,l)
);
},
{
closed = 1;
nodes = (
(252,134,o),
(210,174,o),
(210,270,cs),
(210,366,o),
(252,406,o),
(304,406,cs),
(362,406,o),
(394,370,o),
(394,270,cs),
(394,170,o),
(362,134,o),
(304,134,cs)
);
}
);
width = 600;
}
);
unicode = 112;
}
{
color = 4;
glyphname = q;
layers = (
{
anchors = (
{
name = bottom;
pos = (300,0);
},
{
name = top;
pos = (300,530);
}
);
background = {
shapes = (
{
pos = (600,0);
ref = p;
scale = (-1,1);
}
);
};
layerId = "EE2FFE84-06F1-4AFB-BBEC-60D09A436D14";
shapes = (
{
closed = 1;
nodes = (
(510,530,l),
(484,530,l),
(482,355,l),
(491,360,l),
(465,476,o),
(390,542,o),
(292,542,cs),
(158,542,o),
(75,435,o),
(75,265,cs),
(75,95,o),
(158,-12,o),
(290,-12,cs),
(390,-12,o),
(473,74,o),
(487,162,c),
(480,173,l),
(480,-150,l),
(510,-150,l)
);
},
{
closed = 1;
nodes = (
(177,18,o),
(107,113,o),
(107,265,cs),
(107,417,o),
(178,512,o),
(292,512,cs),
(402,512,o),
(480,405,o),
(480,265,cs),
(480,125,o),
(400,18,o),
(290,18,cs)
);
}
);
width = 600;
},
{
anchors = (
{
name = bottom;
pos = (300,0);
},
{
name = top;
pos = (300,530);
}
);
background = {
shapes = (
{
pos = (600,0);
ref = p;
scale = (-1,1);
}
);
};
layerId = "574EE4B9-5C1A-4E7E-9985-C08FACB65BD8";
shapes = (
{
closed = 1;
nodes = (
(520,530,l),
(442,530,l),
(440,410,l),
(452,416,l),
(426,498,o),
(360,542,o),
(278,542,cs),
(120,542,o),
(50,411,o),
(50,265,cs),
(50,119,o),
(120,-12,o),
(278,-12,cs),
(360,-12,o),
(430,32,o),
(448,100,c),
(436,114,l),
(436,-150,l),
(520,-150,l)
);
},
{
closed = 1;
nodes = (
(194,68,o),
(138,141,o),
(138,265,cs),
(138,389,o),
(194,462,o),
(286,462,cs),
(378,462,o),
(436,395,o),
(436,265,cs),
(436,135,o),
(379,68,o),
(286,68,cs)
);
}
);
width = 600;
},
{
anchors = (
{
name = bottom;
pos = (300,0);
},
{
name = top;
pos = (300,540);
}
);
background = {
shapes = (
{
pos = (600,0);
ref = p;
scale = (-1,1);
}
);
};
layerId = "58B1DC7A-69F8-4375-AD2E-AC5103CCF536";
shapes = (
{
closed = 1;
nodes = (
(560,540,l),
(394,540,l),
(389,414,l),
(402,420,l),
(374,504,o),
(322,552,o),
(232,552,cs),
(101,552,o),
(30,435,o),
(30,270,cs),
(30,105,o),
(101,-12,o),
(232,-12,cs),
(319,-12,o),
(371,24,o),
(406,110,c),
(390,123,l),
(390,-150,l),
(560,-150,l)
);
},
{
closed = 1;
nodes = (
(238,134,o),
(206,170,o),
(206,270,cs),
(206,370,o),
(238,406,o),
(296,406,cs),
(348,406,o),
(390,366,o),
(390,270,cs),
(390,174,o),
(348,134,o),
(296,134,cs)
);
}
);
width = 600;
}
);
unicode = 113;
}
{
color = 4;
glyphname = r;
kernLeft = "0";
kernRight = "0";
layers = (
{
anchors = (
{
name = bottom;
pos = (268,0);
},
{
name = top;
pos = (319,530);
}
);
background = {
anchors = (
{
name = bottom;
pos = (268,0);
},
{
name = top;
pos = (319,530);
}
);
shapes = (
{
closed = 1;
nodes = (
(283,0,l),
(283,328,ls),
(283,418,o),
(340,500,o),
(420,500,cs),
(520,500,l),
(520,530,l),
(426,530,ls),
(337,530,o),
(294,476,o),
(270,372,c),
(282,364,l),
(277,530,l),
(253,530,l),
(253,0,l)
);
},
{
closed = 1;
nodes = (
(460,0,l),
(460,28,l),
(100,28,l),
(100,0,l)
);
},
{
closed = 1;
nodes = (
(268,502,l),
(268,530,l),
(100,530,l),
(100,502,l)
);
}
);
};
layerId = "EE2FFE84-06F1-4AFB-BBEC-60D09A436D14";
shapes = (
{
closed = 1;
nodes = (
(283,0,l),
(283,328,ls),
(283,418,o),
(340,500,o),
(420,500,cs),
(520,500,l),
(520,530,l),
(426,530,ls),
(337,530,o),
(294,476,o),
(270,372,c),
(282,364,l),
(277,530,l),
(253,530,l),
(253,0,l)
);
},
{
closed = 1;
nodes = (
(460,0,l),
(460,28,l),
(100,28,l),
(100,0,l)
);
},
{
closed = 1;
nodes = (
(268,502,l),
(268,530,l),
(100,530,l),
(100,502,l)
);
}
);
width = 600;
},
{
anchors = (
{
name = bottom;
pos = (269,0);
},
{
name = top;
pos = (339,530);
}
);
background = {
anchors = (
{
name = bottom;
pos = (269,0);
},
{
name = top;
pos = (339,530);
}
);
shapes = (
{
closed = 1;
nodes = (
(312,0,l),
(312,320,ls),
(312,407,o),
(354,454,o),
(432,454,cs),
(540,454,l),
(540,530,l),
(431,530,ls),
(356,530,o),
(311,488,o),
(298,398,c),
(306,396,l),
(298,530,l),
(228,530,l),
(228,0,l)
);
},
{
closed = 1;
nodes = (
(480,0,l),
(480,74,l),
(90,74,l),
(90,0,l)
);
},
{
closed = 1;
nodes = (
(274,456,l),
(274,530,l),
(90,530,l),
(90,456,l)
);
}
);
};
layerId = "574EE4B9-5C1A-4E7E-9985-C08FACB65BD8";
shapes = (
{
closed = 1;
nodes = (
(312,0,l),
(312,320,ls),
(312,407,o),
(354,454,o),
(432,454,cs),
(540,454,l),
(540,530,l),
(431,530,ls),
(356,530,o),
(311,488,o),
(298,398,c),
(306,396,l),
(298,530,l),
(228,530,l),
(228,0,l)
);
},
{
closed = 1;
nodes = (
(480,0,l),
(480,74,l),
(90,74,l),
(90,0,l)
);
},
{
closed = 1;
nodes = (
(274,456,l),
(274,530,l),
(90,530,l),
(90,456,l)
);
}
);
width = 600;
},
{
anchors = (
{
name = bottom;
pos = (276,0);
},
{
name = top;
pos = (340,540);
}
);
background = {
anchors = (
{
name = bottom;
pos = (276,0);
},
{
name = top;
pos = (340,540);
}
);
shapes = (
{
closed = 1;
nodes = (
(344,0,l),
(344,310,ls),
(344,382,o),
(376,416,o),
(450,416,cs),
(560,416,l),
(560,540,l),
(430,540,ls),
(350,540,o),
(302,490,o),
(292,404,c),
(302,406,l),
(290,540,l),
(202,540,l),
(202,0,l)
);
},
{
closed = 1;
nodes = (
(500,0,l),
(500,120,l),
(80,120,l),
(80,0,l)
);
},
{
closed = 1;
nodes = (
(274,420,l),
(274,540,l),
(80,540,l),
(80,420,l)
);
}
);
};
layerId = "58B1DC7A-69F8-4375-AD2E-AC5103CCF536";
shapes = (
{
closed = 1;
nodes = (
(352,0,l),
(352,300,ls),
(352,372,o),
(384,406,o),
(458,406,cs),
(570,406,l),
(570,540,l),
(442,540,ls),
(352,540,o),
(314,490,o),
(304,394,c),
(314,396,l),
(302,540,l),
(182,540,l),
(182,0,l)
);
},
{
closed = 1;
nodes = (
(512,0,l),
(512,130,l),
(60,130,l),
(60,0,l)
);
},
{
closed = 1;
nodes = (
(286,410,l),
(286,540,l),
(60,540,l),
(60,410,l)
);
}
);
width = 600;
}
);
unicode = 114;
}
{
color = 4;
glyphname = v;
kernLeft = "0";
kernRight = "0";
layers = (
{
anchors = (
{
name = bottom;
pos = (300,0);
},
{
name = top;
pos = (300,530);
}
);
background = {
shapes = (
{
closed = 1;
nodes = (
(319,0,l),
(516,530,l),
(484,530,l),
(300,28,l),
(116,530,l),
(84,530,l),
(281,0,l)
);
}
);
};
layerId = "EE2FFE84-06F1-4AFB-BBEC-60D09A436D14";
shapes = (
{
closed = 1;
nodes = (
(319,0,l),
(520,530,l),
(488,530,l),
(300,28,l),
(112,530,l),
(80,530,l),
(281,0,l)
);
}
);
width = 600;
},
{
anchors = (
{
name = bottom;
pos = (300,0);
},
{
name = top;
pos = (300,530);
}
);
background = {
shapes = (
{
closed = 1;
nodes = (
(353,0,l),
(546,530,l),
(454,530,l),
(300,86,l),
(146,530,l),
(54,530,l),
(247,0,l)
);
}
);
};
layerId = "574EE4B9-5C1A-4E7E-9985-C08FACB65BD8";
shapes = (
{
closed = 1;
nodes = (
(353,0,l),
(550,530,l),
(458,530,l),
(300,86,l),
(142,530,l),
(50,530,l),
(247,0,l)
);
}
);
width = 600;
},
{
anchors = (
{
name = bottom;
pos = (300,0);
},
{
name = top;
pos = (300,540);
}
);
background = {
shapes = (
{
closed = 1;
nodes = (
(388,0,l),
(566,540,l),
(414,540,l),
(300,158,l),
(186,540,l),
(34,540,l),
(212,0,l)
);
}
);
};
layerId = "58B1DC7A-69F8-4375-AD2E-AC5103CCF536";
shapes = (
{
closed = 1;
nodes = (
(402,0,l),
(574,540,l),
(396,540,l),
(300,190,l),
(204,540,l),
(26,540,l),
(198,0,l)
);
}
);
width = 600;
}
);
unicode = 118;
}
{
color = 4;
glyphname = x;
kernLeft = "0";
kernRight = "0";
layers = (
{
anchors = (
{
name = bottom;
pos = (300,0);
},
{
name = top;
pos = (300,530);
}
);
background = {
shapes = (
{
closed = 1;
nodes = (
(118,0,l),
(302,249,l),
(483,0,l),
(518,0,l),
(320,266,l),
(511,530,l),
(475,530,l),
(300,284,l),
(124,530,l),
(89,530,l),
(280,266,l),
(82,0,l)
);
}
);
};
layerId = "EE2FFE84-06F1-4AFB-BBEC-60D09A436D14";
shapes = (
{
closed = 1;
nodes = (
(118,0,l),
(302,249,l),
(483,0,l),
(518,0,l),
(320,266,l),
(511,530,l),
(475,530,l),
(300,284,l),
(124,530,l),
(89,530,l),
(280,266,l),
(82,0,l)
);
}
);
width = 600;
},
{
anchors = (
{
name = bottom;
pos = (300,0);
},
{
name = top;
pos = (300,530);
}
);
background = {
shapes = (
{
closed = 1;
nodes = (
(154,0,l),
(301,214,l),
(448,0,l),
(546,0,l),
(353,270,l),
(537,530,l),
(437,530,l),
(301,330,l),
(162,530,l),
(64,530,l),
(249,272,l),
(54,0,l)
);
}
);
};
layerId = "574EE4B9-5C1A-4E7E-9985-C08FACB65BD8";
shapes = (
{
closed = 1;
nodes = (
(154,0,l),
(301,214,l),
(448,0,l),
(546,0,l),
(353,270,l),
(537,530,l),
(437,530,l),
(301,330,l),
(162,530,l),
(64,530,l),
(249,272,l),
(54,0,l)
);
}
);
width = 600;
},
{
anchors = (
{
name = bottom;
pos = (300,0);
},
{
name = top;
pos = (300,540);
}
);
background = {
shapes = (
{
closed = 1;
nodes = (
(197,0,l),
(300,162,l),
(402,0,l),
(574,0,l),
(384,276,l),
(565,540,l),
(393,540,l),
(300,392,l),
(206,540,l),
(34,540,l),
(218,276,l),
(26,0,l)
);
}
);
};
layerId = "58B1DC7A-69F8-4375-AD2E-AC5103CCF536";
shapes = (
{
closed = 1;
nodes = (
(200,0,l),
(300,162,l),
(400,0,l),
(580,0,l),
(394,276,l),
(571,540,l),
(391,540,l),
(300,392,l),
(208,540,l),
(28,540,l),
(208,276,l),
(20,0,l)
);
}
);
width = 600;
}
);
unicode = 120;
}
{
color = 4;
glyphname = y;
kernLeft = "0";
kernRight = "0";
layers = (
{
anchors = (
{
name = bottom;
pos = (300,0);
},
{
name = top;
pos = (310,530);
}
);
background = {
anchors = (
{
name = top;
pos = (310,530);
}
);
shapes = (
{
closed = 1;
nodes = (
(183,-150,ls),
(252,-150,o),
(281,-127,o),
(305,-64,cs),
(528,530,l),
(496,530,l),
(310,30,l),
(110,530,l),
(78,530,l),
(288,10,l),
(304,10,l),
(281,-52,ls),
(261,-106,o),
(240,-122,o),
(183,-122,cs),
(143,-122,l),
(143,-150,l)
);
}
);
};
layerId = "EE2FFE84-06F1-4AFB-BBEC-60D09A436D14";
shapes = (
{
closed = 1;
nodes = (
(183,-150,ls),
(252,-150,o),
(281,-127,o),
(305,-64,cs),
(528,530,l),
(496,530,l),
(310,30,l),
(110,530,l),
(78,530,l),
(288,10,l),
(304,10,l),
(281,-52,ls),
(261,-106,o),
(240,-122,o),
(183,-122,cs),
(143,-122,l),
(143,-150,l)
);
}
);
width = 600;
},
{
anchors = (
{
name = bottom;
pos = (300,0);
},
{
name = top;
pos = (303,530);
}
);
background = {
anchors = (
{
name = top;
pos = (303,530);
}
);
shapes = (
{
closed = 1;
nodes = (
(207,-150,ls),
(278,-150,o),
(315,-124,o),
(335,-67,cs),
(550,530,l),
(458,530,l),
(307,88,l),
(146,530,l),
(54,530,l),
(251,10,l),
(280,10,l),
(261,-40,ls),
(251,-65,o),
(236,-76,o),
(199,-76,cs),
(138,-76,l),
(138,-150,l)
);
}
);
};
layerId = "574EE4B9-5C1A-4E7E-9985-C08FACB65BD8";
shapes = (
{
closed = 1;
nodes = (
(207,-150,ls),
(278,-150,o),
(315,-124,o),
(335,-67,cs),
(550,530,l),
(458,530,l),
(307,88,l),
(146,530,l),
(54,530,l),
(251,10,l),
(280,10,l),
(261,-40,ls),
(251,-65,o),
(236,-76,o),
(199,-76,cs),
(138,-76,l),
(138,-150,l)
);
}
);
width = 600;
},
{
anchors = (
{
name = bottom;
pos = (300,0);
},
{
name = top;
pos = (304,540);
}
);
background = {
anchors = (
{
name = top;
pos = (304,540);
}
);
shapes = (
{
closed = 1;
nodes = (
(198,-150,ls),
(284,-150,o),
(340,-120,o),
(370,-34,cs),
(572,540,l),
(420,540,l),
(306,180,l),
(184,540,l),
(32,540,l),
(216,40,l),
(256,40,l),
(242,6,ls),
(230,-23,o),
(213,-30,o),
(180,-30,cs),
(100,-30,l),
(100,-150,l)
);
}
);
};
layerId = "58B1DC7A-69F8-4375-AD2E-AC5103CCF536";
shapes = (
{
closed = 1;
nodes = (
(198,-150,ls),
(288,-150,o),
(350,-120,o),
(380,-34,cs),
(580,540,l),
(406,540,l),
(306,214,l),
(194,540,l),
(20,540,l),
(202,50,l),
(254,50,l),
(242,16,ls),
(232,-13,o),
(213,-20,o),
(180,-20,cs),
(100,-20,l),
(100,-150,l)
);
}
);
width = 600;
}
);
unicode = 121;
}
{
color = 9;
glyphname = braceleft;
layers = (
{
background = {
shapes = (
{
closed = 1;
nodes = (
(338,-113,l),
(338,-83,l),
(243,-83,o),
(192,-29,o),
(192,57,cs),
(192,149,ls),
(192,244,o),
(147,312,o),
(82,319,c),
(82,320,l),
(146,327,o),
(192,394,o),
(192,488,cs),
(192,580,ls),
(192,666,o),
(243,720,o),
(338,720,c),
(338,750,l),
(324,750,ls),
(223,750,o),
(160,684,o),
(160,578,cs),
(160,488,ls),
(160,393,o),
(113,334,o),
(50,334,c),
(50,303,l),
(113,303,o),
(160,244,o),
(160,149,cs),
(160,59,ls),
(160,-47,o),
(223,-113,o),
(324,-113,cs)
);
}
);
};
layerId = "EE2FFE84-06F1-4AFB-BBEC-60D09A436D14";
shapes = (
{
closed = 1;
nodes = (
(480,-114,l),
(480,-84,l),
(430,-84,ls),
(342,-84,o),
(298,-22,o),
(298,56,cs),
(298,148,ls),
(298,253,o),
(255,309,o),
(187,316,c),
(187,320,l),
(254,327,o),
(298,384,o),
(298,488,cs),
(298,580,ls),
(298,661,o),
(342,720,o),
(430,720,cs),
(480,720,l),
(480,750,l),
(430,750,ls),
(329,750,o),
(266,686,o),
(266,580,cs),
(266,488,ls),
(266,383,o),
(230,334,o),
(120,334,c),
(120,302,l),
(230,302,o),
(266,253,o),
(266,148,cs),
(266,56,ls),
(266,-50,o),
(329,-114,o),
(430,-114,cs)
);
}
);
width = 600;
},
{
background = {
shapes = (
{
closed = 1;
nodes = (
(410,-132,l),
(410,25,l),
(342,22,o),
(307,52,o),
(307,109,cs),
(307,154,ls),
(307,244,o),
(242,308,o),
(149,312,c),
(149,321,l),
(241,325,o),
(307,389,o),
(307,479,cs),
(307,524,ls),
(307,577,o),
(342,603,o),
(410,601,c),
(410,764,l),
(363,764,ls),
(221,764,o),
(122,681,o),
(122,564,cs),
(122,481,ls),
(122,399,o),
(100,386,o),
(40,387,c),
(40,246,l),
(100,246,o),
(122,233,o),
(122,152,cs),
(122,69,ls),
(122,-48,o),
(221,-132,o),
(363,-132,cs)
);
}
);
};
layerId = "58B1DC7A-69F8-4375-AD2E-AC5103CCF536";
shapes = (
{
closed = 1;
nodes = (
(500,-132,l),
(500,18,l),
(446,18,ls),
(396,18,o),
(372,38,o),
(372,98,cs),
(372,163,ls),
(372,253,o),
(307,307,o),
(224,311,c),
(224,321,l),
(306,325,o),
(372,379,o),
(372,469,cs),
(372,534,ls),
(372,582,o),
(394,614,o),
(446,614,cs),
(500,614,l),
(500,764,l),
(406,764,ls),
(266,764,o),
(202,681,o),
(202,564,cs),
(202,481,ls),
(202,401,o),
(175,390,o),
(100,391,c),
(100,241,l),
(175,241,o),
(202,230,o),
(202,151,cs),
(202,68,ls),
(202,-49,o),
(266,-132,o),
(406,-132,cs)
);
}
);
width = 600;
},
{
background = {
shapes = (
{
closed = 1;
nodes = (
(374,-115,l),
(374,-37,l),
(268,-40,o),
(228,-14,o),
(228,55,cs),
(228,147,ls),
(228,238,o),
(179,304,o),
(106,318,c),
(106,319,l),
(177,333,o),
(228,398,o),
(228,488,cs),
(228,580,ls),
(228,650,o),
(268,676,o),
(374,672,c),
(374,750,l),
(328,750,ls),
(222,750,o),
(148,679,o),
(148,578,cs),
(148,495,ls),
(148,413,o),
(105,357,o),
(45,359,c),
(45,276,l),
(105,278,o),
(148,222,o),
(148,140,cs),
(148,57,ls),
(148,-44,o),
(222,-115,o),
(328,-115,cs)
);
}
);
};
layerId = "574EE4B9-5C1A-4E7E-9985-C08FACB65BD8";
shapes = (
{
closed = 1;
nodes = (
(490,-120,l),
(490,-42,l),
(403,-42,ls),
(342,-42,o),
(320,-11,o),
(320,50,cs),
(320,142,ls),
(320,242,o),
(288,302,o),
(190,312,c),
(190,318,l),
(288,328,o),
(320,388,o),
(320,488,cs),
(320,580,ls),
(320,641,o),
(342,672,o),
(403,672,cs),
(490,672,l),
(490,750,l),
(402,750,ls),
(286,750,o),
(240,679,o),
(240,578,cs),
(240,474,ls),
(240,388,o),
(218,356,o),
(110,356,c),
(110,274,l),
(218,274,o),
(240,242,o),
(240,156,cs),
(240,52,ls),
(240,-49,o),
(286,-120,o),
(402,-120,cs)
);
}
);
width = 600;
}
);
unicode = 123;
}
{
color = 4;
glyphname = asciitilde;
layers = (
{
background = {
shapes = (
{
closed = 1;
nodes = (
(397,263,o),
(437,312,o),
(442,398,c),
(410,398,l),
(407,340,o),
(377,295,o),
(329,295,cs),
(298,295,o),
(277,314,o),
(246,350,cs),
(216,384,o),
(186,404,o),
(150,404,cs),
(85,404,o),
(45,355,o),
(40,268,c),
(72,268,l),
(75,327,o),
(104,372,o),
(153,372,cs),
(181,372,o),
(205,351,o),
(235,317,cs),
(262,286,o),
(299,263,o),
(332,263,cs)
);
}
);
};
guides = (
{
angle = 270;
pos = (507,235);
},
{
pos = (107,245);
},
{
pos = (432,421);
}
);
layerId = "EE2FFE84-06F1-4AFB-BBEC-60D09A436D14";
name = Regular;
shapes = (
{
closed = 1;
nodes = (
(456,263,o),
(496,312,o),
(501,398,c),
(469,398,l),
(466,336,o),
(435,293,o),
(390,293,cs),
(363,293,o),
(343,304,o),
(305,348,cs),
(275,382,o),
(247,404,o),
(207,404,cs),
(144,404,o),
(104,355,o),
(99,268,c),
(131,268,l),
(134,331,o),
(165,374,o),
(207,374,cs),
(241,374,o),
(258,358,o),
(293,318,cs),
(327,280,o),
(353,263,o),
(391,263,cs)
);
}
);
width = 600;
},
{
background = {
shapes = (
{
closed = 1;
nodes = (
(430,242,o),
(483,309,o),
(483,421,c),
(358,421,l),
(358,380,o),
(349,356,o),
(326,356,cs),
(309,356,o),
(299,366,o),
(281,384,cs),
(252,412,o),
(222,424,o),
(186,424,cs),
(94,424,o),
(40,357,o),
(40,245,c),
(166,245,l),
(166,286,o),
(176,310,o),
(198,310,cs),
(216,310,o),
(226,298,o),
(246,279,cs),
(274,252,o),
(304,242,o),
(338,242,cs)
);
}
);
};
layerId = "58B1DC7A-69F8-4375-AD2E-AC5103CCF536";
name = Regular;
shapes = (
{
closed = 1;
nodes = (
(468,242,o),
(522,308,o),
(522,421,c),
(397,421,l),
(397,377,o),
(387,356,o),
(365,356,cs),
(351,356,o),
(343,361,o),
(320,384,cs),
(292,411,o),
(262,424,o),
(225,424,cs),
(133,424,o),
(79,357,o),
(79,245,c),
(205,245,l),
(205,288,o),
(216,310,o),
(237,310,cs),
(251,310,o),
(256,307,o),
(285,279,cs),
(311,254,o),
(340,242,o),
(377,242,cs)
);
}
);
width = 600;
},
{
background = {
shapes = (
{
closed = 1;
nodes = (
(432,236,o),
(483,313,o),
(483,420,c),
(404,420,l),
(404,355,o),
(388,313,o),
(349,313,cs),
(316,313,o),
(299,339,o),
(279,366,cs),
(256,398,o),
(229,430,o),
(170,430,cs),
(91,430,o),
(40,353,o),
(40,246,c),
(119,246,l),
(119,311,o),
(135,353,o),
(173,353,cs),
(211,353,o),
(227,319,o),
(253,288,cs),
(274,261,o),
(302,236,o),
(352,236,cs)
);
}
);
};
layerId = "574EE4B9-5C1A-4E7E-9985-C08FACB65BD8";
name = Regular;
shapes = (
{
closed = 1;
nodes = (
(469,236,o),
(522,310,o),
(522,420,c),
(443,420,l),
(443,350,o),
(424,313,o),
(390,313,cs),
(364,313,o),
(353,321,o),
(318,366,cs),
(283,411,o),
(260,430,o),
(209,430,cs),
(132,430,o),
(79,355,o),
(79,246,c),
(158,246,l),
(158,316,o),
(177,353,o),
(212,353,cs),
(234,353,o),
(242,349,o),
(283,299,cs),
(323,251,o),
(344,236,o),
(391,236,cs)
);
}
);
width = 600;
}
);
unicode = 126;
}
{
color = 4;
glyphname = cent;
kernLeft = "0";
kernRight = "0";
layers = (
{
layerId = "EE2FFE84-06F1-4AFB-BBEC-60D09A436D14";
shapes = (
{
closed = 1;
nodes = (
(286,-16,l),
(349,726,l),
(319,726,l),
(256,-16,l)
);
},
{
pos = (-5,86);
ref = c;
}
);
width = 600;
},
{
layerId = "574EE4B9-5C1A-4E7E-9985-C08FACB65BD8";
shapes = (
{
closed = 1;
nodes = (
(296,-12,l),
(359,726,l),
(289,726,l),
(226,-12,l)
);
},
{
alignment = -1;
pos = (-5,90);
ref = c;
}
);
width = 600;
},
{
layerId = "58B1DC7A-69F8-4375-AD2E-AC5103CCF536";
shapes = (
{
closed = 1;
nodes = (
(318,-12,l),
(381,725,l),
(301,725,l),
(238,-12,l)
);
},
{
alignment = -1;
pos = (0,83);
ref = c;
}
);
width = 600;
}
);
unicode = 162;
}
{
color = 4;
glyphname = sterling;
layers = (
{
background = {
shapes = (
{
closed = 1;
nodes = (
(554,0,l),
(554,30,l),
(91,30,l),
(206,90,o),
(249,241,o),
(223,339,c),
(417,339,l),
(417,369,l),
(217,369,l),
(194,442,o),
(184,483,o),
(184,515,cs),
(184,620,o),
(246,694,o),
(335,694,cs),
(438,694,o),
(491,633,o),
(501,555,c),
(534,559,l),
(524,657,o),
(452,726,o),
(335,726,cs),
(232,726,o),
(151,639,o),
(151,529,cs),
(151,495,o),
(158,457,o),
(173,411,c),
(185,369,l),
(56,369,l),
(56,339,l),
(192,339,l),
(195,317,o),
(197,297,o),
(197,278,cs),
(197,186,o),
(139,86,o),
(57,36,c),
(57,0,l)
);
}
);
};
layerId = "EE2FFE84-06F1-4AFB-BBEC-60D09A436D14";
shapes = (
{
closed = 1;
nodes = (
(550,0,l),
(550,30,l),
(94,30,l),
(193,102,o),
(233,207,o),
(218,339,c),
(412,339,l),
(412,369,l),
(212,369,l),
(188,436,o),
(179,485,o),
(179,527,cs),
(179,620,o),
(239,694,o),
(330,694,cs),
(436,694,o),
(485,638,o),
(496,545,c),
(529,549,l),
(519,659,o),
(454,726,o),
(330,726,cs),
(219,726,o),
(146,639,o),
(146,529,cs),
(146,468,o),
(162,430,o),
(180,369,c),
(50,369,l),
(50,339,l),
(186,339,l),
(190,317,o),
(192,297,o),
(192,269,cs),
(192,169,o),
(132,86,o),
(50,29,c),
(50,0,l)
);
}
);
width = 600;
},
{
background = {
shapes = (
{
closed = 1;
nodes = (
(627,3,l),
(627,160,l),
(250,160,l),
(309,185,o),
(345,243,o),
(350,306,c),
(479,306,l),
(479,392,l),
(342,392,l),
(327,438,o),
(303,460,o),
(303,506,cs),
(303,544,o),
(332,569,o),
(366,569,cs),
(399,569,o),
(423,548,o),
(428,508,c),
(639,515,l),
(616,647,o),
(521,726,o),
(366,726,cs),
(214,726,o),
(113,647,o),
(113,529,cs),
(113,499,o),
(122,455,o),
(136,411,cs),
(142,392,l),
(46,392,l),
(46,306,l),
(160,306,l),
(161,297,o),
(161,287,o),
(161,278,cs),
(161,219,o),
(125,164,o),
(47,132,c),
(47,0,l)
);
}
);
};
layerId = "58B1DC7A-69F8-4375-AD2E-AC5103CCF536";
shapes = (
{
closed = 1;
nodes = (
(568,3,l),
(568,160,l),
(214,160,l),
(269,185,o),
(301,243,o),
(306,306,c),
(435,306,l),
(435,392,l),
(298,392,l),
(284,429,o),
(259,467,o),
(259,506,cs),
(259,542,o),
(286,569,o),
(322,569,cs),
(356,569,o),
(379,547,o),
(384,508,c),
(580,515,l),
(560,650,o),
(473,726,o),
(322,726,cs),
(175,726,o),
(83,639,o),
(83,520,cs),
(83,484,o),
(96,442,o),
(116,392,c),
(20,392,l),
(20,306,l),
(134,306,l),
(136,297,o),
(138,284,o),
(138,273,cs),
(138,216,o),
(99,164,o),
(21,132,c),
(21,0,l)
);
}
);
width = 600;
},
{
background = {
shapes = (
{
closed = 1;
nodes = (
(549,3,l),
(549,87,l),
(128,87,l),
(222,130,o),
(260,222,o),
(251,317,c),
(412,317,l),
(412,391,l),
(234,391,l),
(218,444,o),
(208,484,o),
(208,515,cs),
(208,589,o),
(268,642,o),
(334,642,cs),
(392,642,o),
(443,609,o),
(460,553,c),
(560,560,l),
(545,643,o),
(472,726,o),
(330,726,cs),
(213,726,o),
(119,641,o),
(119,529,cs),
(119,495,o),
(127,457,o),
(142,411,c),
(148,391,l),
(51,391,l),
(51,317,l),
(165,317,l),
(166,303,o),
(167,290,o),
(167,278,cs),
(167,194,o),
(127,132,o),
(52,87,c),
(52,0,l)
);
}
);
};
layerId = "574EE4B9-5C1A-4E7E-9985-C08FACB65BD8";
shapes = (
{
closed = 1;
nodes = (
(542,0,l),
(542,87,l),
(132,87,l),
(216,130,o),
(240,198,o),
(240,317,c),
(406,317,l),
(406,391,l),
(228,391,l),
(212,444,o),
(202,484,o),
(202,515,cs),
(202,589,o),
(252,642,o),
(328,642,cs),
(386,642,o),
(437,609,o),
(454,543,c),
(554,550,l),
(539,643,o),
(473,726,o),
(324,726,cs),
(203,726,o),
(113,641,o),
(113,529,cs),
(113,488,o),
(125,443,o),
(142,391,c),
(46,391,l),
(46,317,l),
(159,317,l),
(161,303,o),
(163,290,o),
(163,278,cs),
(163,194,o),
(121,127,o),
(46,82,c),
(46,0,l)
);
}
);
width = 600;
}
);
unicode = 163;
}
{
color = 4;
glyphname = currency;
layers = (
{
background = {
anchors = (
{
name = top;
pos = (274,530);
}
);
shapes = (
{
closed = 1;
nodes = (
(398,97,o),
(488,187,o),
(488,297,cs),
(488,407,o),
(398,497,o),
(288,497,cs),
(178,497,o),
(88,407,o),
(88,297,cs),
(88,187,o),
(178,97,o),
(288,97,cs)
);
},
{
closed = 1;
nodes = (
(196,129,o),
(120,205,o),
(120,297,cs),
(120,389,o),
(196,465,o),
(288,465,cs),
(379,465,o),
(456,389,o),
(456,297,cs),
(456,205,o),
(379,129,o),
(288,129,cs)
);
},
{
closed = 1;
nodes = (
(174,163,l),
(153,184,l),
(61,91,l),
(82,70,l)
);
},
{
closed = 1;
nodes = (
(516,90,l),
(421,185,l),
(400,164,l),
(495,69,l)
);
},
{
closed = 1;
nodes = (
(517,505,l),
(496,526,l),
(403,432,l),
(424,411,l)
);
},
{
closed = 1;
nodes = (
(173,433,l),
(81,525,l),
(60,504,l),
(152,412,l)
);
}
);
};
layerId = "EE2FFE84-06F1-4AFB-BBEC-60D09A436D14";
shapes = (
{
closed = 1;
nodes = (
(410,149,o),
(500,239,o),
(500,349,cs),
(500,459,o),
(410,549,o),
(300,549,cs),
(190,549,o),
(100,459,o),
(100,349,cs),
(100,239,o),
(190,149,o),
(300,149,cs)
);
},
{
closed = 1;
nodes = (
(208,179,o),
(130,257,o),
(130,349,cs),
(130,441,o),
(208,519,o),
(300,519,cs),
(391,519,o),
(470,441,o),
(470,349,cs),
(470,257,o),
(391,179,o),
(300,179,cs)
);
},
{
closed = 1;
nodes = (
(186,215,l),
(165,236,l),
(63,133,l),
(84,112,l)
);
},
{
closed = 1;
nodes = (
(538,132,l),
(433,237,l),
(412,216,l),
(517,111,l)
);
},
{
closed = 1;
nodes = (
(539,567,l),
(518,588,l),
(415,484,l),
(436,463,l)
);
},
{
closed = 1;
nodes = (
(185,485,l),
(83,587,l),
(62,566,l),
(164,464,l)
);
}
);
width = 600;
},
{
background = {
anchors = (
{
name = top;
pos = (305,530);
}
);
shapes = (
{
closed = 1;
nodes = (
(439,80,o),
(536,178,o),
(536,297,cs),
(536,416,o),
(439,514,o),
(319,514,cs),
(200,514,o),
(103,416,o),
(103,297,cs),
(103,178,o),
(200,80,o),
(319,80,cs)
);
},
{
closed = 1;
nodes = (
(272,211,o),
(233,250,o),
(233,297,cs),
(233,344,o),
(272,383,o),
(319,383,cs),
(365,383,o),
(405,344,o),
(405,297,cs),
(405,250,o),
(365,211,o),
(319,211,cs)
);
},
{
closed = 1;
nodes = (
(262,181,l),
(203,239,l),
(70,107,l),
(129,48,l)
);
},
{
closed = 1;
nodes = (
(569,107,l),
(436,239,l),
(378,181,l),
(510,48,l)
);
},
{
closed = 1;
nodes = (
(569,488,l),
(510,547,l),
(378,414,l),
(436,356,l)
);
},
{
closed = 1;
nodes = (
(262,414,l),
(129,547,l),
(70,488,l),
(203,356,l)
);
}
);
};
layerId = "58B1DC7A-69F8-4375-AD2E-AC5103CCF536";
shapes = (
{
closed = 1;
nodes = (
(427,119,o),
(529,222,o),
(529,348,cs),
(529,474,o),
(427,577,o),
(300,577,cs),
(174,577,o),
(71,474,o),
(71,348,cs),
(71,222,o),
(174,119,o),
(300,119,cs)
);
},
{
closed = 1;
nodes = (
(244,245,o),
(197,292,o),
(197,348,cs),
(197,404,o),
(244,451,o),
(300,451,cs),
(355,451,o),
(403,404,o),
(403,348,cs),
(403,292,o),
(355,245,o),
(300,245,cs)
);
},
{
closed = 1;
nodes = (
(213,202,l),
(154,260,l),
(21,128,l),
(80,69,l)
);
},
{
closed = 1;
nodes = (
(580,128,l),
(447,260,l),
(389,202,l),
(521,69,l)
);
},
{
closed = 1;
nodes = (
(580,569,l),
(521,628,l),
(389,495,l),
(447,437,l)
);
},
{
closed = 1;
nodes = (
(213,495,l),
(80,628,l),
(21,569,l),
(154,437,l)
);
}
);
width = 600;
},
{
background = {
anchors = (
{
name = top;
pos = (298,530);
}
);
shapes = (
{
closed = 1;
nodes = (
(422,97,o),
(512,187,o),
(512,297,cs),
(512,407,o),
(422,497,o),
(312,497,cs),
(202,497,o),
(112,407,o),
(112,297,cs),
(112,187,o),
(202,97,o),
(312,97,cs)
);
},
{
closed = 1;
nodes = (
(242,170,o),
(184,227,o),
(184,297,cs),
(184,367,o),
(242,424,o),
(312,424,cs),
(380,424,o),
(439,367,o),
(439,297,cs),
(439,227,o),
(380,170,o),
(312,170,cs)
);
},
{
closed = 1;
nodes = (
(248,180,l),
(195,233,l),
(68,106,l),
(121,54,l)
);
},
{
closed = 1;
nodes = (
(556,106,l),
(429,233,l),
(376,180,l),
(503,54,l)
);
},
{
closed = 1;
nodes = (
(556,489,l),
(503,541,l),
(376,415,l),
(429,362,l)
);
},
{
closed = 1;
nodes = (
(248,415,l),
(121,541,l),
(68,489,l),
(195,362,l)
);
}
);
};
layerId = "574EE4B9-5C1A-4E7E-9985-C08FACB65BD8";
shapes = (
{
closed = 1;
nodes = (
(416,136,o),
(511,231,o),
(511,347,cs),
(511,463,o),
(416,558,o),
(300,558,cs),
(184,558,o),
(89,463,o),
(89,347,cs),
(89,231,o),
(184,136,o),
(300,136,cs)
);
},
{
closed = 1;
nodes = (
(222,206,o),
(159,269,o),
(159,347,cs),
(159,425,o),
(222,488,o),
(300,488,cs),
(376,488,o),
(441,425,o),
(441,347,cs),
(441,269,o),
(376,206,o),
(300,206,cs)
);
},
{
closed = 1;
nodes = (
(223,214,l),
(167,270,l),
(33,136,l),
(89,81,l)
);
},
{
closed = 1;
nodes = (
(567,136,l),
(433,270,l),
(377,214,l),
(511,81,l)
);
},
{
closed = 1;
nodes = (
(567,559,l),
(511,614,l),
(377,481,l),
(433,425,l)
);
},
{
closed = 1;
nodes = (
(223,481,l),
(89,614,l),
(33,559,l),
(167,425,l)
);
}
);
width = 600;
}
);
unicode = 164;
}
{
color = 4;
glyphname = section;
kernLeft = "0";
kernRight = "0";
layers = (
{
background = {
shapes = (
{
closed = 1;
nodes = (
(405,-109,o),
(507,-67,o),
(507,38,cs),
(507,99,o),
(462,132,o),
(380,163,c),
(447,182,o),
(510,214,o),
(510,287,cs),
(510,360,o),
(448,403,o),
(305,430,cs),
(192,451,o),
(143,482,o),
(143,540,cs),
(143,601,o),
(208,649,o),
(291,649,cs),
(374,649,o),
(441,591,o),
(455,508,c),
(489,511,l),
(476,606,o),
(390,681,o),
(295,681,cs),
(186,681,o),
(110,622,o),
(110,539,cs),
(110,478,o),
(157,434,o),
(243,412,c),
(151,398,o),
(107,348,o),
(107,287,cs),
(107,198,o),
(200,174,o),
(287,153,cs),
(427,119,o),
(474,85,o),
(474,38,cs),
(474,-43,o),
(381,-77,o),
(300,-77,cs),
(211,-77,o),
(135,-15,o),
(124,74,c),
(90,70,l),
(101,-30,o),
(192,-109,o),
(300,-109,cs)
);
},
{
closed = 1;
nodes = (
(212,187,o),
(141,228,o),
(141,287,cs),
(141,350,o),
(200,389,o),
(295,389,cs),
(397,389,o),
(477,349,o),
(477,287,cs),
(477,228,o),
(405,187,o),
(302,187,cs)
);
}
);
};
layerId = "EE2FFE84-06F1-4AFB-BBEC-60D09A436D14";
shapes = (
{
closed = 1;
nodes = (
(407,-64,o),
(508,-25,o),
(508,80,cs),
(508,141,o),
(464,182,o),
(372,206,c),
(449,221,o),
(508,257,o),
(508,330,cs),
(508,403,o),
(464,448,o),
(307,473,cs),
(193,491,o),
(142,527,o),
(142,585,cs),
(142,646,o),
(208,694,o),
(293,694,cs),
(396,694,o),
(443,636,o),
(457,553,c),
(491,556,l),
(478,651,o),
(412,726,o),
(297,726,cs),
(188,726,o),
(112,667,o),
(112,584,cs),
(112,523,o),
(159,480,o),
(248,460,c),
(152,446,o),
(109,393,o),
(109,332,cs),
(109,243,o),
(191,214,o),
(290,199,cs),
(430,178,o),
(478,130,o),
(478,81,cs),
(478,2,o),
(383,-32,o),
(312,-32,cs),
(193,-32,o),
(136,29,o),
(126,119,c),
(92,115,l),
(104,15,o),
(174,-64,o),
(312,-64,cs)
);
},
{
closed = 1;
nodes = (
(194,228,o),
(139,271,o),
(139,335,cs),
(139,395,o),
(201,438,o),
(277,438,cs),
(403,438,o),
(478,394,o),
(478,332,cs),
(478,273,o),
(417,228,o),
(334,228,cs)
);
}
);
width = 600;
},
{
background = {
shapes = (
{
closed = 1;
nodes = (
(413,-109,o),
(517,-60,o),
(517,38,cs),
(517,91,o),
(500,134,o),
(435,165,c),
(491,187,o),
(520,224,o),
(520,274,cs),
(520,366,o),
(469,407,o),
(315,445,cs),
(216,471,o),
(188,490,o),
(188,531,cs),
(188,572,o),
(234,601,o),
(295,601,cs),
(373,601,o),
(422,564,o),
(432,505,c),
(518,511,l),
(503,620,o),
(391,681,o),
(305,681,cs),
(193,681,o),
(100,626,o),
(100,524,cs),
(100,476,o),
(131,441,o),
(192,415,c),
(126,387,o),
(97,342,o),
(97,287,cs),
(97,211,o),
(151,171,o),
(297,137,cs),
(392,113,o),
(429,85,o),
(429,45,cs),
(429,0,o),
(381,-29,o),
(310,-29,cs),
(234,-29,o),
(178,11,o),
(168,76,c),
(80,70,l),
(90,-35,o),
(189,-109,o),
(310,-109,cs)
);
},
{
closed = 1;
nodes = (
(218,220,o),
(185,253,o),
(185,295,cs),
(185,336,o),
(231,364,o),
(292,364,cs),
(348,364,o),
(432,343,o),
(432,281,cs),
(432,237,o),
(384,210,o),
(312,210,cs)
);
}
);
};
layerId = "574EE4B9-5C1A-4E7E-9985-C08FACB65BD8";
shapes = (
{
closed = 1;
nodes = (
(431,-64,o),
(518,-2,o),
(518,84,cs),
(518,145,o),
(492,183,o),
(436,210,c),
(492,232,o),
(520,269,o),
(520,322,cs),
(520,411,o),
(470,449,o),
(315,490,cs),
(216,516,o),
(188,535,o),
(188,576,cs),
(188,616,o),
(233,646,o),
(296,646,cs),
(372,646,o),
(422,611,o),
(433,550,c),
(519,556,l),
(504,663,o),
(425,726,o),
(305,726,cs),
(182,726,o),
(99,666,o),
(99,572,cs),
(99,525,o),
(130,487,o),
(191,460,c),
(129,433,o),
(97,390,o),
(97,332,cs),
(97,256,o),
(150,212,o),
(287,183,cs),
(392,161,o),
(431,131,o),
(431,90,cs),
(431,45,o),
(401,16,o),
(310,16,cs),
(223,16,o),
(177,57,o),
(167,121,c),
(80,115,l),
(90,12,o),
(174,-64,o),
(310,-64,cs)
);
},
{
closed = 1;
nodes = (
(215,248,o),
(177,296,o),
(177,341,cs),
(177,384,o),
(223,419,o),
(278,419,cs),
(353,419,o),
(441,392,o),
(441,326,cs),
(441,279,o),
(401,248,o),
(339,248,cs)
);
}
);
width = 600;
},
{
background = {
shapes = (
{
closed = 1;
nodes = (
(444,-88,o),
(532,-32,o),
(532,71,cs),
(532,113,o),
(516,150,o),
(478,180,c),
(514,206,o),
(533,242,o),
(533,288,cs),
(533,372,o),
(468,432,o),
(345,459,cs),
(258,478,o),
(229,490,o),
(227,518,cs),
(224,545,o),
(252,561,o),
(294,561,cs),
(340,561,o),
(368,542,o),
(375,500,c),
(530,506,l),
(514,616,o),
(413,684,o),
(303,684,cs),
(173,684,o),
(77,619,o),
(77,519,cs),
(77,476,o),
(99,441,o),
(140,413,c),
(85,376,o),
(72,323,o),
(79,278,cs),
(92,203,o),
(167,155,o),
(284,133,cs),
(357,119,o),
(383,99,o),
(383,75,cs),
(383,50,o),
(357,35,o),
(311,35,cs),
(260,35,o),
(224,59,o),
(219,104,c),
(66,98,l),
(75,-14,o),
(177,-88,o),
(311,-88,cs)
);
},
{
closed = 1;
nodes = (
(244,256,o),
(224,277,o),
(224,302,cs),
(224,327,o),
(252,345,o),
(293,345,cs),
(329,345,o),
(384,332,o),
(384,294,cs),
(384,267,o),
(354,251,o),
(306,251,cs)
);
}
);
};
layerId = "58B1DC7A-69F8-4375-AD2E-AC5103CCF536";
shapes = (
{
closed = 1;
nodes = (
(463,-67,o),
(559,-8,o),
(559,100,cs),
(559,151,o),
(537,187,o),
(481,215,c),
(533,239,o),
(556,276,o),
(556,326,cs),
(556,434,o),
(456,479,o),
(319,500,cs),
(268,508,o),
(241,523,o),
(241,554,cs),
(241,584,o),
(264,603,o),
(302,603,cs),
(343,603,o),
(373,576,o),
(379,532,c),
(560,538,l),
(542,658,o),
(442,726,o),
(306,726,cs),
(148,726,o),
(52,665,o),
(52,554,cs),
(52,508,o),
(73,473,o),
(126,444,c),
(79,419,o),
(57,382,o),
(54,340,cs),
(47,246,o),
(107,193,o),
(239,167,cs),
(340,147,o),
(371,130,o),
(371,102,cs),
(371,77,o),
(345,59,o),
(308,59,cs),
(261,59,o),
(231,83,o),
(223,126,c),
(40,117,l),
(50,2,o),
(153,-67,o),
(315,-67,cs)
);
},
{
closed = 1;
nodes = (
(254,278,o),
(225,301,o),
(225,334,cs),
(225,366,o),
(255,387,o),
(300,387,cs),
(339,387,o),
(386,368,o),
(386,329,cs),
(386,295,o),
(353,274,o),
(307,274,cs)
);
}
);
width = 600;
}
);
unicode = 167;
}
{
color = 4;
glyphname = copyright;
kernLeft = "0";
kernRight = "0";
layers = (
{
background = {
shapes = (
{
closed = 1;
nodes = (
(473,464,o),
(432,538,o),
(373,538,cs),
(294,538,o),
(200,447,o),
(200,357,cs),
(200,266,o),
(294,174,o),
(373,174,cs),
(435,174,o),
(477,250,o),
(485,312,c),
(560,306,l),
(550,206,o),
(480,144,o),
(373,144,cs),
(248,144,o),
(170,225,o),
(170,357,cs),
(170,489,o),
(248,568,o),
(373,568,cs),
(477,568,o),
(547,509,o),
(556,414,c),
(481,409,l)
);
},
{
closed = 1;
nodes = (
(573,-12,o),
(738,153,o),
(738,357,cs),
(738,561,o),
(573,726,o),
(369,726,cs),
(165,726,o),
(0,561,o),
(0,357,cs),
(0,153,o),
(165,-12,o),
(369,-12,cs)
);
},
{
closed = 1;
nodes = (
(184,19,o),
(32,172,o),
(32,357,cs),
(32,542,o),
(184,695,o),
(369,695,cs),
(553,695,o),
(706,542,o),
(706,357,cs),
(706,172,o),
(553,19,o),
(369,19,cs)
);
}
);
};
layerId = "EE2FFE84-06F1-4AFB-BBEC-60D09A436D14";
shapes = (
{
closed = 1;
nodes = (
(464,-12,o),
(580,140,o),
(580,357,cs),
(580,574,o),
(464,726,o),
(299,726,cs),
(134,726,o),
(20,574,o),
(20,357,cs),
(20,140,o),
(134,-12,o),
(299,-12,cs)
);
},
{
closed = 1;
nodes = (
(151,18,o),
(50,158,o),
(50,357,cs),
(50,556,o),
(151,696,o),
(299,696,cs),
(448,696,o),
(550,556,o),
(550,357,cs),
(550,158,o),
(448,18,o),
(299,18,cs)
);
},
{
closed = 1;
nodes = (
(393,144,o),
(456,205,o),
(468,303,c),
(438,308,l),
(426,222,o),
(379,174,o),
(305,174,cs),
(215,174,o),
(159,250,o),
(159,356,cs),
(159,461,o),
(215,537,o),
(305,537,cs),
(377,537,o),
(423,492,o),
(435,411,c),
(465,416,l),
(454,509,o),
(392,567,o),
(305,567,cs),
(197,567,o),
(129,479,o),
(129,356,cs),
(129,231,o),
(197,144,o),
(305,144,cs)
);
}
);
width = 600;
},
{
layerId = "574EE4B9-5C1A-4E7E-9985-C08FACB65BD8";
shapes = (
{
closed = 1;
nodes = (
(473,-12,o),
(590,140,o),
(590,357,cs),
(590,574,o),
(473,726,o),
(299,726,cs),
(125,726,o),
(10,574,o),
(10,357,cs),
(10,140,o),
(125,-12,o),
(299,-12,cs)
);
},
{
closed = 1;
nodes = (
(160,50,o),
(76,173,o),
(76,357,cs),
(76,542,o),
(160,664,o),
(299,664,cs),
(438,664,o),
(524,542,o),
(524,357,cs),
(524,173,o),
(438,50,o),
(299,50,cs)
);
},
{
closed = 1;
nodes = (
(387,144,o),
(457,205,o),
(469,303,c),
(400,308,l),
(391,245,o),
(354,213,o),
(300,213,cs),
(234,213,o),
(199,270,o),
(199,356,cs),
(199,442,o),
(234,499,o),
(300,499,cs),
(353,499,o),
(389,469,o),
(397,412,c),
(466,417,l),
(456,510,o),
(384,568,o),
(300,568,cs),
(200,568,o),
(130,479,o),
(130,356,cs),
(130,232,o),
(200,144,o),
(300,144,cs)
);
}
);
width = 600;
},
{
layerId = "58B1DC7A-69F8-4375-AD2E-AC5103CCF536";
shapes = (
{
closed = 1;
nodes = (
(479,-12,o),
(600,133,o),
(600,357,cs),
(600,581,o),
(479,726,o),
(299,726,cs),
(119,726,o),
(0,581,o),
(0,357,cs),
(0,133,o),
(119,-12,o),
(299,-12,cs)
);
},
{
closed = 1;
nodes = (
(169,72,o),
(90,177,o),
(90,357,cs),
(90,537,o),
(169,642,o),
(299,642,cs),
(429,642,o),
(510,537,o),
(510,357,cs),
(510,177,o),
(429,72,o),
(299,72,cs)
);
},
{
closed = 1;
nodes = (
(394,164,o),
(462,225,o),
(474,317,c),
(344,322,l),
(341,287,o),
(329,260,o),
(312,260,cs),
(285,260,o),
(272,296,o),
(272,356,cs),
(272,416,o),
(285,456,o),
(312,456,cs),
(327,456,o),
(339,433,o),
(341,402,c),
(471,407,l),
(461,494,o),
(392,552,o),
(302,552,cs),
(206,552,o),
(130,476,o),
(130,356,cs),
(130,236,o),
(206,164,o),
(302,164,cs)
);
}
);
width = 600;
}
);
unicode = 169;
}
{
color = 4;
glyphname = registered;
layers = (
{
background = {
shapes = (
{
closed = 1;
nodes = (
(443,220,o),
(556,334,o),
(556,473,cs),
(556,613,o),
(443,726,o),
(303,726,cs),
(163,726,o),
(50,613,o),
(50,473,cs),
(50,334,o),
(163,220,o),
(303,220,cs)
);
},
{
closed = 1;
nodes = (
(181,250,o),
(81,352,o),
(81,473,cs),
(81,595,o),
(181,696,o),
(303,696,cs),
(425,696,o),
(525,595,o),
(525,473,cs),
(525,352,o),
(425,250,o),
(303,250,cs)
);
},
{
closed = 1;
nodes = (
(232,335,l),
(232,440,l),
(316,440,l),
(379,335,l),
(408,335,l),
(341,446,l),
(383,457,o),
(405,485,o),
(405,523,cs),
(405,576,o),
(364,609,o),
(299,609,cs),
(207,609,l),
(207,335,l)
);
},
{
closed = 1;
nodes = (
(232,585,l),
(306,585,ls),
(352,585,o),
(381,562,o),
(381,525,cs),
(381,488,o),
(352,465,o),
(306,465,cs),
(232,465,l)
);
}
);
};
guides = (
{
pos = (308,568);
},
{
pos = (308,144);
}
);
layerId = "EE2FFE84-06F1-4AFB-BBEC-60D09A436D14";
shapes = (
{
closed = 1;
nodes = (
(450,187,o),
(570,308,o),
(570,456,cs),
(570,606,o),
(450,726,o),
(301,726,cs),
(151,726,o),
(30,606,o),
(30,456,cs),
(30,308,o),
(151,187,o),
(301,187,cs)
);
},
{
closed = 1;
nodes = (
(167,211,o),
(55,323,o),
(55,456,cs),
(55,590,o),
(167,702,o),
(301,702,cs),
(435,702,o),
(545,590,o),
(545,456,cs),
(545,323,o),
(435,211,o),
(301,211,cs)
);
},
{
closed = 1;
nodes = (
(225,300,l),
(225,431,l),
(317,431,l),
(384,300,l),
(415,300,l),
(343,438,l),
(388,449,o),
(411,479,o),
(411,520,cs),
(411,576,o),
(368,611,o),
(298,611,cs),
(198,611,l),
(198,300,l)
);
},
{
closed = 1;
nodes = (
(225,586,l),
(306,586,ls),
(355,586,o),
(386,561,o),
(386,522,cs),
(386,482,o),
(355,458,o),
(306,458,cs),
(225,458,l)
);
}
);
width = 600;
},
{
background = {
shapes = (
{
closed = 1;
nodes = (
(433,220,o),
(546,333,o),
(546,474,cs),
(546,613,o),
(433,726,o),
(293,726,cs),
(153,726,o),
(41,613,o),
(41,474,cs),
(41,333,o),
(153,220,o),
(293,220,cs)
);
},
{
closed = 1;
nodes = (
(198,297,o),
(117,377,o),
(117,474,cs),
(117,570,o),
(198,650,o),
(293,650,cs),
(390,650,o),
(469,570,o),
(469,474,cs),
(469,377,o),
(390,297,o),
(293,297,cs)
);
},
{
closed = 1;
nodes = (
(269,351,l),
(269,435,l),
(289,435,l),
(328,351,l),
(404,351,l),
(354,447,l),
(384,459,o),
(399,487,o),
(399,518,cs),
(399,567,o),
(357,600,o),
(294,600,cs),
(199,600,l),
(199,351,l)
);
},
{
closed = 1;
nodes = (
(268,538,l),
(289,538,ls),
(310,538,o),
(325,532,o),
(325,515,cs),
(325,498,o),
(310,492,o),
(289,492,cs),
(268,492,l)
);
}
);
};
layerId = "58B1DC7A-69F8-4375-AD2E-AC5103CCF536";
shapes = (
{
closed = 1;
nodes = (
(460,148,o),
(590,277,o),
(590,438,cs),
(590,597,o),
(460,726,o),
(300,726,cs),
(140,726,o),
(10,597,o),
(10,438,cs),
(10,277,o),
(140,148,o),
(300,148,cs)
);
},
{
closed = 1;
nodes = (
(173,214,o),
(82,315,o),
(82,438,cs),
(82,560,o),
(173,660,o),
(300,660,cs),
(429,660,o),
(518,560,o),
(518,438,cs),
(518,315,o),
(429,214,o),
(300,214,cs)
);
},
{
closed = 1;
nodes = (
(277,290,l),
(277,390,l),
(294,390,l),
(336,290,l),
(444,290,l),
(387,405,l),
(423,420,o),
(441,454,o),
(441,491,cs),
(441,550,o),
(386,590,o),
(311,590,cs),
(177,590,l),
(177,290,l)
);
},
{
closed = 1;
nodes = (
(275,515,l),
(294,515,ls),
(319,515,o),
(338,508,o),
(338,487,cs),
(338,466,o),
(319,460,o),
(294,460,cs),
(275,460,l)
);
}
);
width = 600;
},
{
background = {
shapes = (
{
closed = 1;
nodes = (
(452,179,o),
(572,302,o),
(572,453,cs),
(572,604,o),
(452,726,o),
(301,726,cs),
(149,726,o),
(28,604,o),
(28,453,cs),
(28,302,o),
(149,179,o),
(301,179,cs)
);
},
{
closed = 1;
nodes = (
(173,235,o),
(85,335,o),
(85,453,cs),
(85,571,o),
(173,668,o),
(301,668,cs),
(428,668,o),
(515,571,o),
(515,453,cs),
(515,335,o),
(428,235,o),
(301,235,cs)
);
},
{
closed = 1;
nodes = (
(248,303,l),
(248,420,l),
(294,420,l),
(363,303,l),
(426,303,l),
(349,427,l),
(390,438,o),
(414,468,o),
(414,510,cs),
(414,567,o),
(368,601,o),
(291,601,cs),
(192,601,l),
(192,303,l)
);
},
{
closed = 1;
nodes = (
(248,554,l),
(299,554,ls),
(338,554,o),
(360,539,o),
(360,512,cs),
(360,484,o),
(338,466,o),
(299,466,cs),
(248,466,l)
);
}
);
};
layerId = "574EE4B9-5C1A-4E7E-9985-C08FACB65BD8";
shapes = (
{
closed = 1;
nodes = (
(452,179,o),
(572,302,o),
(572,453,cs),
(572,604,o),
(452,726,o),
(301,726,cs),
(149,726,o),
(28,604,o),
(28,453,cs),
(28,302,o),
(149,179,o),
(301,179,cs)
);
},
{
closed = 1;
nodes = (
(173,233,o),
(86,333,o),
(86,453,cs),
(86,573,o),
(173,672,o),
(301,672,cs),
(428,672,o),
(514,573,o),
(514,453,cs),
(514,333,o),
(428,233,o),
(301,233,cs)
);
},
{
closed = 1;
nodes = (
(248,303,l),
(248,420,l),
(294,420,l),
(363,303,l),
(426,303,l),
(349,427,l),
(390,438,o),
(414,468,o),
(414,510,cs),
(414,567,o),
(368,601,o),
(291,601,cs),
(192,601,l),
(192,303,l)
);
},
{
closed = 1;
nodes = (
(248,554,l),
(299,554,ls),
(338,554,o),
(360,539,o),
(360,512,cs),
(360,484,o),
(338,466,o),
(299,466,cs),
(248,466,l)
);
}
);
width = 600;
}
);
unicode = 174;
}
{
color = 4;
glyphname = plusminus;
layers = (
{
background = {
shapes = (
{
closed = 1;
nodes = (
(506,345,l),
(506,375,l),
(30,375,l),
(30,345,l)
);
},
{
closed = 1;
nodes = (
(506,60,l),
(506,90,l),
(30,90,l),
(30,60,l)
);
},
{
closed = 1;
nodes = (
(284,190,l),
(284,530,l),
(252,530,l),
(252,190,l)
);
}
);
};
layerId = "EE2FFE84-06F1-4AFB-BBEC-60D09A436D14";
shapes = (
{
closed = 1;
nodes = (
(529,0,l),
(529,30,l),
(71,30,l),
(71,0,l)
);
},
{
closed = 1;
nodes = (
(314,86,l),
(314,544,l),
(286,544,l),
(286,86,l)
);
},
{
closed = 1;
nodes = (
(529,301,l),
(529,329,l),
(71,329,l),
(71,301,l)
);
}
);
width = 600;
},
{
background = {
shapes = (
{
closed = 1;
nodes = (
(548,290,l),
(548,427,l),
(30,427,l),
(30,290,l)
);
},
{
closed = 1;
nodes = (
(548,10,l),
(548,147,l),
(30,147,l),
(30,10,l)
);
},
{
closed = 1;
nodes = (
(379,190,l),
(379,530,l),
(199,530,l),
(199,190,l)
);
}
);
};
layerId = "58B1DC7A-69F8-4375-AD2E-AC5103CCF536";
shapes = (
{
closed = 1;
nodes = (
(539,0,l),
(539,128,l),
(61,128,l),
(61,0,l)
);
},
{
closed = 1;
nodes = (
(375,172,l),
(375,610,l),
(225,610,l),
(225,172,l)
);
},
{
closed = 1;
nodes = (
(539,320,l),
(539,462,l),
(61,462,l),
(61,320,l)
);
}
);
width = 600;
},
{
background = {
shapes = (
{
closed = 1;
nodes = (
(506,321,l),
(506,399,l),
(30,399,l),
(30,321,l)
);
},
{
closed = 1;
nodes = (
(506,36,l),
(506,114,l),
(30,114,l),
(30,36,l)
);
},
{
closed = 1;
nodes = (
(307,190,l),
(307,530,l),
(229,530,l),
(229,190,l)
);
}
);
};
layerId = "574EE4B9-5C1A-4E7E-9985-C08FACB65BD8";
shapes = (
{
closed = 1;
nodes = (
(529,0,l),
(529,74,l),
(71,74,l),
(71,0,l)
);
},
{
closed = 1;
nodes = (
(339,106,l),
(339,564,l),
(261,564,l),
(261,106,l)
);
},
{
closed = 1;
nodes = (
(529,296,l),
(529,374,l),
(71,374,l),
(71,296,l)
);
}
);
width = 600;
}
);
unicode = 177;
}
{
color = 9;
glyphname = acute;
layers = (
{
background = {
shapes = (
{
closed = 1;
nodes = (
(273,610,l),
(353,726,l),
(319,726,l),
(247,610,l)
);
}
);
};
layerId = "EE2FFE84-06F1-4AFB-BBEC-60D09A436D14";
shapes = (
{
closed = 1;
nodes = (
(360,726,l),
(318,726,l),
(240,500,l),
(274,500,l)
);
}
);
width = 600;
},
{
background = {
shapes = (
{
closed = 1;
nodes = (
(290,600,l),
(380,728,l),
(286,728,l),
(220,600,l)
);
}
);
};
layerId = "574EE4B9-5C1A-4E7E-9985-C08FACB65BD8";
shapes = (
{
closed = 1;
nodes = (
(400,728,l),
(274,728,l),
(200,500,l),
(302,500,l)
);
}
);
width = 600;
},
{
background = {
shapes = (
{
closed = 1;
nodes = (
(330,590,l),
(420,750,l),
(240,750,l),
(180,590,l)
);
}
);
};
layerId = "58B1DC7A-69F8-4375-AD2E-AC5103CCF536";
shapes = (
{
closed = 1;
nodes = (
(440,740,l),
(240,740,l),
(160,500,l),
(330,500,l)
);
}
);
width = 600;
}
);
unicode = 180;
}
{
color = 4;
glyphname = micro;
layers = (
{
layerId = "EE2FFE84-06F1-4AFB-BBEC-60D09A436D14";
shapes = (
{
closed = 1;
nodes = (
(137,-150,l),
(137,87,l),
(163,23,o),
(215,-12,o),
(281,-12,cs),
(367,-12,o),
(443,27,o),
(463,114,c),
(465,0,l),
(493,0,l),
(493,530,l),
(463,530,l),
(463,213,ls),
(463,99,o),
(400,18,o),
(289,18,cs),
(180,18,o),
(137,98,o),
(137,213,cs),
(137,530,l),
(107,530,l),
(107,-150,l)
);
}
);
width = 600;
},
{
layerId = "574EE4B9-5C1A-4E7E-9985-C08FACB65BD8";
shapes = (
{
closed = 1;
nodes = (
(177,-150,l),
(177,51,l),
(194,12,o),
(236,-12,o),
(286,-12,cs),
(348,-12,o),
(402,26,o),
(427,88,c),
(427,0,l),
(507,0,l),
(507,530,l),
(423,530,l),
(423,214,ls),
(423,121,o),
(371,62,o),
(286,62,cs),
(213,62,o),
(177,113,o),
(177,214,cs),
(177,530,l),
(93,530,l),
(93,-150,l)
);
}
);
width = 600;
},
{
layerId = "58B1DC7A-69F8-4375-AD2E-AC5103CCF536";
shapes = (
{
closed = 1;
nodes = (
(224,-150,l),
(224,45,l),
(237,7,o),
(264,-12,o),
(297,-12,cs),
(334,-12,o),
(367,13,o),
(384,61,c),
(384,0,l),
(546,0,l),
(546,540,l),
(376,540,l),
(376,254,ls),
(376,178,o),
(347,134,o),
(297,134,cs),
(249,134,o),
(224,176,o),
(224,254,cs),
(224,540,l),
(54,540,l),
(54,-150,l)
);
}
);
width = 600;
}
);
unicode = (181,956);
}
{
color = 4;
glyphname = cedilla;
kernLeft = "0";
kernRight = "0";
layers = (
{
background = {
shapes = (
{
closed = 1;
nodes = (
(124,-85,l),
(167,-75,o),
(200,-91,o),
(200,-123,cs),
(200,-149,o),
(182,-166,o),
(154,-166,cs),
(120,-166,o),
(96,-132,o),
(82,-114,c),
(40,-153,l),
(79,-198,o),
(110,-220,o),
(158,-220,cs),
(213,-220,o),
(256,-179,o),
(256,-127,cs),
(256,-74,o),
(216,-37,o),
(159,-37,c),
(202,10,l),
(149,10,l),
(96,-48,l)
);
}
);
};
guides = (
{
pos = (202,10);
}
);
layerId = "EE2FFE84-06F1-4AFB-BBEC-60D09A436D14";
shapes = (
{
ref = cedillacomb;
}
);
width = 600;
},
{
layerId = "574EE4B9-5C1A-4E7E-9985-C08FACB65BD8";
shapes = (
{
alignment = -1;
ref = cedillacomb;
}
);
width = 600;
},
{
layerId = "58B1DC7A-69F8-4375-AD2E-AC5103CCF536";
shapes = (
{
alignment = -1;
ref = cedillacomb;
}
);
width = 600;
}
);
unicode = 184;
}
{
color = 4;
glyphname = onesuperior;
layers = (
{
background = {
shapes = (
{
closed = 1;
nodes = (
(146,323,l),
(146,711,l),
(124,711,l),
(124,656,o),
(94,629,o),
(33,629,c),
(20,629,l),
(20,607,l),
(116,607,l),
(116,323,l)
);
}
);
};
layerId = "EE2FFE84-06F1-4AFB-BBEC-60D09A436D14";
shapes = (
{
closed = 1;
nodes = (
(323,323,l),
(323,710,l),
(301,710,l),
(301,657,o),
(271,631,o),
(210,631,cs),
(197,631,l),
(197,609,l),
(295,609,l),
(295,323,l)
);
}
);
width = 600;
},
{
background = {
shapes = (
{
closed = 1;
nodes = (
(200,323,l),
(200,711,l),
(126,711,l),
(126,643,o),
(92,605,o),
(29,605,c),
(6,605,l),
(6,549,l),
(108,549,l),
(108,323,l)
);
}
);
};
layerId = "58B1DC7A-69F8-4375-AD2E-AC5103CCF536";
shapes = (
{
closed = 1;
nodes = (
(384,323,l),
(384,710,l),
(282,710,l),
(282,652,o),
(249,615,o),
(186,615,cs),
(156,615,l),
(156,525,l),
(264,525,l),
(264,323,l)
);
}
);
width = 600;
},
{
background = {
shapes = (
{
closed = 1;
nodes = (
(183,323,l),
(183,711,l),
(133,711,l),
(133,654,o),
(102,622,o),
(44,622,c),
(20,622,l),
(20,573,l),
(116,574,l),
(116,323,l)
);
}
);
};
layerId = "574EE4B9-5C1A-4E7E-9985-C08FACB65BD8";
shapes = (
{
closed = 1;
nodes = (
(331,323,l),
(331,711,l),
(282,711,l),
(282,658,o),
(251,626,o),
(193,626,cs),
(169,626,l),
(169,576,l),
(265,577,l),
(265,323,l)
);
}
);
width = 600;
}
);
unicode = 185;
}
{
color = 4;
glyphname = multiply;
layers = (
{
background = {
shapes = (
{
angle = -45;
pos = (-239,275);
ref = plus;
}
);
};
layerId = "EE2FFE84-06F1-4AFB-BBEC-60D09A436D14";
shapes = (
{
closed = 1;
nodes = (
(134,99,l),
(486,451,l),
(466,471,l),
(114,119,l)
);
},
{
closed = 1;
nodes = (
(466,99,l),
(486,119,l),
(134,471,l),
(114,451,l)
);
}
);
width = 600;
},
{
background = {
shapes = (
{
alignment = -1;
angle = -45;
pos = (-125,272);
ref = plus;
}
);
};
layerId = "58B1DC7A-69F8-4375-AD2E-AC5103CCF536";
shapes = (
{
closed = 1;
nodes = (
(163,38,l),
(543,418,l),
(437,524,l),
(57,144,l)
);
},
{
closed = 1;
nodes = (
(437,38,l),
(543,144,l),
(163,524,l),
(57,418,l)
);
}
);
width = 600;
},
{
background = {
shapes = (
{
alignment = -1;
angle = -45;
pos = (-202,295);
ref = plus;
}
);
};
layerId = "574EE4B9-5C1A-4E7E-9985-C08FACB65BD8";
shapes = (
{
closed = 1;
nodes = (
(144,84,l),
(511,451,l),
(456,506,l),
(89,139,l)
);
},
{
closed = 1;
nodes = (
(456,84,l),
(511,139,l),
(144,506,l),
(89,451,l)
);
}
);
width = 600;
}
);
unicode = 215;
}
{
color = 4;
glyphname = Thorn;
kernLeft = "0";
kernRight = "0";
layers = (
{
background = {
shapes = (
{
closed = 1;
nodes = (
(32,710,l),
(0,710,l),
(0,0,l),
(32,0,l)
);
},
{
closed = 1;
nodes = (
(-3,497,l),
(197,497,ls),
(304,497,o),
(357,454,o),
(357,368,cs),
(357,279,o),
(304,234,o),
(197,234,cs),
(-3,234,l),
(-3,148,l),
(197,148,ls),
(356,148,o),
(449,230,o),
(449,368,cs),
(449,503,o),
(356,583,o),
(197,583,cs),
(-3,583,l)
);
}
);
};
layerId = "EE2FFE84-06F1-4AFB-BBEC-60D09A436D14";
shapes = (
{
closed = 1;
nodes = (
(298,168,ls),
(453,168,o),
(550,245,o),
(550,368,cs),
(550,488,o),
(453,563,o),
(298,563,cs),
(116,563,l),
(116,533,l),
(298,533,ls),
(432,533,o),
(516,469,o),
(516,368,cs),
(516,264,o),
(432,198,o),
(298,198,cs),
(116,198,l),
(116,168,l)
);
},
{
closed = 1;
nodes = (
(132,0,l),
(132,710,l),
(100,710,l),
(100,0,l)
);
}
);
width = 600;
},
{
layerId = "574EE4B9-5C1A-4E7E-9985-C08FACB65BD8";
shapes = (
{
closed = 1;
nodes = (
(308,149,ls),
(467,149,o),
(560,231,o),
(560,368,cs),
(560,503,o),
(467,582,o),
(308,582,cs),
(115,582,l),
(115,498,l),
(308,498,ls),
(416,498,o),
(470,455,o),
(470,368,cs),
(470,279,o),
(416,233,o),
(308,233,cs),
(115,233,l),
(115,149,l)
);
},
{
closed = 1;
nodes = (
(176,0,l),
(176,710,l),
(90,710,l),
(90,0,l)
);
}
);
width = 600;
},
{
layerId = "58B1DC7A-69F8-4375-AD2E-AC5103CCF536";
shapes = (
{
closed = 1;
nodes = (
(315,138,ls),
(480,138,o),
(570,232,o),
(570,367,cs),
(570,500,o),
(480,594,o),
(315,594,cs),
(104,594,l),
(104,438,l),
(308,438,ls),
(356,438,o),
(386,415,o),
(386,366,cs),
(386,318,o),
(356,294,o),
(308,294,cs),
(104,294,l),
(104,138,l)
);
},
{
closed = 1;
nodes = (
(250,0,l),
(250,710,l),
(70,710,l),
(70,0,l)
);
}
);
width = 600;
}
);
unicode = 222;
}
{
color = 4;
glyphname = ae;
kernLeft = "0";
kernRight = "0";
layers = (
{
anchors = (
{
name = bottom;
pos = (300,0);
},
{
name = top;
pos = (300,530);
}
);
background = {
shapes = (
{
closed = 1;
nodes = (
(504,-12,o),
(554,39,o),
(578,143,c),
(546,145,l),
(522,57,o),
(486,18,o),
(427,18,cs),
(339,18,o),
(300,91,o),
(298,260,c),
(579,260,l),
(579,267,ls),
(579,445,o),
(524,542,o),
(427,542,cs),
(324,542,o),
(266,443,o),
(266,265,cs),
(266,80,o),
(319,-12,o),
(427,-12,cs)
);
},
{
closed = 1;
nodes = (
(228,-14,o),
(289,65,o),
(293,192,c),
(298,320,l),
(298,468,o),
(252,542,o),
(164,542,cs),
(85,542,o),
(41,486,o),
(27,373,c),
(59,370,l),
(68,461,o),
(104,512,o),
(164,512,cs),
(231,512,o),
(266,447,o),
(266,315,c),
(152,282,ls),
(68,258,o),
(21,204,o),
(21,131,cs),
(21,41,o),
(62,-10,o),
(135,-12,cs)
);
},
{
closed = 1;
nodes = (
(85,14,o),
(53,55,o),
(53,131,cs),
(53,192,o),
(90,234,o),
(164,255,cs),
(265,284,l),
(265,219,ls),
(265,100,o),
(218,23,o),
(143,18,cs)
);
},
{
closed = 1;
nodes = (
(303,426,o),
(348,512,o),
(427,512,cs),
(504,512,o),
(542,432,o),
(547,288,c),
(298,288,l)
);
}
);
};
layerId = "EE2FFE84-06F1-4AFB-BBEC-60D09A436D14";
shapes = (
{
closed = 1;
nodes = (
(504,-12,o),
(555,39,o),
(579,143,c),
(547,145,l),
(523,57,o),
(486,18,o),
(423,18,cs),
(339,18,o),
(300,91,o),
(298,260,c),
(580,260,l),
(580,270,ls),
(580,454,o),
(524,542,o),
(427,542,cs),
(324,542,o),
(268,447,o),
(268,265,cs),
(268,80,o),
(317,-12,o),
(423,-12,cs)
);
},
{
closed = 1;
nodes = (
(228,-12,o),
(283,65,o),
(287,192,c),
(298,320,l),
(298,468,o),
(252,542,o),
(164,542,cs),
(85,542,o),
(41,486,o),
(27,373,c),
(59,370,l),
(68,461,o),
(104,512,o),
(164,512,cs),
(231,512,o),
(266,427,o),
(266,295,c),
(154,274,ls),
(70,258,o),
(20,204,o),
(20,131,cs),
(20,41,o),
(62,-12,o),
(135,-12,cs)
);
},
{
closed = 1;
nodes = (
(86,18,o),
(53,55,o),
(53,131,cs),
(53,192,o),
(92,233,o),
(166,246,cs),
(266,264,l),
(266,219,ls),
(266,100,o),
(219,18,o),
(140,18,cs)
);
},
{
closed = 1;
nodes = (
(303,426,o),
(348,512,o),
(427,512,cs),
(504,512,o),
(548,420,o),
(548,288,c),
(298,288,l)
);
}
);
width = 600;
},
{
anchors = (
{
name = bottom;
pos = (300,0);
},
{
name = top;
pos = (300,530);
}
);
layerId = "574EE4B9-5C1A-4E7E-9985-C08FACB65BD8";
shapes = (
{
closed = 1;
nodes = (
(508,-12,o),
(551,33,o),
(576,150,c),
(491,157,l),
(478,93,o),
(458,68,o),
(419,68,cs),
(369,68,o),
(338,129,o),
(333,239,c),
(582,239,l),
(582,278,ls),
(582,455,o),
(522,542,o),
(419,542,cs),
(309,542,o),
(249,443,o),
(249,265,cs),
(249,87,o),
(309,-12,o),
(419,-12,cs)
);
},
{
closed = 1;
nodes = (
(227,-12,o),
(276,44,o),
(288,138,c),
(326,320,l),
(326,468,o),
(277,542,o),
(178,542,cs),
(93,542,o),
(43,486,o),
(26,374,c),
(110,368,l),
(118,423,o),
(132,462,o),
(178,462,cs),
(225,462,o),
(246,418,o),
(246,312,c),
(160,300,ls),
(72,288,o),
(18,225,o),
(18,141,cs),
(18,34,o),
(73,-12,o),
(146,-12,cs)
);
},
{
closed = 1;
nodes = (
(127,62,o),
(102,87,o),
(102,141,cs),
(102,185,o),
(122,215,o),
(177,224,cs),
(246,235,l),
(246,219,ls),
(246,118,o),
(223,62,o),
(161,62,cs)
);
},
{
closed = 1;
nodes = (
(344,420,o),
(369,462,o),
(419,462,cs),
(463,462,o),
(491,420,o),
(495,313,c),
(334,313,l)
);
}
);
width = 600;
},
{
anchors = (
{
name = bottom;
pos = (300,0);
},
{
name = top;
pos = (300,540);
}
);
background = {
shapes = (
{
closed = 1;
nodes = (
(502,-12,o),
(565,54,o),
(586,169,c),
(468,184,l),
(458,130,o),
(438,112,o),
(414,112,cs),
(379,112,o),
(353,155,o),
(352,238,c),
(592,238,l),
(592,268,l),
(590,462,o),
(511,552,o),
(414,552,cs),
(301,552,o),
(232,445,o),
(232,270,cs),
(232,95,o),
(301,-12,o),
(414,-12,cs)
);
},
{
closed = 1;
nodes = (
(203,-12,o),
(244,25,o),
(264,85,c),
(330,326,l),
(330,473,o),
(275,552,o),
(178,552,cs),
(91,552,o),
(31,492,o),
(15,373,c),
(131,366,l),
(136,403,o),
(145,428,o),
(174,428,cs),
(204,428,o),
(213,398,o),
(214,342,c),
(159,326,ls),
(63,298,o),
(8,242,o),
(8,143,cs),
(8,47,o),
(70,-12,o),
(148,-12,cs)
);
},
{
closed = 1;
nodes = (
(145,111,o),
(129,128,o),
(128,155,cs),
(127,181,o),
(146,207,o),
(178,215,cs),
(223,226,l),
(223,212,ls),
(223,147,o),
(204,113,o),
(170,112,cs)
);
},
{
closed = 1;
nodes = (
(360,397,o),
(381,428,o),
(414,428,cs),
(445,428,o),
(465,397,o),
(470,327,c),
(355,327,l)
);
}
);
};
layerId = "58B1DC7A-69F8-4375-AD2E-AC5103CCF536";
shapes = (
{
closed = 1;
nodes = (
(501,-12,o),
(565,44,o),
(586,169,c),
(438,184,l),
(437,139,o),
(426,131,o),
(409,131,cs),
(387,131,o),
(373,155,o),
(372,220,c),
(592,220,l),
(592,281,ls),
(592,475,o),
(510,552,o),
(413,552,cs),
(301,552,o),
(232,445,o),
(232,270,cs),
(232,95,o),
(301,-12,o),
(413,-12,cs)
);
},
{
closed = 1;
nodes = (
(201,-12,o),
(260,26,o),
(280,86,c),
(340,326,l),
(340,473,o),
(280,552,o),
(178,552,cs),
(81,552,o),
(24,489,o),
(8,370,c),
(142,365,l),
(147,402,o),
(155,424,o),
(178,424,cs),
(204,424,o),
(214,400,o),
(214,330,c),
(155,314,ls),
(59,288,o),
(8,242,o),
(8,143,cs),
(8,27,o),
(68,-12,o),
(138,-12,cs)
);
},
{
closed = 1;
nodes = (
(150,108,o),
(138,128,o),
(138,155,cs),
(138,194,o),
(153,208,o),
(175,214,cs),
(214,224,l),
(214,190,ls),
(214,126,o),
(202,108,o),
(172,108,cs)
);
},
{
closed = 1;
nodes = (
(379,389,o),
(388,413,o),
(408,413,cs),
(423,413,o),
(436,389,o),
(440,323,c),
(375,323,l)
);
}
);
width = 600;
}
);
unicode = 230;
}
{
color = 4;
glyphname = dcaron;
layers = (
{
layerId = "EE2FFE84-06F1-4AFB-BBEC-60D09A436D14";
shapes = (
{
closed = 1;
nodes = (
(341,-12,o),
(411,58,o),
(438,143,c),
(435,148,l),
(438,0,l),
(460,0,l),
(460,710,l),
(430,710,l),
(430,386,l),
(433,390,l),
(407,477,o),
(337,542,o),
(251,542,cs),
(115,542,o),
(40,433,o),
(40,265,cs),
(40,95,o),
(115,-12,o),
(251,-12,cs)
);
},
{
closed = 1;
nodes = (
(135,18,o),
(72,113,o),
(72,265,cs),
(72,415,o),
(135,512,o),
(251,512,cs),
(356,512,o),
(430,408,o),
(430,265,cs),
(430,119,o),
(356,18,o),
(251,18,cs)
);
},
{
closed = 1;
nodes = (
(534,502,l),
(580,710,l),
(542,710,l),
(508,502,l)
);
}
);
width = 600;
},
{
layerId = "574EE4B9-5C1A-4E7E-9985-C08FACB65BD8";
shapes = (
{
closed = 1;
nodes = (
(305,-12,o),
(354,33,o),
(383,108,c),
(369,120,l),
(374,0,l),
(450,0,l),
(450,710,l),
(366,710,l),
(366,416,l),
(377,435,l),
(354,486,o),
(306,542,o),
(227,542,cs),
(97,542,o),
(20,435,o),
(20,265,cs),
(20,95,o),
(97,-12,o),
(227,-12,cs)
);
},
{
closed = 1;
nodes = (
(158,68,o),
(108,144,o),
(108,265,cs),
(108,388,o),
(158,462,o),
(230,462,cs),
(312,462,o),
(366,388,o),
(366,265,cs),
(366,144,o),
(312,68,o),
(232,68,cs)
);
},
{
closed = 1;
nodes = (
(536,456,l),
(590,710,l),
(506,710,l),
(476,456,l)
);
}
);
width = 600;
},
{
layerId = "58B1DC7A-69F8-4375-AD2E-AC5103CCF536";
shapes = (
{
closed = 1;
nodes = (
(250,-12,o),
(303,58,o),
(310,133,c),
(297,157,l),
(304,0,l),
(470,0,l),
(470,710,l),
(300,710,l),
(300,394,l),
(311,412,l),
(303,498,o),
(253,552,o),
(170,552,cs),
(72,552,o),
(0,452,o),
(0,270,cs),
(0,88,o),
(72,-12,o),
(166,-12,cs)
);
},
{
closed = 1;
nodes = (
(193,134,o),
(176,179,o),
(176,270,cs),
(176,361,o),
(193,406,o),
(236,406,cs),
(271,406,o),
(300,360,o),
(300,270,cs),
(300,180,o),
(270,134,o),
(236,134,cs)
);
},
{
closed = 1;
nodes = (
(598,403,l),
(640,710,l),
(502,710,l),
(480,403,l)
);
}
);
width = 600;
}
);
unicode = 271;
}
{
color = 4;
glyphname = idotless;
layers = (
{
anchors = (
{
name = bottom;
pos = (300,0);
},
{
name = ogonek;
pos = (540,0);
},
{
name = top;
pos = (335,530);
}
);
background = {
shapes = (
{
closed = 1;
nodes = (
(351,0,l),
(351,530,l),
(319,530,l),
(319,0,l)
);
},
{
closed = 1;
nodes = (
(539,0,l),
(539,30,l),
(102,30,l),
(102,0,l)
);
},
{
closed = 1;
nodes = (
(351,500,l),
(351,530,l),
(122,530,l),
(122,500,l)
);
}
);
};
layerId = "EE2FFE84-06F1-4AFB-BBEC-60D09A436D14";
shapes = (
{
closed = 1;
nodes = (
(320,0,l),
(350,0,l),
(540,0,l),
(540,28,l),
(350,28,l),
(350,530,l),
(110,530,l),
(110,502,l),
(334,502,l),
(320,516,l),
(320,28,l),
(100,28,l),
(100,0,l)
);
}
);
width = 600;
},
{
anchors = (
{
name = bottom;
pos = (300,0);
},
{
name = ogonek;
pos = (560,0);
},
{
name = top;
pos = (330,530);
}
);
background = {
shapes = (
{
closed = 1;
nodes = (
(377,0,l),
(377,530,l),
(293,530,l),
(293,0,l)
);
},
{
closed = 1;
nodes = (
(558,0,l),
(558,74,l),
(83,74,l),
(83,0,l)
);
},
{
closed = 1;
nodes = (
(377,456,l),
(377,530,l),
(103,530,l),
(103,456,l)
);
}
);
};
layerId = "574EE4B9-5C1A-4E7E-9985-C08FACB65BD8";
shapes = (
{
closed = 1;
nodes = (
(293,0,l),
(377,0,l),
(560,0,l),
(560,74,l),
(377,74,l),
(377,530,l),
(90,530,l),
(90,456,l),
(334,456,l),
(293,497,l),
(293,74,l),
(80,74,l),
(80,0,l)
);
}
);
width = 600;
},
{
anchors = (
{
name = bottom;
pos = (300,0);
},
{
name = ogonek;
pos = (580,0);
},
{
name = top;
pos = (334,540);
}
);
background = {
shapes = (
{
closed = 1;
nodes = (
(406,0,l),
(406,540,l),
(264,540,l),
(264,0,l)
);
},
{
closed = 1;
nodes = (
(566,0,l),
(566,126,l),
(75,126,l),
(75,0,l)
);
},
{
closed = 1;
nodes = (
(378,414,l),
(378,540,l),
(88,540,l),
(88,414,l)
);
}
);
};
layerId = "58B1DC7A-69F8-4375-AD2E-AC5103CCF536";
shapes = (
{
closed = 1;
nodes = (
(250,0,l),
(420,0,l),
(580,0,l),
(580,130,l),
(420,130,l),
(420,540,l),
(70,540,l),
(70,410,l),
(319,410,l),
(250,479,l),
(250,130,l),
(60,130,l),
(60,0,l)
);
}
);
width = 600;
}
);
unicode = 305;
}
{
color = 4;
glyphname = Eng;
layers = (
{
layerId = "EE2FFE84-06F1-4AFB-BBEC-60D09A436D14";
shapes = (
{
closed = 1;
nodes = (
(396,-150,ls),
(474,-150,o),
(520,-100,o),
(520,-30,cs),
(520,33,l),
(488,33,l),
(488,-30,ls),
(488,-91,o),
(450,-120,o),
(396,-120,cs),
(299,-120,l),
(299,-150,l)
);
},
{
alignment = -1;
ref = N;
}
);
width = 600;
},
{
layerId = "574EE4B9-5C1A-4E7E-9985-C08FACB65BD8";
shapes = (
{
closed = 1;
nodes = (
(380,-150,ls),
(472,-150,o),
(530,-94,o),
(530,-7,cs),
(530,91,l),
(444,91,l),
(444,-8,ls),
(444,-46,o),
(422,-66,o),
(380,-66,cs),
(277,-66,l),
(277,-150,l)
);
},
{
alignment = -1;
ref = N;
}
);
width = 600;
},
{
layerId = "58B1DC7A-69F8-4375-AD2E-AC5103CCF536";
shapes = (
{
closed = 1;
nodes = (
(390,-150,ls),
(479,-150,o),
(540,-92,o),
(540,-6,cs),
(540,108,l),
(390,108,l),
(390,0,ls),
(390,-14,o),
(382,-20,o),
(366,-20,cs),
(280,-20,l),
(280,-150,l)
);
},
{
alignment = -1;
ref = N;
}
);
width = 600;
}
);
unicode = 330;
}
{
color = 4;
glyphname = eng;
layers = (
{
layerId = "EE2FFE84-06F1-4AFB-BBEC-60D09A436D14";
shapes = (
{
closed = 1;
nodes = (
(372,-150,ls),
(445,-150,o),
(496,-100,o),
(496,-30,cs),
(496,33,l),
(466,33,l),
(466,-30,ls),
(466,-83,o),
(428,-120,o),
(374,-120,cs),
(296,-120,l),
(296,-150,l)
);
},
{
ref = n;
}
);
width = 600;
},
{
layerId = "574EE4B9-5C1A-4E7E-9985-C08FACB65BD8";
shapes = (
{
closed = 1;
nodes = (
(366,-150,ls),
(459,-150,o),
(516,-94,o),
(516,-7,cs),
(516,91,l),
(432,91,l),
(432,-8,ls),
(432,-49,o),
(408,-76,o),
(368,-76,cs),
(285,-76,l),
(285,-150,l)
);
},
{
alignment = -1;
ref = n;
}
);
width = 600;
},
{
layerId = "58B1DC7A-69F8-4375-AD2E-AC5103CCF536";
shapes = (
{
closed = 1;
nodes = (
(384,-150,ls),
(474,-150,o),
(536,-90,o),
(536,-3,cs),
(536,112,l),
(366,112,l),
(366,11,ls),
(366,-9,o),
(353,-20,o),
(331,-20,cs),
(282,-20,l),
(282,-150,l)
);
},
{
alignment = -1;
ref = n;
}
);
width = 600;
}
);
unicode = 331;
}
{
color = 4;
glyphname = OE;
layers = (
{
anchors = (
{
name = bottom;
pos = (300,0);
},
{
name = top;
pos = (300,710);
}
);
layerId = "EE2FFE84-06F1-4AFB-BBEC-60D09A436D14";
shapes = (
{
closed = 1;
nodes = (
(287,-16,o),
(336,124,o),
(336,354,cs),
(336,584,o),
(287,726,o),
(175,726,cs),
(65,726,o),
(10,603,o),
(10,354,cs),
(10,107,o),
(65,-16,o),
(175,-16,cs)
);
},
{
closed = 1;
nodes = (
(87,16,o),
(44,127,o),
(44,354,cs),
(44,582,o),
(87,694,o),
(175,694,cs),
(263,694,o),
(306,581,o),
(306,354,cs),
(306,128,o),
(263,16,o),
(175,16,cs)
);
},
{
closed = 1;
nodes = (
(590,0,l),
(590,30,l),
(340,30,l),
(340,339,l),
(570,339,l),
(570,369,l),
(340,369,l),
(340,680,l),
(582,680,l),
(582,710,l),
(308,710,l),
(308,0,l)
);
}
);
width = 600;
},
{
anchors = (
{
name = bottom;
pos = (300,0);
},
{
name = top;
pos = (300,710);
}
);
background = {
shapes = (
{
closed = 1;
nodes = (
(341,-16,o),
(416,126,o),
(416,354,cs),
(416,584,o),
(341,726,o),
(212,726,cs),
(83,726,o),
(7,584,o),
(7,354,cs),
(7,126,o),
(83,-16,o),
(212,-16,cs)
);
},
{
closed = 1;
nodes = (
(127,68,o),
(95,178,o),
(95,354,cs),
(95,532,o),
(127,642,o),
(212,642,cs),
(297,642,o),
(328,532,o),
(328,354,cs),
(328,178,o),
(297,68,o),
(212,68,cs)
);
},
{
closed = 1;
nodes = (
(592,0,l),
(592,84,l),
(416,84,l),
(416,315,l),
(580,315,l),
(580,397,l),
(416,397,l),
(416,626,l),
(587,626,l),
(587,710,l),
(330,710,l),
(330,0,l)
);
}
);
};
layerId = "574EE4B9-5C1A-4E7E-9985-C08FACB65BD8";
shapes = (
{
closed = 1;
nodes = (
(338,-16,o),
(402,136,o),
(402,354,cs),
(402,572,o),
(338,726,o),
(212,726,cs),
(83,726,o),
(10,594,o),
(10,354,cs),
(10,114,o),
(83,-16,o),
(212,-16,cs)
);
},
{
closed = 1;
nodes = (
(127,68,o),
(98,168,o),
(98,354,cs),
(98,542,o),
(127,642,o),
(212,642,cs),
(297,642,o),
(326,542,o),
(326,354,cs),
(326,168,o),
(297,68,o),
(212,68,cs)
);
},
{
closed = 1;
nodes = (
(590,0,l),
(590,84,l),
(414,84,l),
(414,315,l),
(570,315,l),
(570,397,l),
(414,397,l),
(414,626,l),
(582,626,l),
(582,710,l),
(328,710,l),
(328,0,l)
);
}
);
width = 600;
},
{
anchors = (
{
name = bottom;
pos = (300,0);
},
{
name = top;
pos = (300,710);
}
);
layerId = "58B1DC7A-69F8-4375-AD2E-AC5103CCF536";
shapes = (
{
closed = 1;
nodes = (
(342,-16,o),
(408,154,o),
(408,354,cs),
(408,554,o),
(342,726,o),
(210,726,cs),
(84,726,o),
(8,609,o),
(8,355,cs),
(8,101,o),
(84,-16,o),
(210,-16,cs)
);
},
{
closed = 1;
nodes = (
(193,138,o),
(182,185,o),
(182,355,cs),
(182,525,o),
(193,572,o),
(224,572,cs),
(255,572,o),
(266,525,o),
(266,355,cs),
(266,185,o),
(255,138,o),
(224,138,cs)
);
},
{
closed = 1;
nodes = (
(592,0,l),
(592,158,l),
(453,158,l),
(453,279,l),
(572,279,l),
(572,433,l),
(453,433,l),
(453,552,l),
(584,552,l),
(584,710,l),
(314,710,l),
(314,0,l)
);
}
);
width = 600;
}
);
unicode = 338;
}
{
color = 4;
glyphname = oe;
kernLeft = "0";
kernRight = "0";
layers = (
{
layerId = "EE2FFE84-06F1-4AFB-BBEC-60D09A436D14";
shapes = (
{
closed = 1;
nodes = (
(507,-12,o),
(557,39,o),
(581,143,c),
(549,145,l),
(525,57,o),
(489,18,o),
(430,18,cs),
(342,18,o),
(303,92,o),
(301,260,c),
(582,260,l),
(582,272,ls),
(582,444,o),
(528,542,o),
(430,542,cs),
(328,542,o),
(273,445,o),
(273,265,cs),
(273,77,o),
(324,-12,o),
(430,-12,cs)
);
},
{
closed = 1;
nodes = (
(249,-12,o),
(297,85,o),
(297,265,cs),
(297,445,o),
(249,542,o),
(160,542,cs),
(69,542,o),
(18,443,o),
(18,265,cs),
(18,87,o),
(69,-12,o),
(160,-12,cs)
);
},
{
closed = 1;
nodes = (
(89,18,o),
(50,106,o),
(50,265,cs),
(50,424,o),
(89,512,o),
(160,512,cs),
(230,512,o),
(269,423,o),
(269,265,cs),
(269,107,o),
(230,18,o),
(160,18,cs)
);
},
{
closed = 1;
nodes = (
(306,430,o),
(353,512,o),
(430,512,cs),
(505,512,o),
(545,437,o),
(550,288,c),
(301,288,l)
);
}
);
width = 600;
},
{
layerId = "574EE4B9-5C1A-4E7E-9985-C08FACB65BD8";
shapes = (
{
closed = 1;
nodes = (
(517,-12,o),
(560,33,o),
(585,150,c),
(500,157,l),
(487,93,o),
(467,68,o),
(428,68,cs),
(378,68,o),
(347,129,o),
(342,239,c),
(591,239,l),
(591,277,ls),
(591,449,o),
(534,542,o),
(428,542,cs),
(318,542,o),
(257,436,o),
(257,265,cs),
(257,97,o),
(318,-12,o),
(428,-12,cs)
);
},
{
closed = 1;
nodes = (
(277,-12,o),
(340,104,o),
(340,265,cs),
(340,436,o),
(277,542,o),
(175,542,cs),
(74,542,o),
(10,435,o),
(10,265,cs),
(10,95,o),
(74,-12,o),
(175,-12,cs)
);
},
{
closed = 1;
nodes = (
(126,68,o),
(96,143,o),
(96,265,cs),
(96,387,o),
(126,462,o),
(175,462,cs),
(225,462,o),
(255,388,o),
(255,265,cs),
(255,142,o),
(225,68,o),
(175,68,cs)
);
},
{
closed = 1;
nodes = (
(351,413,o),
(377,462,o),
(423,462,cs),
(470,462,o),
(497,413,o),
(504,313,c),
(343,313,l)
);
}
);
width = 600;
},
{
layerId = "58B1DC7A-69F8-4375-AD2E-AC5103CCF536";
shapes = (
{
closed = 1;
nodes = (
(501,-12,o),
(565,44,o),
(586,169,c),
(438,184,l),
(437,139,o),
(426,131,o),
(409,131,cs),
(387,131,o),
(373,155,o),
(372,220,c),
(592,220,l),
(592,281,ls),
(592,475,o),
(510,552,o),
(413,552,cs),
(301,552,o),
(232,445,o),
(232,270,cs),
(232,95,o),
(301,-12,o),
(413,-12,cs)
);
},
{
closed = 1;
nodes = (
(285,-12,o),
(371,97,o),
(371,270,cs),
(371,443,o),
(285,552,o),
(189,552,cs),
(69,552,o),
(8,470,o),
(8,270,cs),
(8,70,o),
(69,-12,o),
(189,-12,cs)
);
},
{
closed = 1;
nodes = (
(173,134,o),
(162,148,o),
(162,270,cs),
(162,388,o),
(173,413,o),
(193,413,cs),
(213,413,o),
(221,388,o),
(221,270,cs),
(221,148,o),
(213,134,o),
(193,134,cs)
);
},
{
closed = 1;
nodes = (
(379,389,o),
(388,413,o),
(408,413,cs),
(423,413,o),
(436,389,o),
(440,323,c),
(375,323,l)
);
}
);
width = 600;
}
);
unicode = 339;
}
{
color = 4;
glyphname = tcaron;
kernLeft = "0";
kernRight = "0";
layers = (
{
guides = (
{
pos = (311,904);
}
);
layerId = "EE2FFE84-06F1-4AFB-BBEC-60D09A436D14";
shapes = (
{
closed = 1;
nodes = (
(470,0,l),
(470,28,l),
(324,28,ls),
(275,28,o),
(246,57,o),
(246,108,cs),
(246,654,l),
(216,654,l),
(216,112,ls),
(216,42,o),
(258,0,o),
(328,0,cs)
);
},
{
closed = 1;
nodes = (
(440,502,l),
(440,530,l),
(30,530,l),
(30,502,l)
);
},
{
closed = 1;
nodes = (
(514,502,l),
(560,710,l),
(522,710,l),
(488,502,l)
);
}
);
width = 600;
},
{
layerId = "574EE4B9-5C1A-4E7E-9985-C08FACB65BD8";
shapes = (
{
closed = 1;
nodes = (
(470,0,l),
(470,74,l),
(328,74,ls),
(281,74,o),
(259,97,o),
(259,146,cs),
(259,654,l),
(175,654,l),
(175,146,ls),
(175,47,o),
(225,0,o),
(328,0,cs)
);
},
{
closed = 1;
nodes = (
(440,456,l),
(440,530,l),
(20,530,l),
(20,456,l)
);
},
{
closed = 1;
nodes = (
(526,456,l),
(580,710,l),
(496,710,l),
(466,456,l)
);
}
);
width = 600;
},
{
layerId = "58B1DC7A-69F8-4375-AD2E-AC5103CCF536";
shapes = (
{
closed = 1;
nodes = (
(480,0,l),
(480,130,l),
(374,130,ls),
(324,130,o),
(300,154,o),
(300,204,cs),
(300,667,l),
(130,667,l),
(130,182,ls),
(130,58,o),
(188,0,o),
(320,0,cs)
);
},
{
closed = 1;
nodes = (
(430,410,l),
(430,540,l),
(20,540,l),
(20,410,l)
);
},
{
closed = 1;
nodes = (
(560,403,l),
(600,710,l),
(470,710,l),
(450,403,l)
);
}
);
width = 600;
}
);
unicode = 357;
}
{
color = 4;
glyphname = Schwa;
kernLeft = "0";
kernRight = "0";
layers = (
{
layerId = "EE2FFE84-06F1-4AFB-BBEC-60D09A436D14";
shapes = (
{
closed = 1;
nodes = (
(454,-15,o),
(560,128,o),
(560,356,cs),
(560,573,o),
(458,726,o),
(301,726,cs),
(196,726,o),
(99,641,o),
(60,509,c),
(94,506,l),
(133,621,o),
(216,694,o),
(301,694,cs),
(435,694,o),
(524,558,o),
(527,365,c),
(48,365,l),
(48,356,ls),
(48,138,o),
(148,-15,o),
(301,-15,cs)
);
},
{
closed = 1;
nodes = (
(176,17,o),
(90,148,o),
(82,335,c),
(527,335,l),
(519,138,o),
(426,17,o),
(301,17,cs)
);
}
);
width = 600;
},
{
layerId = "574EE4B9-5C1A-4E7E-9985-C08FACB65BD8";
shapes = (
{
closed = 1;
nodes = (
(463,-16,o),
(572,127,o),
(572,355,cs),
(572,593,o),
(471,726,o),
(298,726,cs),
(179,726,o),
(92,641,o),
(52,498,c),
(146,490,l),
(168,582,o),
(220,642,o),
(302,642,cs),
(413,642,o),
(481,541,o),
(481,390,c),
(38,390,l),
(38,343,ls),
(38,130,o),
(138,-16,o),
(308,-16,cs)
);
},
{
closed = 1;
nodes = (
(198,68,o),
(131,158,o),
(131,306,c),
(480,306,l),
(480,158,o),
(413,68,o),
(308,68,cs)
);
}
);
width = 600;
},
{
layerId = "58B1DC7A-69F8-4375-AD2E-AC5103CCF536";
shapes = (
{
closed = 1;
nodes = (
(462,-16,o),
(574,123,o),
(574,355,cs),
(574,587,o),
(469,726,o),
(292,726,cs),
(162,726,o),
(67,635,o),
(32,502,c),
(214,480,l),
(226,534,o),
(252,572,o),
(298,572,cs),
(364,572,o),
(390,493,o),
(390,413,c),
(30,413,l),
(30,337,ls),
(30,111,o),
(123,-16,o),
(301,-16,cs)
);
},
{
closed = 1;
nodes = (
(255,138,o),
(218,180,o),
(218,271,c),
(390,271,l),
(390,189,o),
(360,138,o),
(302,138,cs)
);
}
);
width = 600;
}
);
unicode = 399;
}
{
glyphname = ohorn;
layers = (
{
anchors = (
{
name = bottom;
pos = (300,0);
},
{
name = top;
pos = (294,530);
}
);
background = {
shapes = (
{
closed = 1;
nodes = (
(416,510,ls),
(476,510,o),
(500,536,o),
(500,582,cs),
(500,609,o),
(492,639,o),
(486,654,c),
(456,654,l),
(462,636,o),
(470,608,o),
(470,580,cs),
(470,546,o),
(452,530,o),
(408,530,cs),
(370,530,l),
(374,510,l)
);
}
);
};
layerId = "EE2FFE84-06F1-4AFB-BBEC-60D09A436D14";
shapes = (
{
ref = o;
},
{
pos = (135,0);
ref = horncomb;
}
);
width = 600;
},
{
anchors = (
{
name = bottom;
pos = (300,0);
},
{
name = top;
pos = (288,530);
}
);
background = {
shapes = (
{
closed = 1;
nodes = (
(444,-12,o),
(540,96,o),
(540,265,cs),
(540,434,o),
(444,542,o),
(298,542,cs),
(151,542,o),
(56,434,o),
(56,265,cs),
(56,96,o),
(151,-12,o),
(298,-12,cs)
);
},
{
closed = 1;
nodes = (
(200,68,o),
(144,142,o),
(144,265,cs),
(144,388,o),
(200,462,o),
(298,462,cs),
(395,462,o),
(452,388,o),
(452,265,cs),
(452,142,o),
(395,68,o),
(298,68,cs)
);
},
{
closed = 1;
nodes = (
(428,482,ls),
(496,482,o),
(544,510,o),
(544,582,cs),
(544,614,o),
(536,652,o),
(530,670,c),
(456,670,l),
(462,646,o),
(470,608,o),
(470,578,cs),
(470,542,o),
(450,530,o),
(420,530,cs),
(366,530,l),
(372,482,l)
);
}
);
};
layerId = "574EE4B9-5C1A-4E7E-9985-C08FACB65BD8";
shapes = (
{
ref = o;
},
{
pos = (155,0);
ref = horncomb;
}
);
width = 600;
},
{
anchors = (
{
name = bottom;
pos = (300,0);
},
{
name = top;
pos = (251,540);
}
);
background = {
shapes = (
{
closed = 1;
nodes = (
(427,-12,o),
(532,98,o),
(532,270,cs),
(532,442,o),
(427,552,o),
(271,552,cs),
(115,552,o),
(10,442,o),
(10,270,cs),
(10,98,o),
(115,-12,o),
(271,-12,cs)
);
},
{
closed = 1;
nodes = (
(215,134,o),
(186,180,o),
(186,270,cs),
(186,360,o),
(215,406,o),
(271,406,cs),
(327,406,o),
(356,360,o),
(356,270,cs),
(356,180,o),
(327,134,o),
(271,134,cs)
);
},
{
closed = 1;
nodes = (
(408,460,ls),
(539,460,o),
(590,503,o),
(590,598,cs),
(590,636,o),
(584,673,o),
(576,698,c),
(433,698,l),
(439,674,o),
(447,632,o),
(447,598,cs),
(447,558,o),
(425,540,o),
(385,540,cs),
(354,540,l),
(362,460,l)
);
}
);
};
layerId = "58B1DC7A-69F8-4375-AD2E-AC5103CCF536";
shapes = (
{
ref = o;
},
{
pos = (162,0);
ref = horncomb;
}
);
width = 600;
}
);
unicode = 417;
}
{
glyphname = Uhorn;
layers = (
{
anchors = (
{
name = bottom;
pos = (256,0);
},
{
name = top;
pos = (256,710);
}
);
layerId = "EE2FFE84-06F1-4AFB-BBEC-60D09A436D14";
shapes = (
{
closed = 1;
nodes = (
(397,-16,o),
(476,79,o),
(476,248,cs),
(476,710,l),
(444,710,l),
(444,248,ls),
(444,99,o),
(377,16,o),
(256,16,cs),
(135,16,o),
(68,99,o),
(68,248,cs),
(68,710,l),
(36,710,l),
(36,248,ls),
(36,79,o),
(115,-16,o),
(256,-16,cs)
);
},
{
closed = 1;
nodes = (
(480,690,ls),
(540,690,o),
(564,716,o),
(564,762,cs),
(564,789,o),
(556,819,o),
(550,834,c),
(520,834,l),
(526,816,o),
(534,788,o),
(534,760,cs),
(534,726,o),
(516,710,o),
(476,710,cs),
(444,710,l),
(448,690,l)
);
}
);
width = 600;
},
{
anchors = (
{
name = bottom;
pos = (254,0);
},
{
name = top;
pos = (254,710);
}
);
layerId = "574EE4B9-5C1A-4E7E-9985-C08FACB65BD8";
shapes = (
{
closed = 1;
nodes = (
(399,-16,o),
(490,85,o),
(490,248,cs),
(490,710,l),
(404,710,l),
(404,248,ls),
(404,131,o),
(350,68,o),
(254,68,cs),
(158,68,o),
(104,131,o),
(104,248,cs),
(104,710,l),
(18,710,l),
(18,248,ls),
(18,85,o),
(109,-16,o),
(254,-16,cs)
);
},
{
closed = 1;
nodes = (
(466,662,ls),
(534,662,o),
(582,690,o),
(582,762,cs),
(582,794,o),
(574,832,o),
(568,850,c),
(494,850,l),
(500,826,o),
(508,788,o),
(508,758,cs),
(508,722,o),
(488,710,o),
(458,710,cs),
(404,710,l),
(410,662,l)
);
}
);
width = 600;
},
{
anchors = (
{
name = bottom;
pos = (262,0);
},
{
name = top;
pos = (242,710);
}
);
layerId = "58B1DC7A-69F8-4375-AD2E-AC5103CCF536";
shapes = (
{
closed = 1;
nodes = (
(418,-16,o),
(508,70,o),
(508,244,cs),
(508,710,l),
(328,710,l),
(328,224,ls),
(328,170,o),
(305,138,o),
(262,138,cs),
(219,138,o),
(196,170,o),
(196,224,cs),
(196,710,l),
(16,710,l),
(16,244,ls),
(16,70,o),
(106,-16,o),
(262,-16,cs)
);
},
{
closed = 1;
nodes = (
(402,630,ls),
(533,630,o),
(584,673,o),
(584,768,cs),
(584,806,o),
(578,843,o),
(570,868,c),
(427,868,l),
(433,844,o),
(441,802,o),
(441,768,cs),
(441,728,o),
(419,710,o),
(379,710,cs),
(328,710,l),
(336,630,l)
);
}
);
width = 600;
}
);
unicode = 431;
}
{
glyphname = uhorn;
layers = (
{
anchors = (
{
name = bottom;
pos = (250,0);
},
{
name = ogonek;
pos = (443,0);
},
{
name = top;
pos = (250,530);
}
);
layerId = "EE2FFE84-06F1-4AFB-BBEC-60D09A436D14";
shapes = (
{
closed = 1;
nodes = (
(338,-12,o),
(408,46,o),
(419,145,c),
(414,145,l),
(417,0,l),
(443,0,l),
(443,530,l),
(413,530,l),
(413,213,ls),
(413,94,o),
(345,18,o),
(239,18,cs),
(141,18,o),
(87,81,o),
(87,202,cs),
(87,530,l),
(57,530,l),
(57,189,ls),
(57,63,o),
(125,-12,o),
(231,-12,cs)
);
},
{
closed = 1;
nodes = (
(459,510,ls),
(519,510,o),
(543,536,o),
(543,582,cs),
(543,609,o),
(535,639,o),
(529,654,c),
(499,654,l),
(505,636,o),
(513,608,o),
(513,580,cs),
(513,546,o),
(495,530,o),
(451,530,cs),
(413,530,l),
(417,510,l)
);
}
);
width = 600;
},
{
anchors = (
{
name = bottom;
pos = (249,0);
},
{
name = ogonek;
pos = (460,0);
},
{
name = top;
pos = (249,530);
}
);
layerId = "574EE4B9-5C1A-4E7E-9985-C08FACB65BD8";
shapes = (
{
closed = 1;
nodes = (
(309,-12,o),
(372,37,o),
(393,124,c),
(380,131,l),
(380,0,l),
(460,0,l),
(460,530,l),
(376,530,l),
(376,214,ls),
(376,119,o),
(325,62,o),
(242,62,cs),
(166,62,o),
(130,109,o),
(130,212,cs),
(130,530,l),
(46,530,l),
(46,189,ls),
(46,63,o),
(114,-12,o),
(219,-12,cs)
);
},
{
closed = 1;
nodes = (
(438,482,ls),
(506,482,o),
(554,510,o),
(554,582,cs),
(554,614,o),
(546,652,o),
(540,670,c),
(466,670,l),
(472,646,o),
(480,608,o),
(480,578,cs),
(480,542,o),
(460,530,o),
(430,530,cs),
(376,530,l),
(382,482,l)
);
}
);
width = 600;
},
{
anchors = (
{
name = bottom;
pos = (250,0);
},
{
name = ogonek;
pos = (489,0);
},
{
name = top;
pos = (232,540);
}
);
layerId = "58B1DC7A-69F8-4375-AD2E-AC5103CCF536";
shapes = (
{
closed = 1;
nodes = (
(273,-12,o),
(336,53,o),
(347,168,c),
(329,170,l),
(334,0,l),
(489,0,l),
(489,540,l),
(319,540,l),
(319,232,ls),
(319,162,o),
(282,130,o),
(246,130,cs),
(208,130,o),
(188,154,o),
(188,224,cs),
(188,540,l),
(18,540,l),
(18,182,ls),
(18,52,o),
(75,-12,o),
(173,-12,cs)
);
},
{
closed = 1;
nodes = (
(400,460,ls),
(531,460,o),
(582,503,o),
(582,598,cs),
(582,636,o),
(576,673,o),
(568,698,c),
(425,698,l),
(431,674,o),
(439,632,o),
(439,598,cs),
(439,558,o),
(417,540,o),
(377,540,cs),
(326,540,l),
(334,460,l)
);
}
);
width = 600;
}
);
unicode = 432;
}
